<ttFont>
    <TTGlyph name="A" xMin="10" yMin="0" xMax="667" yMax="710">
      <contour>
        <pt x="301" y="710" on="1"/>
        <pt x="377" y="710" on="1"/>
        <pt x="667" y="0" on="1"/>
        <pt x="571" y="0" on="1"/>
        <pt x="487" y="208" on="1"/>
        <pt x="189" y="208" on="1"/>
        <pt x="106" y="0" on="1"/>
        <pt x="10" y="0" on="1"/>
      </contour>
      <contour>
        <pt x="467" y="278" on="1"/>
        <pt x="339" y="606" on="1"/>
        <pt x="207" y="278" on="1"/>
      </contour>
    </TTGlyph>
    <TTGlyph name="A.sc" xMin="13" yMin="0" xMax="574" yMax="551">
      <contour>
        <pt x="13" y="0" on="1"/>
        <pt x="261" y="551" on="1"/>
        <pt x="327" y="551" on="1"/>
        <pt x="574" y="0" on="1"/>
        <pt x="489" y="0" on="1"/>
        <pt x="419" y="155" on="1"/>
        <pt x="169" y="155" on="1"/>
        <pt x="99" y="0" on="1"/>
      </contour>
      <contour>
        <pt x="294" y="452" on="1"/>
        <pt x="187" y="225" on="1"/>
        <pt x="399" y="225" on="1"/>
      </contour>
    </TTGlyph>
    <TTGlyph name="AE" xMin="-25" yMin="0" xMax="925" yMax="710">
      <contour>
        <pt x="428" y="710" on="1"/>
        <pt x="916" y="710" on="1"/>
        <pt x="916" y="630" on="1"/>
        <pt x="541" y="630" on="1"/>
        <pt x="541" y="402" on="1"/>
        <pt x="862" y="402" on="1"/>
        <pt x="862" y="322" on="1"/>
        <pt x="541" y="322" on="1"/>
        <pt x="541" y="80" on="1"/>
        <pt x="925" y="80" on="1"/>
        <pt x="925" y="0" on="1"/>
        <pt x="452" y="0" on="1"/>
        <pt x="452" y="208" on="1"/>
        <pt x="203" y="208" on="1"/>
        <pt x="73" y="0" on="1"/>
        <pt x="-25" y="0" on="1"/>
      </contour>
      <contour>
        <pt x="446" y="288" on="1"/>
        <pt x="446" y="605" on="1"/>
        <pt x="243" y="288" on="1"/>
      </contour>
    </TTGlyph>
    <TTGlyph name="AEacute" xMin="-25" yMin="0" xMax="925" yMax="916">
      <contour>
        <pt x="547" y="795" on="1"/>
        <pt x="489" y="815" on="1"/>
        <pt x="547" y="916" on="1"/>
        <pt x="635" y="916" on="1"/>
      </contour>
      <contour>
        <pt x="428" y="710" on="1"/>
        <pt x="916" y="710" on="1"/>
        <pt x="916" y="630" on="1"/>
        <pt x="541" y="630" on="1"/>
        <pt x="541" y="402" on="1"/>
        <pt x="862" y="402" on="1"/>
        <pt x="862" y="322" on="1"/>
        <pt x="541" y="322" on="1"/>
        <pt x="541" y="80" on="1"/>
        <pt x="925" y="80" on="1"/>
        <pt x="925" y="0" on="1"/>
        <pt x="452" y="0" on="1"/>
        <pt x="452" y="208" on="1"/>
        <pt x="203" y="208" on="1"/>
        <pt x="73" y="0" on="1"/>
        <pt x="-25" y="0" on="1"/>
      </contour>
      <contour>
        <pt x="446" y="288" on="1"/>
        <pt x="446" y="605" on="1"/>
        <pt x="243" y="288" on="1"/>
      </contour>
    </TTGlyph>
    <TTGlyph name="Aacute" xMin="10" yMin="0" xMax="667" yMax="916">
      <contour>
        <pt x="301" y="710" on="1"/>
        <pt x="377" y="710" on="1"/>
        <pt x="667" y="0" on="1"/>
        <pt x="571" y="0" on="1"/>
        <pt x="487" y="208" on="1"/>
        <pt x="189" y="208" on="1"/>
        <pt x="106" y="0" on="1"/>
        <pt x="10" y="0" on="1"/>
      </contour>
      <contour>
        <pt x="467" y="278" on="1"/>
        <pt x="339" y="606" on="1"/>
        <pt x="207" y="278" on="1"/>
      </contour>
      <contour>
        <pt x="354" y="795" on="1"/>
        <pt x="296" y="815" on="1"/>
        <pt x="354" y="916" on="1"/>
        <pt x="442" y="916" on="1"/>
      </contour>
    </TTGlyph>
    <TTGlyph name="Abreve" xMin="10" yMin="0" xMax="667" yMax="916">
      <contour>
        <pt x="301" y="710" on="1"/>
        <pt x="377" y="710" on="1"/>
        <pt x="667" y="0" on="1"/>
        <pt x="571" y="0" on="1"/>
        <pt x="487" y="208" on="1"/>
        <pt x="189" y="208" on="1"/>
        <pt x="106" y="0" on="1"/>
        <pt x="10" y="0" on="1"/>
      </contour>
      <contour>
        <pt x="467" y="278" on="1"/>
        <pt x="339" y="606" on="1"/>
        <pt x="207" y="278" on="1"/>
      </contour>
      <contour>
        <pt x="339" y="848" on="1"/>
        <pt x="361" y="848" on="0"/>
        <pt x="394" y="887" on="0"/>
        <pt x="397" y="916" on="1"/>
        <pt x="447" y="916" on="1"/>
        <pt x="447" y="892" on="0"/>
        <pt x="430" y="852" on="0"/>
        <pt x="401" y="822" on="0"/>
        <pt x="362" y="805" on="0"/>
        <pt x="339" y="805" on="1"/>
        <pt x="316" y="805" on="0"/>
        <pt x="277" y="822" on="0"/>
        <pt x="248" y="852" on="0"/>
        <pt x="231" y="892" on="0"/>
        <pt x="231" y="916" on="1"/>
        <pt x="282" y="916" on="1"/>
        <pt x="282" y="889" on="0"/>
        <pt x="316" y="848" on="0"/>
      </contour>
    </TTGlyph>
    <TTGlyph name="Acircumflex" xMin="10" yMin="0" xMax="667" yMax="916">
      <contour>
        <pt x="301" y="710" on="1"/>
        <pt x="377" y="710" on="1"/>
        <pt x="667" y="0" on="1"/>
        <pt x="571" y="0" on="1"/>
        <pt x="487" y="208" on="1"/>
        <pt x="189" y="208" on="1"/>
        <pt x="106" y="0" on="1"/>
        <pt x="10" y="0" on="1"/>
      </contour>
      <contour>
        <pt x="467" y="278" on="1"/>
        <pt x="339" y="606" on="1"/>
        <pt x="207" y="278" on="1"/>
      </contour>
      <contour>
        <pt x="206" y="826" on="1"/>
        <pt x="307" y="916" on="1"/>
        <pt x="371" y="916" on="1"/>
        <pt x="472" y="826" on="1"/>
        <pt x="424" y="802" on="1"/>
        <pt x="339" y="865" on="1"/>
        <pt x="254" y="802" on="1"/>
      </contour>
    </TTGlyph>
    <TTGlyph name="Adblgrave" xMin="10" yMin="0" xMax="667" yMax="918">
      <contour>
        <pt x="301" y="710" on="1"/>
        <pt x="377" y="710" on="1"/>
        <pt x="667" y="0" on="1"/>
        <pt x="571" y="0" on="1"/>
        <pt x="487" y="208" on="1"/>
        <pt x="189" y="208" on="1"/>
        <pt x="106" y="0" on="1"/>
        <pt x="10" y="0" on="1"/>
      </contour>
      <contour>
        <pt x="467" y="278" on="1"/>
        <pt x="339" y="606" on="1"/>
        <pt x="207" y="278" on="1"/>
      </contour>
      <contour>
        <pt x="307" y="918" on="1"/>
        <pt x="383" y="918" on="1"/>
        <pt x="437" y="817" on="1"/>
        <pt x="391" y="797" on="1"/>
      </contour>
      <contour>
        <pt x="171" y="918" on="1"/>
        <pt x="247" y="918" on="1"/>
        <pt x="301" y="817" on="1"/>
        <pt x="255" y="797" on="1"/>
      </contour>
    </TTGlyph>
    <TTGlyph name="Adieresis" xMin="10" yMin="0" xMax="667" yMax="913">
      <contour>
        <pt x="301" y="710" on="1"/>
        <pt x="377" y="710" on="1"/>
        <pt x="667" y="0" on="1"/>
        <pt x="571" y="0" on="1"/>
        <pt x="487" y="208" on="1"/>
        <pt x="189" y="208" on="1"/>
        <pt x="106" y="0" on="1"/>
        <pt x="10" y="0" on="1"/>
      </contour>
      <contour>
        <pt x="467" y="278" on="1"/>
        <pt x="339" y="606" on="1"/>
        <pt x="207" y="278" on="1"/>
      </contour>
      <contour>
        <pt x="221" y="811" on="1"/>
        <pt x="221" y="913" on="1"/>
        <pt x="295" y="913" on="1"/>
        <pt x="295" y="811" on="1"/>
      </contour>
      <contour>
        <pt x="383" y="811" on="1"/>
        <pt x="383" y="913" on="1"/>
        <pt x="457" y="913" on="1"/>
        <pt x="457" y="811" on="1"/>
      </contour>
    </TTGlyph>
    <TTGlyph name="Agrave" xMin="10" yMin="0" xMax="667" yMax="917">
      <contour>
        <pt x="301" y="710" on="1"/>
        <pt x="377" y="710" on="1"/>
        <pt x="667" y="0" on="1"/>
        <pt x="571" y="0" on="1"/>
        <pt x="487" y="208" on="1"/>
        <pt x="189" y="208" on="1"/>
        <pt x="106" y="0" on="1"/>
        <pt x="10" y="0" on="1"/>
      </contour>
      <contour>
        <pt x="467" y="278" on="1"/>
        <pt x="339" y="606" on="1"/>
        <pt x="207" y="278" on="1"/>
      </contour>
      <contour>
        <pt x="235" y="917" on="1"/>
        <pt x="322" y="917" on="1"/>
        <pt x="381" y="816" on="1"/>
        <pt x="324" y="796" on="1"/>
      </contour>
    </TTGlyph>
    <TTGlyph name="Ainvertedbreve" xMin="10" yMin="0" xMax="667" yMax="916">
      <contour>
        <pt x="301" y="710" on="1"/>
        <pt x="377" y="710" on="1"/>
        <pt x="667" y="0" on="1"/>
        <pt x="571" y="0" on="1"/>
        <pt x="487" y="208" on="1"/>
        <pt x="189" y="208" on="1"/>
        <pt x="106" y="0" on="1"/>
        <pt x="10" y="0" on="1"/>
      </contour>
      <contour>
        <pt x="467" y="278" on="1"/>
        <pt x="339" y="606" on="1"/>
        <pt x="207" y="278" on="1"/>
      </contour>
      <contour>
        <pt x="339" y="873" on="1"/>
        <pt x="316" y="873" on="0"/>
        <pt x="282" y="832" on="0"/>
        <pt x="282" y="805" on="1"/>
        <pt x="231" y="805" on="1"/>
        <pt x="231" y="829" on="0"/>
        <pt x="248" y="869" on="0"/>
        <pt x="277" y="899" on="0"/>
        <pt x="316" y="916" on="0"/>
        <pt x="339" y="916" on="1"/>
        <pt x="362" y="916" on="0"/>
        <pt x="401" y="899" on="0"/>
        <pt x="430" y="869" on="0"/>
        <pt x="447" y="829" on="0"/>
        <pt x="447" y="805" on="1"/>
        <pt x="397" y="805" on="1"/>
        <pt x="394" y="834" on="0"/>
        <pt x="361" y="873" on="0"/>
      </contour>
    </TTGlyph>
    <TTGlyph name="Amacron" xMin="10" yMin="0" xMax="667" yMax="898">
      <contour>
        <pt x="301" y="710" on="1"/>
        <pt x="377" y="710" on="1"/>
        <pt x="667" y="0" on="1"/>
        <pt x="571" y="0" on="1"/>
        <pt x="487" y="208" on="1"/>
        <pt x="189" y="208" on="1"/>
        <pt x="106" y="0" on="1"/>
        <pt x="10" y="0" on="1"/>
      </contour>
      <contour>
        <pt x="467" y="278" on="1"/>
        <pt x="339" y="606" on="1"/>
        <pt x="207" y="278" on="1"/>
      </contour>
      <contour>
        <pt x="193" y="840" on="1"/>
        <pt x="193" y="898" on="1"/>
        <pt x="485" y="898" on="1"/>
        <pt x="485" y="840" on="1"/>
      </contour>
    </TTGlyph>
    <TTGlyph name="Aogonek" xMin="10" yMin="-181" xMax="667" yMax="710">
      <contour>
        <pt x="618" y="-181" on="1"/>
        <pt x="576" y="-173" on="0"/>
        <pt x="534" y="-132" on="0"/>
        <pt x="534" y="-104" on="1"/>
        <pt x="534" y="-78" on="0"/>
        <pt x="571" y="-26" on="0"/>
        <pt x="611" y="0" on="1"/>
        <pt x="571" y="0" on="1"/>
        <pt x="487" y="208" on="1"/>
        <pt x="189" y="208" on="1"/>
        <pt x="106" y="0" on="1"/>
        <pt x="10" y="0" on="1"/>
        <pt x="301" y="710" on="1"/>
        <pt x="377" y="710" on="1"/>
        <pt x="667" y="0" on="1"/>
        <pt x="623" y="-27" on="0"/>
        <pt x="585" y="-70" on="0"/>
        <pt x="585" y="-92" on="1"/>
        <pt x="585" y="-129" on="0"/>
        <pt x="640" y="-135" on="1"/>
      </contour>
      <contour>
        <pt x="467" y="278" on="1"/>
        <pt x="339" y="606" on="1"/>
        <pt x="207" y="278" on="1"/>
      </contour>
    </TTGlyph>
    <TTGlyph name="Aring" xMin="10" yMin="0" xMax="667" yMax="916">
      <contour>
        <pt x="301" y="710" on="1"/>
        <pt x="377" y="710" on="1"/>
        <pt x="667" y="0" on="1"/>
        <pt x="571" y="0" on="1"/>
        <pt x="487" y="208" on="1"/>
        <pt x="189" y="208" on="1"/>
        <pt x="106" y="0" on="1"/>
        <pt x="10" y="0" on="1"/>
      </contour>
      <contour>
        <pt x="467" y="278" on="1"/>
        <pt x="339" y="606" on="1"/>
        <pt x="207" y="278" on="1"/>
      </contour>
      <contour>
        <pt x="257" y="847" on="1"/>
        <pt x="257" y="879" on="0"/>
        <pt x="303" y="916" on="0"/>
        <pt x="338" y="916" on="1"/>
        <pt x="374" y="916" on="0"/>
        <pt x="419" y="879" on="0"/>
        <pt x="419" y="847" on="1"/>
        <pt x="419" y="815" on="0"/>
        <pt x="374" y="778" on="0"/>
        <pt x="338" y="778" on="1"/>
        <pt x="303" y="778" on="0"/>
        <pt x="257" y="815" on="0"/>
      </contour>
      <contour>
        <pt x="338" y="885" on="1"/>
        <pt x="321" y="885" on="0"/>
        <pt x="298" y="864" on="0"/>
        <pt x="298" y="847" on="1"/>
        <pt x="298" y="831" on="0"/>
        <pt x="321" y="809" on="0"/>
        <pt x="338" y="809" on="1"/>
        <pt x="354" y="809" on="0"/>
        <pt x="379" y="830" on="0"/>
        <pt x="379" y="847" on="1"/>
        <pt x="379" y="864" on="0"/>
        <pt x="355" y="885" on="0"/>
      </contour>
    </TTGlyph>
    <TTGlyph name="Aringacute" xMin="10" yMin="0" xMax="667" yMax="918">
      <contour>
        <pt x="367" y="813" on="1"/>
        <pt x="391" y="806" on="0"/>
        <pt x="419" y="772" on="0"/>
        <pt x="419" y="748" on="1"/>
        <pt x="419" y="728" on="0"/>
        <pt x="401" y="698" on="0"/>
        <pt x="385" y="690" on="1"/>
        <pt x="667" y="0" on="1"/>
        <pt x="571" y="0" on="1"/>
        <pt x="487" y="208" on="1"/>
        <pt x="189" y="208" on="1"/>
        <pt x="106" y="0" on="1"/>
        <pt x="10" y="0" on="1"/>
        <pt x="292" y="689" on="1"/>
        <pt x="257" y="708" on="0"/>
        <pt x="257" y="748" on="1"/>
        <pt x="257" y="774" on="0"/>
        <pt x="290" y="810" on="0"/>
        <pt x="316" y="815" on="1"/>
        <pt x="360" y="918" on="1"/>
        <pt x="448" y="918" on="1"/>
      </contour>
      <contour>
        <pt x="467" y="278" on="1"/>
        <pt x="339" y="606" on="1"/>
        <pt x="207" y="278" on="1"/>
      </contour>
      <contour>
        <pt x="338" y="786" on="1"/>
        <pt x="321" y="786" on="0"/>
        <pt x="298" y="765" on="0"/>
        <pt x="298" y="748" on="1"/>
        <pt x="298" y="732" on="0"/>
        <pt x="321" y="710" on="0"/>
        <pt x="338" y="710" on="1"/>
        <pt x="354" y="710" on="0"/>
        <pt x="379" y="731" on="0"/>
        <pt x="379" y="748" on="1"/>
        <pt x="379" y="765" on="0"/>
        <pt x="355" y="786" on="0"/>
      </contour>
    </TTGlyph>
    <TTGlyph name="Atilde" xMin="10" yMin="0" xMax="667" yMax="916">
      <contour>
        <pt x="301" y="710" on="1"/>
        <pt x="377" y="710" on="1"/>
        <pt x="667" y="0" on="1"/>
        <pt x="571" y="0" on="1"/>
        <pt x="487" y="208" on="1"/>
        <pt x="189" y="208" on="1"/>
        <pt x="106" y="0" on="1"/>
        <pt x="10" y="0" on="1"/>
      </contour>
      <contour>
        <pt x="467" y="278" on="1"/>
        <pt x="339" y="606" on="1"/>
        <pt x="207" y="278" on="1"/>
      </contour>
      <contour>
        <pt x="401" y="813" on="1"/>
        <pt x="378" y="813" on="0"/>
        <pt x="345" y="826" on="0"/>
        <pt x="316" y="842" on="0"/>
        <pt x="288" y="855" on="0"/>
        <pt x="272" y="855" on="1"/>
        <pt x="255" y="855" on="0"/>
        <pt x="236" y="841" on="0"/>
        <pt x="226" y="824" on="0"/>
        <pt x="223" y="808" on="0"/>
        <pt x="223" y="807" on="1"/>
        <pt x="171" y="807" on="1"/>
        <pt x="171" y="813" on="0"/>
        <pt x="180" y="847" on="0"/>
        <pt x="202" y="883" on="0"/>
        <pt x="240" y="910" on="0"/>
        <pt x="270" y="910" on="1"/>
        <pt x="291" y="910" on="0"/>
        <pt x="323" y="897" on="0"/>
        <pt x="352" y="880" on="0"/>
        <pt x="381" y="867" on="0"/>
        <pt x="399" y="867" on="1"/>
        <pt x="418" y="867" on="0"/>
        <pt x="440" y="881" on="0"/>
        <pt x="452" y="899" on="0"/>
        <pt x="455" y="914" on="0"/>
        <pt x="455" y="916" on="1"/>
        <pt x="507" y="916" on="1"/>
        <pt x="507" y="910" on="0"/>
        <pt x="498" y="877" on="0"/>
        <pt x="474" y="841" on="0"/>
        <pt x="433" y="813" on="0"/>
      </contour>
    </TTGlyph>
    <TTGlyph name="B" xMin="85" yMin="0" xMax="630" yMax="710">
      <contour>
        <pt x="630" y="183" on="1"/>
        <pt x="630" y="142" on="0"/>
        <pt x="597" y="74" on="0"/>
        <pt x="540" y="26" on="0"/>
        <pt x="465" y="0" on="0"/>
        <pt x="422" y="0" on="1"/>
        <pt x="85" y="0" on="1"/>
        <pt x="85" y="710" on="1"/>
        <pt x="438" y="710" on="1"/>
        <pt x="475" y="710" on="0"/>
        <pt x="535" y="678" on="0"/>
        <pt x="577" y="627" on="0"/>
        <pt x="600" y="562" on="0"/>
        <pt x="600" y="529" on="1"/>
        <pt x="600" y="476" on="0"/>
        <pt x="547" y="386" on="0"/>
        <pt x="498" y="364" on="1"/>
        <pt x="559" y="346" on="0"/>
        <pt x="630" y="249" on="0"/>
      </contour>
      <contour>
        <pt x="539" y="199" on="1"/>
        <pt x="539" y="223" on="0"/>
        <pt x="522" y="268" on="0"/>
        <pt x="493" y="302" on="0"/>
        <pt x="453" y="322" on="0"/>
        <pt x="429" y="322" on="1"/>
        <pt x="175" y="322" on="1"/>
        <pt x="175" y="78" on="1"/>
        <pt x="422" y="78" on="1"/>
        <pt x="447" y="78" on="0"/>
        <pt x="489" y="98" on="0"/>
        <pt x="521" y="131" on="0"/>
        <pt x="539" y="175" on="0"/>
      </contour>
      <contour>
        <pt x="175" y="632" on="1"/>
        <pt x="175" y="395" on="1"/>
        <pt x="401" y="395" on="1"/>
        <pt x="425" y="395" on="0"/>
        <pt x="465" y="414" on="0"/>
        <pt x="494" y="446" on="0"/>
        <pt x="511" y="489" on="0"/>
        <pt x="511" y="513" on="1"/>
        <pt x="511" y="538" on="0"/>
        <pt x="495" y="582" on="0"/>
        <pt x="468" y="614" on="0"/>
        <pt x="429" y="632" on="0"/>
        <pt x="407" y="632" on="1"/>
      </contour>
    </TTGlyph>
    <TTGlyph name="B.sc" xMin="79" yMin="0" xMax="542" yMax="551">
      <contour>
        <pt x="542" y="142" on="1"/>
        <pt x="542" y="109" on="0"/>
        <pt x="514" y="57" on="0"/>
        <pt x="466" y="20" on="0"/>
        <pt x="401" y="0" on="0"/>
        <pt x="364" y="0" on="1"/>
        <pt x="79" y="0" on="1"/>
        <pt x="79" y="551" on="1"/>
        <pt x="380" y="551" on="1"/>
        <pt x="411" y="551" on="0"/>
        <pt x="462" y="527" on="0"/>
        <pt x="497" y="487" on="0"/>
        <pt x="516" y="436" on="0"/>
        <pt x="516" y="410" on="1"/>
        <pt x="516" y="369" on="0"/>
        <pt x="472" y="300" on="0"/>
        <pt x="431" y="283" on="1"/>
        <pt x="482" y="269" on="0"/>
        <pt x="542" y="195" on="0"/>
      </contour>
      <contour>
        <pt x="461" y="157" on="1"/>
        <pt x="461" y="175" on="0"/>
        <pt x="447" y="207" on="0"/>
        <pt x="423" y="231" on="0"/>
        <pt x="389" y="246" on="0"/>
        <pt x="370" y="246" on="1"/>
        <pt x="159" y="246" on="1"/>
        <pt x="159" y="69" on="1"/>
        <pt x="364" y="69" on="1"/>
        <pt x="384" y="69" on="0"/>
        <pt x="420" y="83" on="0"/>
        <pt x="446" y="107" on="0"/>
        <pt x="461" y="139" on="0"/>
      </contour>
      <contour>
        <pt x="159" y="481" on="1"/>
        <pt x="159" y="311" on="1"/>
        <pt x="347" y="311" on="1"/>
        <pt x="385" y="311" on="0"/>
        <pt x="437" y="360" on="0"/>
        <pt x="437" y="396" on="1"/>
        <pt x="437" y="433" on="0"/>
        <pt x="389" y="481" on="0"/>
        <pt x="352" y="481" on="1"/>
      </contour>
    </TTGlyph>
    <TTGlyph name="C" xMin="39" yMin="-6" xMax="654" yMax="714">
      <contour>
        <pt x="39" y="360" on="1"/>
        <pt x="39" y="424" on="0"/>
        <pt x="84" y="551" on="0"/>
        <pt x="171" y="652" on="0"/>
        <pt x="297" y="714" on="0"/>
        <pt x="377" y="714" on="1"/>
        <pt x="472" y="714" on="0"/>
        <pt x="608" y="628" on="0"/>
        <pt x="641" y="559" on="1"/>
        <pt x="570" y="513" on="1"/>
        <pt x="554" y="547" on="0"/>
        <pt x="509" y="593" on="0"/>
        <pt x="456" y="621" on="0"/>
        <pt x="400" y="633" on="0"/>
        <pt x="373" y="633" on="1"/>
        <pt x="314" y="633" on="0"/>
        <pt x="223" y="584" on="0"/>
        <pt x="161" y="505" on="0"/>
        <pt x="130" y="406" on="0"/>
        <pt x="130" y="356" on="1"/>
        <pt x="130" y="300" on="0"/>
        <pt x="167" y="199" on="0"/>
        <pt x="233" y="121" on="0"/>
        <pt x="323" y="75" on="0"/>
        <pt x="376" y="75" on="1"/>
        <pt x="404" y="75" on="0"/>
        <pt x="463" y="89" on="0"/>
        <pt x="517" y="120" on="0"/>
        <pt x="564" y="167" on="0"/>
        <pt x="579" y="200" on="1"/>
        <pt x="654" y="159" on="1"/>
        <pt x="637" y="119" on="0"/>
        <pt x="576" y="58" on="0"/>
        <pt x="499" y="16" on="0"/>
        <pt x="413" y="-6" on="0"/>
        <pt x="372" y="-6" on="1"/>
        <pt x="299" y="-6" on="0"/>
        <pt x="177" y="58" on="0"/>
        <pt x="88" y="161" on="0"/>
        <pt x="39" y="292" on="0"/>
      </contour>
    </TTGlyph>
    <TTGlyph name="C.sc" xMin="40" yMin="-5" xMax="564" yMax="554">
      <contour>
        <pt x="40" y="280" on="1"/>
        <pt x="40" y="330" on="0"/>
        <pt x="79" y="428" on="0"/>
        <pt x="152" y="506" on="0"/>
        <pt x="259" y="554" on="0"/>
        <pt x="328" y="554" on="1"/>
        <pt x="409" y="554" on="0"/>
        <pt x="525" y="488" on="0"/>
        <pt x="553" y="434" on="1"/>
        <pt x="490" y="392" on="1"/>
        <pt x="477" y="417" on="0"/>
        <pt x="439" y="452" on="0"/>
        <pt x="395" y="473" on="0"/>
        <pt x="347" y="482" on="0"/>
        <pt x="325" y="482" on="1"/>
        <pt x="275" y="482" on="0"/>
        <pt x="199" y="446" on="0"/>
        <pt x="147" y="387" on="0"/>
        <pt x="121" y="313" on="0"/>
        <pt x="121" y="276" on="1"/>
        <pt x="121" y="235" on="0"/>
        <pt x="152" y="159" on="0"/>
        <pt x="207" y="101" on="0"/>
        <pt x="282" y="67" on="0"/>
        <pt x="327" y="67" on="1"/>
        <pt x="350" y="67" on="0"/>
        <pt x="400" y="78" on="0"/>
        <pt x="445" y="101" on="0"/>
        <pt x="484" y="136" on="0"/>
        <pt x="497" y="161" on="1"/>
        <pt x="564" y="123" on="1"/>
        <pt x="549" y="92" on="0"/>
        <pt x="497" y="45" on="0"/>
        <pt x="431" y="12" on="0"/>
        <pt x="358" y="-5" on="0"/>
        <pt x="323" y="-5" on="1"/>
        <pt x="261" y="-5" on="0"/>
        <pt x="157" y="44" on="0"/>
        <pt x="82" y="125" on="0"/>
        <pt x="40" y="227" on="0"/>
      </contour>
    </TTGlyph>
    <TTGlyph name="Cacute" xMin="39" yMin="-6" xMax="654" yMax="916">
      <contour>
        <pt x="391" y="795" on="1"/>
        <pt x="333" y="815" on="1"/>
        <pt x="391" y="916" on="1"/>
        <pt x="479" y="916" on="1"/>
      </contour>
      <contour>
        <pt x="39" y="360" on="1"/>
        <pt x="39" y="424" on="0"/>
        <pt x="84" y="551" on="0"/>
        <pt x="171" y="652" on="0"/>
        <pt x="297" y="714" on="0"/>
        <pt x="377" y="714" on="1"/>
        <pt x="472" y="714" on="0"/>
        <pt x="608" y="628" on="0"/>
        <pt x="641" y="559" on="1"/>
        <pt x="570" y="513" on="1"/>
        <pt x="554" y="547" on="0"/>
        <pt x="509" y="593" on="0"/>
        <pt x="456" y="621" on="0"/>
        <pt x="400" y="633" on="0"/>
        <pt x="373" y="633" on="1"/>
        <pt x="314" y="633" on="0"/>
        <pt x="223" y="584" on="0"/>
        <pt x="161" y="505" on="0"/>
        <pt x="130" y="406" on="0"/>
        <pt x="130" y="356" on="1"/>
        <pt x="130" y="300" on="0"/>
        <pt x="167" y="199" on="0"/>
        <pt x="233" y="121" on="0"/>
        <pt x="323" y="75" on="0"/>
        <pt x="376" y="75" on="1"/>
        <pt x="404" y="75" on="0"/>
        <pt x="463" y="89" on="0"/>
        <pt x="517" y="120" on="0"/>
        <pt x="564" y="167" on="0"/>
        <pt x="579" y="200" on="1"/>
        <pt x="654" y="159" on="1"/>
        <pt x="637" y="119" on="0"/>
        <pt x="576" y="58" on="0"/>
        <pt x="499" y="16" on="0"/>
        <pt x="413" y="-6" on="0"/>
        <pt x="372" y="-6" on="1"/>
        <pt x="299" y="-6" on="0"/>
        <pt x="177" y="58" on="0"/>
        <pt x="88" y="161" on="0"/>
        <pt x="39" y="292" on="0"/>
      </contour>
    </TTGlyph>
    <TTGlyph name="Ccaron" xMin="39" yMin="-6" xMax="654" yMax="916">
      <contour>
        <pt x="291" y="916" on="1"/>
        <pt x="376" y="853" on="1"/>
        <pt x="461" y="916" on="1"/>
        <pt x="509" y="892" on="1"/>
        <pt x="408" y="802" on="1"/>
        <pt x="344" y="802" on="1"/>
        <pt x="243" y="892" on="1"/>
      </contour>
      <contour>
        <pt x="39" y="360" on="1"/>
        <pt x="39" y="424" on="0"/>
        <pt x="84" y="551" on="0"/>
        <pt x="171" y="652" on="0"/>
        <pt x="297" y="714" on="0"/>
        <pt x="377" y="714" on="1"/>
        <pt x="472" y="714" on="0"/>
        <pt x="608" y="628" on="0"/>
        <pt x="641" y="559" on="1"/>
        <pt x="570" y="513" on="1"/>
        <pt x="554" y="547" on="0"/>
        <pt x="509" y="593" on="0"/>
        <pt x="456" y="621" on="0"/>
        <pt x="400" y="633" on="0"/>
        <pt x="373" y="633" on="1"/>
        <pt x="314" y="633" on="0"/>
        <pt x="223" y="584" on="0"/>
        <pt x="161" y="505" on="0"/>
        <pt x="130" y="406" on="0"/>
        <pt x="130" y="356" on="1"/>
        <pt x="130" y="300" on="0"/>
        <pt x="167" y="199" on="0"/>
        <pt x="233" y="121" on="0"/>
        <pt x="323" y="75" on="0"/>
        <pt x="376" y="75" on="1"/>
        <pt x="404" y="75" on="0"/>
        <pt x="463" y="89" on="0"/>
        <pt x="517" y="120" on="0"/>
        <pt x="564" y="167" on="0"/>
        <pt x="579" y="200" on="1"/>
        <pt x="654" y="159" on="1"/>
        <pt x="637" y="119" on="0"/>
        <pt x="576" y="58" on="0"/>
        <pt x="499" y="16" on="0"/>
        <pt x="413" y="-6" on="0"/>
        <pt x="372" y="-6" on="1"/>
        <pt x="299" y="-6" on="0"/>
        <pt x="177" y="58" on="0"/>
        <pt x="88" y="161" on="0"/>
        <pt x="39" y="292" on="0"/>
      </contour>
    </TTGlyph>
    <TTGlyph name="Ccedilla" xMin="36" yMin="-182" xMax="651" yMax="714">
      <contour>
        <pt x="292" y="-126" on="1"/>
        <pt x="305" y="-133" on="0"/>
        <pt x="354" y="-145" on="0"/>
        <pt x="380" y="-145" on="1"/>
        <pt x="407" y="-145" on="0"/>
        <pt x="437" y="-129" on="0"/>
        <pt x="437" y="-110" on="1"/>
        <pt x="437" y="-90" on="0"/>
        <pt x="409" y="-75" on="0"/>
        <pt x="386" y="-75" on="1"/>
        <pt x="365" y="-75" on="0"/>
        <pt x="319" y="-84" on="0"/>
        <pt x="306" y="-88" on="1"/>
        <pt x="350" y="-5" on="1"/>
        <pt x="281" y="-1" on="0"/>
        <pt x="165" y="65" on="0"/>
        <pt x="82" y="167" on="0"/>
        <pt x="36" y="295" on="0"/>
        <pt x="36" y="360" on="1"/>
        <pt x="36" y="424" on="0"/>
        <pt x="81" y="551" on="0"/>
        <pt x="168" y="652" on="0"/>
        <pt x="294" y="714" on="0"/>
        <pt x="374" y="714" on="1"/>
        <pt x="469" y="714" on="0"/>
        <pt x="605" y="628" on="0"/>
        <pt x="638" y="559" on="1"/>
        <pt x="567" y="513" on="1"/>
        <pt x="551" y="547" on="0"/>
        <pt x="506" y="593" on="0"/>
        <pt x="453" y="621" on="0"/>
        <pt x="397" y="633" on="0"/>
        <pt x="370" y="633" on="1"/>
        <pt x="311" y="633" on="0"/>
        <pt x="220" y="584" on="0"/>
        <pt x="158" y="505" on="0"/>
        <pt x="127" y="406" on="0"/>
        <pt x="127" y="356" on="1"/>
        <pt x="127" y="300" on="0"/>
        <pt x="164" y="199" on="0"/>
        <pt x="230" y="121" on="0"/>
        <pt x="320" y="75" on="0"/>
        <pt x="373" y="75" on="1"/>
        <pt x="401" y="75" on="0"/>
        <pt x="460" y="89" on="0"/>
        <pt x="514" y="120" on="0"/>
        <pt x="561" y="167" on="0"/>
        <pt x="576" y="200" on="1"/>
        <pt x="651" y="159" on="1"/>
        <pt x="635" y="122" on="0"/>
        <pt x="580" y="64" on="0"/>
        <pt x="511" y="22" on="0"/>
        <pt x="434" y="-2" on="0"/>
        <pt x="395" y="-5" on="1"/>
        <pt x="368" y="-48" on="1"/>
        <pt x="376" y="-45" on="0"/>
        <pt x="396" y="-43" on="0"/>
        <pt x="404" y="-43" on="1"/>
        <pt x="439" y="-43" on="0"/>
        <pt x="483" y="-75" on="0"/>
        <pt x="483" y="-107" on="1"/>
        <pt x="483" y="-142" on="0"/>
        <pt x="427" y="-182" on="0"/>
        <pt x="373" y="-182" on="1"/>
        <pt x="343" y="-182" on="0"/>
        <pt x="292" y="-171" on="0"/>
        <pt x="272" y="-163" on="1"/>
      </contour>
    </TTGlyph>
    <TTGlyph name="Ccircumflex" xMin="39" yMin="-6" xMax="654" yMax="916">
      <contour>
        <pt x="243" y="826" on="1"/>
        <pt x="344" y="916" on="1"/>
        <pt x="408" y="916" on="1"/>
        <pt x="509" y="826" on="1"/>
        <pt x="461" y="802" on="1"/>
        <pt x="376" y="865" on="1"/>
        <pt x="291" y="802" on="1"/>
      </contour>
      <contour>
        <pt x="39" y="360" on="1"/>
        <pt x="39" y="424" on="0"/>
        <pt x="84" y="551" on="0"/>
        <pt x="171" y="652" on="0"/>
        <pt x="297" y="714" on="0"/>
        <pt x="377" y="714" on="1"/>
        <pt x="472" y="714" on="0"/>
        <pt x="608" y="628" on="0"/>
        <pt x="641" y="559" on="1"/>
        <pt x="570" y="513" on="1"/>
        <pt x="554" y="547" on="0"/>
        <pt x="509" y="593" on="0"/>
        <pt x="456" y="621" on="0"/>
        <pt x="400" y="633" on="0"/>
        <pt x="373" y="633" on="1"/>
        <pt x="314" y="633" on="0"/>
        <pt x="223" y="584" on="0"/>
        <pt x="161" y="505" on="0"/>
        <pt x="130" y="406" on="0"/>
        <pt x="130" y="356" on="1"/>
        <pt x="130" y="300" on="0"/>
        <pt x="167" y="199" on="0"/>
        <pt x="233" y="121" on="0"/>
        <pt x="323" y="75" on="0"/>
        <pt x="376" y="75" on="1"/>
        <pt x="404" y="75" on="0"/>
        <pt x="463" y="89" on="0"/>
        <pt x="517" y="120" on="0"/>
        <pt x="564" y="167" on="0"/>
        <pt x="579" y="200" on="1"/>
        <pt x="654" y="159" on="1"/>
        <pt x="637" y="119" on="0"/>
        <pt x="576" y="58" on="0"/>
        <pt x="499" y="16" on="0"/>
        <pt x="413" y="-6" on="0"/>
        <pt x="372" y="-6" on="1"/>
        <pt x="299" y="-6" on="0"/>
        <pt x="177" y="58" on="0"/>
        <pt x="88" y="161" on="0"/>
        <pt x="39" y="292" on="0"/>
      </contour>
    </TTGlyph>
    <TTGlyph name="Cdotaccent" xMin="39" yMin="-6" xMax="654" yMax="916">
      <contour>
        <pt x="39" y="360" on="1"/>
        <pt x="39" y="424" on="0"/>
        <pt x="84" y="551" on="0"/>
        <pt x="171" y="652" on="0"/>
        <pt x="297" y="714" on="0"/>
        <pt x="377" y="714" on="1"/>
        <pt x="472" y="714" on="0"/>
        <pt x="608" y="628" on="0"/>
        <pt x="641" y="559" on="1"/>
        <pt x="570" y="513" on="1"/>
        <pt x="554" y="547" on="0"/>
        <pt x="509" y="593" on="0"/>
        <pt x="456" y="621" on="0"/>
        <pt x="400" y="633" on="0"/>
        <pt x="373" y="633" on="1"/>
        <pt x="314" y="633" on="0"/>
        <pt x="223" y="584" on="0"/>
        <pt x="161" y="505" on="0"/>
        <pt x="130" y="406" on="0"/>
        <pt x="130" y="356" on="1"/>
        <pt x="130" y="300" on="0"/>
        <pt x="167" y="199" on="0"/>
        <pt x="233" y="121" on="0"/>
        <pt x="323" y="75" on="0"/>
        <pt x="376" y="75" on="1"/>
        <pt x="404" y="75" on="0"/>
        <pt x="463" y="89" on="0"/>
        <pt x="517" y="120" on="0"/>
        <pt x="564" y="167" on="0"/>
        <pt x="579" y="200" on="1"/>
        <pt x="654" y="159" on="1"/>
        <pt x="637" y="119" on="0"/>
        <pt x="576" y="58" on="0"/>
        <pt x="499" y="16" on="0"/>
        <pt x="413" y="-6" on="0"/>
        <pt x="372" y="-6" on="1"/>
        <pt x="299" y="-6" on="0"/>
        <pt x="177" y="58" on="0"/>
        <pt x="88" y="161" on="0"/>
        <pt x="39" y="292" on="0"/>
      </contour>
      <contour>
        <pt x="336" y="810" on="1"/>
        <pt x="336" y="916" on="1"/>
        <pt x="416" y="916" on="1"/>
        <pt x="416" y="810" on="1"/>
      </contour>
    </TTGlyph>
    <TTGlyph name="D" xMin="85" yMin="0" xMax="674" yMax="710">
      <contour>
        <pt x="85" y="0" on="1"/>
        <pt x="85" y="710" on="1"/>
        <pt x="331" y="710" on="1"/>
        <pt x="416" y="710" on="0"/>
        <pt x="545" y="654" on="0"/>
        <pt x="631" y="558" on="0"/>
        <pt x="674" y="429" on="0"/>
        <pt x="674" y="356" on="1"/>
        <pt x="674" y="275" on="0"/>
        <pt x="626" y="144" on="0"/>
        <pt x="536" y="51" on="0"/>
        <pt x="409" y="0" on="0"/>
        <pt x="331" y="0" on="1"/>
      </contour>
      <contour>
        <pt x="583" y="356" on="1"/>
        <pt x="583" y="416" on="0"/>
        <pt x="550" y="517" on="0"/>
        <pt x="485" y="589" on="0"/>
        <pt x="391" y="630" on="0"/>
        <pt x="331" y="630" on="1"/>
        <pt x="175" y="630" on="1"/>
        <pt x="175" y="80" on="1"/>
        <pt x="331" y="80" on="1"/>
        <pt x="392" y="80" on="0"/>
        <pt x="487" y="122" on="0"/>
        <pt x="550" y="196" on="0"/>
        <pt x="583" y="297" on="0"/>
      </contour>
    </TTGlyph>
    <TTGlyph name="D.sc" xMin="79" yMin="0" xMax="583" yMax="551">
      <contour>
        <pt x="79" y="0" on="1"/>
        <pt x="79" y="551" on="1"/>
        <pt x="290" y="551" on="1"/>
        <pt x="363" y="551" on="0"/>
        <pt x="472" y="508" on="0"/>
        <pt x="546" y="434" on="0"/>
        <pt x="583" y="334" on="0"/>
        <pt x="583" y="277" on="1"/>
        <pt x="583" y="214" on="0"/>
        <pt x="541" y="112" on="0"/>
        <pt x="465" y="39" on="0"/>
        <pt x="356" y="0" on="0"/>
        <pt x="290" y="0" on="1"/>
      </contour>
      <contour>
        <pt x="501" y="277" on="1"/>
        <pt x="501" y="322" on="0"/>
        <pt x="473" y="396" on="0"/>
        <pt x="419" y="450" on="0"/>
        <pt x="341" y="480" on="0"/>
        <pt x="290" y="480" on="1"/>
        <pt x="159" y="480" on="1"/>
        <pt x="159" y="71" on="1"/>
        <pt x="290" y="71" on="1"/>
        <pt x="342" y="71" on="0"/>
        <pt x="421" y="102" on="0"/>
        <pt x="474" y="157" on="0"/>
        <pt x="501" y="233" on="0"/>
      </contour>
    </TTGlyph>
    <TTGlyph name="Dcaron" xMin="85" yMin="0" xMax="674" yMax="916">
      <contour>
        <pt x="255" y="916" on="1"/>
        <pt x="340" y="853" on="1"/>
        <pt x="425" y="916" on="1"/>
        <pt x="473" y="892" on="1"/>
        <pt x="372" y="802" on="1"/>
        <pt x="308" y="802" on="1"/>
        <pt x="207" y="892" on="1"/>
      </contour>
      <contour>
        <pt x="85" y="0" on="1"/>
        <pt x="85" y="710" on="1"/>
        <pt x="331" y="710" on="1"/>
        <pt x="416" y="710" on="0"/>
        <pt x="545" y="654" on="0"/>
        <pt x="631" y="558" on="0"/>
        <pt x="674" y="429" on="0"/>
        <pt x="674" y="356" on="1"/>
        <pt x="674" y="275" on="0"/>
        <pt x="626" y="144" on="0"/>
        <pt x="536" y="51" on="0"/>
        <pt x="409" y="0" on="0"/>
        <pt x="331" y="0" on="1"/>
      </contour>
      <contour>
        <pt x="583" y="356" on="1"/>
        <pt x="583" y="416" on="0"/>
        <pt x="550" y="517" on="0"/>
        <pt x="485" y="589" on="0"/>
        <pt x="391" y="630" on="0"/>
        <pt x="331" y="630" on="1"/>
        <pt x="175" y="630" on="1"/>
        <pt x="175" y="80" on="1"/>
        <pt x="331" y="80" on="1"/>
        <pt x="392" y="80" on="0"/>
        <pt x="487" y="122" on="0"/>
        <pt x="550" y="196" on="0"/>
        <pt x="583" y="297" on="0"/>
      </contour>
    </TTGlyph>
    <TTGlyph name="Dcroat" xMin="34" yMin="0" xMax="680" yMax="710">
      <contour>
        <pt x="91" y="0" on="1"/>
        <pt x="91" y="323" on="1"/>
        <pt x="34" y="323" on="1"/>
        <pt x="34" y="391" on="1"/>
        <pt x="91" y="391" on="1"/>
        <pt x="91" y="710" on="1"/>
        <pt x="337" y="710" on="1"/>
        <pt x="422" y="710" on="0"/>
        <pt x="551" y="654" on="0"/>
        <pt x="637" y="558" on="0"/>
        <pt x="680" y="429" on="0"/>
        <pt x="680" y="356" on="1"/>
        <pt x="680" y="275" on="0"/>
        <pt x="632" y="144" on="0"/>
        <pt x="542" y="51" on="0"/>
        <pt x="415" y="0" on="0"/>
        <pt x="337" y="0" on="1"/>
      </contour>
      <contour>
        <pt x="589" y="356" on="1"/>
        <pt x="589" y="416" on="0"/>
        <pt x="556" y="517" on="0"/>
        <pt x="491" y="589" on="0"/>
        <pt x="397" y="630" on="0"/>
        <pt x="337" y="630" on="1"/>
        <pt x="181" y="630" on="1"/>
        <pt x="181" y="391" on="1"/>
        <pt x="342" y="391" on="1"/>
        <pt x="342" y="323" on="1"/>
        <pt x="181" y="323" on="1"/>
        <pt x="181" y="80" on="1"/>
        <pt x="337" y="80" on="1"/>
        <pt x="398" y="80" on="0"/>
        <pt x="493" y="122" on="0"/>
        <pt x="556" y="196" on="0"/>
        <pt x="589" y="297" on="0"/>
      </contour>
    </TTGlyph>
    <TTGlyph name="Ddotbelow" xMin="85" yMin="-182" xMax="674" yMax="710">
      <contour>
        <pt x="85" y="0" on="1"/>
        <pt x="85" y="710" on="1"/>
        <pt x="331" y="710" on="1"/>
        <pt x="416" y="710" on="0"/>
        <pt x="545" y="654" on="0"/>
        <pt x="631" y="558" on="0"/>
        <pt x="674" y="429" on="0"/>
        <pt x="674" y="356" on="1"/>
        <pt x="674" y="275" on="0"/>
        <pt x="626" y="144" on="0"/>
        <pt x="536" y="51" on="0"/>
        <pt x="409" y="0" on="0"/>
        <pt x="331" y="0" on="1"/>
      </contour>
      <contour>
        <pt x="583" y="356" on="1"/>
        <pt x="583" y="416" on="0"/>
        <pt x="550" y="517" on="0"/>
        <pt x="485" y="589" on="0"/>
        <pt x="391" y="630" on="0"/>
        <pt x="331" y="630" on="1"/>
        <pt x="175" y="630" on="1"/>
        <pt x="175" y="80" on="1"/>
        <pt x="331" y="80" on="1"/>
        <pt x="392" y="80" on="0"/>
        <pt x="487" y="122" on="0"/>
        <pt x="550" y="196" on="0"/>
        <pt x="583" y="297" on="0"/>
      </contour>
      <contour>
        <pt x="298" y="-182" on="1"/>
        <pt x="298" y="-76" on="1"/>
        <pt x="378" y="-76" on="1"/>
        <pt x="378" y="-182" on="1"/>
      </contour>
    </TTGlyph>
    <TTGlyph name="Delta" xMin="8" yMin="0" xMax="610" yMax="710">
      <contour>
        <pt x="610" y="67" on="1"/>
        <pt x="610" y="0" on="1"/>
        <pt x="8" y="0" on="1"/>
        <pt x="8" y="67" on="1"/>
        <pt x="273" y="710" on="1"/>
        <pt x="347" y="710" on="1"/>
      </contour>
      <contour>
        <pt x="511" y="80" on="1"/>
        <pt x="310" y="606" on="1"/>
        <pt x="108" y="80" on="1"/>
      </contour>
    </TTGlyph>
    <TTGlyph name="E" xMin="85" yMin="0" xMax="567" yMax="710">
      <contour>
        <pt x="567" y="80" on="1"/>
        <pt x="567" y="0" on="1"/>
        <pt x="85" y="0" on="1"/>
        <pt x="85" y="710" on="1"/>
        <pt x="558" y="710" on="1"/>
        <pt x="558" y="630" on="1"/>
        <pt x="175" y="630" on="1"/>
        <pt x="175" y="400" on="1"/>
        <pt x="508" y="400" on="1"/>
        <pt x="508" y="325" on="1"/>
        <pt x="175" y="325" on="1"/>
        <pt x="175" y="80" on="1"/>
      </contour>
    </TTGlyph>
    <TTGlyph name="E.sc" xMin="79" yMin="0" xMax="491" yMax="551">
      <contour>
        <pt x="491" y="71" on="1"/>
        <pt x="491" y="0" on="1"/>
        <pt x="79" y="0" on="1"/>
        <pt x="79" y="551" on="1"/>
        <pt x="483" y="551" on="1"/>
        <pt x="483" y="480" on="1"/>
        <pt x="159" y="480" on="1"/>
        <pt x="159" y="314" on="1"/>
        <pt x="441" y="314" on="1"/>
        <pt x="441" y="248" on="1"/>
        <pt x="159" y="248" on="1"/>
        <pt x="159" y="71" on="1"/>
      </contour>
    </TTGlyph>
    <TTGlyph name="Eacute" xMin="85" yMin="0" xMax="567" yMax="916">
      <contour>
        <pt x="349" y="795" on="1"/>
        <pt x="291" y="815" on="1"/>
        <pt x="349" y="916" on="1"/>
        <pt x="437" y="916" on="1"/>
      </contour>
      <contour>
        <pt x="567" y="80" on="1"/>
        <pt x="567" y="0" on="1"/>
        <pt x="85" y="0" on="1"/>
        <pt x="85" y="710" on="1"/>
        <pt x="558" y="710" on="1"/>
        <pt x="558" y="630" on="1"/>
        <pt x="175" y="630" on="1"/>
        <pt x="175" y="400" on="1"/>
        <pt x="508" y="400" on="1"/>
        <pt x="508" y="325" on="1"/>
        <pt x="175" y="325" on="1"/>
        <pt x="175" y="80" on="1"/>
      </contour>
    </TTGlyph>
    <TTGlyph name="Ebreve" xMin="85" yMin="0" xMax="567" yMax="916">
      <contour>
        <pt x="567" y="80" on="1"/>
        <pt x="567" y="0" on="1"/>
        <pt x="85" y="0" on="1"/>
        <pt x="85" y="710" on="1"/>
        <pt x="558" y="710" on="1"/>
        <pt x="558" y="630" on="1"/>
        <pt x="175" y="630" on="1"/>
        <pt x="175" y="400" on="1"/>
        <pt x="508" y="400" on="1"/>
        <pt x="508" y="325" on="1"/>
        <pt x="175" y="325" on="1"/>
        <pt x="175" y="80" on="1"/>
      </contour>
      <contour>
        <pt x="334" y="848" on="1"/>
        <pt x="356" y="848" on="0"/>
        <pt x="389" y="887" on="0"/>
        <pt x="392" y="916" on="1"/>
        <pt x="442" y="916" on="1"/>
        <pt x="442" y="892" on="0"/>
        <pt x="425" y="852" on="0"/>
        <pt x="396" y="822" on="0"/>
        <pt x="357" y="805" on="0"/>
        <pt x="334" y="805" on="1"/>
        <pt x="311" y="805" on="0"/>
        <pt x="272" y="822" on="0"/>
        <pt x="243" y="852" on="0"/>
        <pt x="226" y="892" on="0"/>
        <pt x="226" y="916" on="1"/>
        <pt x="277" y="916" on="1"/>
        <pt x="277" y="889" on="0"/>
        <pt x="311" y="848" on="0"/>
      </contour>
    </TTGlyph>
    <TTGlyph name="Ecaron" xMin="85" yMin="0" xMax="567" yMax="916">
      <contour>
        <pt x="249" y="916" on="1"/>
        <pt x="334" y="853" on="1"/>
        <pt x="419" y="916" on="1"/>
        <pt x="467" y="892" on="1"/>
        <pt x="366" y="802" on="1"/>
        <pt x="302" y="802" on="1"/>
        <pt x="201" y="892" on="1"/>
      </contour>
      <contour>
        <pt x="567" y="80" on="1"/>
        <pt x="567" y="0" on="1"/>
        <pt x="85" y="0" on="1"/>
        <pt x="85" y="710" on="1"/>
        <pt x="558" y="710" on="1"/>
        <pt x="558" y="630" on="1"/>
        <pt x="175" y="630" on="1"/>
        <pt x="175" y="400" on="1"/>
        <pt x="508" y="400" on="1"/>
        <pt x="508" y="325" on="1"/>
        <pt x="175" y="325" on="1"/>
        <pt x="175" y="80" on="1"/>
      </contour>
    </TTGlyph>
    <TTGlyph name="Ecircumflex" xMin="85" yMin="0" xMax="567" yMax="916">
      <contour>
        <pt x="201" y="826" on="1"/>
        <pt x="302" y="916" on="1"/>
        <pt x="366" y="916" on="1"/>
        <pt x="467" y="826" on="1"/>
        <pt x="419" y="802" on="1"/>
        <pt x="334" y="865" on="1"/>
        <pt x="249" y="802" on="1"/>
      </contour>
      <contour>
        <pt x="567" y="80" on="1"/>
        <pt x="567" y="0" on="1"/>
        <pt x="85" y="0" on="1"/>
        <pt x="85" y="710" on="1"/>
        <pt x="558" y="710" on="1"/>
        <pt x="558" y="630" on="1"/>
        <pt x="175" y="630" on="1"/>
        <pt x="175" y="400" on="1"/>
        <pt x="508" y="400" on="1"/>
        <pt x="508" y="325" on="1"/>
        <pt x="175" y="325" on="1"/>
        <pt x="175" y="80" on="1"/>
      </contour>
    </TTGlyph>
    <TTGlyph name="Edblgrave" xMin="85" yMin="0" xMax="567" yMax="918">
      <contour>
        <pt x="567" y="80" on="1"/>
        <pt x="567" y="0" on="1"/>
        <pt x="85" y="0" on="1"/>
        <pt x="85" y="710" on="1"/>
        <pt x="558" y="710" on="1"/>
        <pt x="558" y="630" on="1"/>
        <pt x="175" y="630" on="1"/>
        <pt x="175" y="400" on="1"/>
        <pt x="508" y="400" on="1"/>
        <pt x="508" y="325" on="1"/>
        <pt x="175" y="325" on="1"/>
        <pt x="175" y="80" on="1"/>
      </contour>
      <contour>
        <pt x="306" y="918" on="1"/>
        <pt x="382" y="918" on="1"/>
        <pt x="436" y="817" on="1"/>
        <pt x="390" y="797" on="1"/>
      </contour>
      <contour>
        <pt x="170" y="918" on="1"/>
        <pt x="246" y="918" on="1"/>
        <pt x="300" y="817" on="1"/>
        <pt x="254" y="797" on="1"/>
      </contour>
    </TTGlyph>
    <TTGlyph name="Edieresis" xMin="85" yMin="0" xMax="567" yMax="913">
      <contour>
        <pt x="216" y="811" on="1"/>
        <pt x="216" y="913" on="1"/>
        <pt x="290" y="913" on="1"/>
        <pt x="290" y="811" on="1"/>
      </contour>
      <contour>
        <pt x="378" y="811" on="1"/>
        <pt x="378" y="913" on="1"/>
        <pt x="452" y="913" on="1"/>
        <pt x="452" y="811" on="1"/>
      </contour>
      <contour>
        <pt x="567" y="80" on="1"/>
        <pt x="567" y="0" on="1"/>
        <pt x="85" y="0" on="1"/>
        <pt x="85" y="710" on="1"/>
        <pt x="558" y="710" on="1"/>
        <pt x="558" y="630" on="1"/>
        <pt x="175" y="630" on="1"/>
        <pt x="175" y="400" on="1"/>
        <pt x="508" y="400" on="1"/>
        <pt x="508" y="325" on="1"/>
        <pt x="175" y="325" on="1"/>
        <pt x="175" y="80" on="1"/>
      </contour>
    </TTGlyph>
    <TTGlyph name="Edotaccent" xMin="85" yMin="0" xMax="567" yMax="916">
      <contour>
        <pt x="567" y="80" on="1"/>
        <pt x="567" y="0" on="1"/>
        <pt x="85" y="0" on="1"/>
        <pt x="85" y="710" on="1"/>
        <pt x="558" y="710" on="1"/>
        <pt x="558" y="630" on="1"/>
        <pt x="175" y="630" on="1"/>
        <pt x="175" y="400" on="1"/>
        <pt x="508" y="400" on="1"/>
        <pt x="508" y="325" on="1"/>
        <pt x="175" y="325" on="1"/>
        <pt x="175" y="80" on="1"/>
      </contour>
      <contour>
        <pt x="294" y="810" on="1"/>
        <pt x="294" y="916" on="1"/>
        <pt x="374" y="916" on="1"/>
        <pt x="374" y="810" on="1"/>
      </contour>
    </TTGlyph>
    <TTGlyph name="Edotbelow" xMin="85" yMin="-182" xMax="567" yMax="710">
      <contour>
        <pt x="567" y="80" on="1"/>
        <pt x="567" y="0" on="1"/>
        <pt x="85" y="0" on="1"/>
        <pt x="85" y="710" on="1"/>
        <pt x="558" y="710" on="1"/>
        <pt x="558" y="630" on="1"/>
        <pt x="175" y="630" on="1"/>
        <pt x="175" y="400" on="1"/>
        <pt x="508" y="400" on="1"/>
        <pt x="508" y="325" on="1"/>
        <pt x="175" y="325" on="1"/>
        <pt x="175" y="80" on="1"/>
      </contour>
      <contour>
        <pt x="281" y="-182" on="1"/>
        <pt x="281" y="-76" on="1"/>
        <pt x="361" y="-76" on="1"/>
        <pt x="361" y="-182" on="1"/>
      </contour>
    </TTGlyph>
    <TTGlyph name="Egrave" xMin="85" yMin="0" xMax="567" yMax="917">
      <contour>
        <pt x="567" y="80" on="1"/>
        <pt x="567" y="0" on="1"/>
        <pt x="85" y="0" on="1"/>
        <pt x="85" y="710" on="1"/>
        <pt x="558" y="710" on="1"/>
        <pt x="558" y="630" on="1"/>
        <pt x="175" y="630" on="1"/>
        <pt x="175" y="400" on="1"/>
        <pt x="508" y="400" on="1"/>
        <pt x="508" y="325" on="1"/>
        <pt x="175" y="325" on="1"/>
        <pt x="175" y="80" on="1"/>
      </contour>
      <contour>
        <pt x="230" y="917" on="1"/>
        <pt x="317" y="917" on="1"/>
        <pt x="376" y="816" on="1"/>
        <pt x="319" y="796" on="1"/>
      </contour>
    </TTGlyph>
    <TTGlyph name="Einvertedbreve" xMin="85" yMin="0" xMax="567" yMax="916">
      <contour>
        <pt x="567" y="80" on="1"/>
        <pt x="567" y="0" on="1"/>
        <pt x="85" y="0" on="1"/>
        <pt x="85" y="710" on="1"/>
        <pt x="558" y="710" on="1"/>
        <pt x="558" y="630" on="1"/>
        <pt x="175" y="630" on="1"/>
        <pt x="175" y="400" on="1"/>
        <pt x="508" y="400" on="1"/>
        <pt x="508" y="325" on="1"/>
        <pt x="175" y="325" on="1"/>
        <pt x="175" y="80" on="1"/>
      </contour>
      <contour>
        <pt x="333" y="873" on="1"/>
        <pt x="310" y="873" on="0"/>
        <pt x="276" y="832" on="0"/>
        <pt x="276" y="805" on="1"/>
        <pt x="225" y="805" on="1"/>
        <pt x="225" y="829" on="0"/>
        <pt x="242" y="869" on="0"/>
        <pt x="271" y="899" on="0"/>
        <pt x="310" y="916" on="0"/>
        <pt x="333" y="916" on="1"/>
        <pt x="356" y="916" on="0"/>
        <pt x="395" y="899" on="0"/>
        <pt x="424" y="869" on="0"/>
        <pt x="441" y="829" on="0"/>
        <pt x="441" y="805" on="1"/>
        <pt x="391" y="805" on="1"/>
        <pt x="388" y="834" on="0"/>
        <pt x="355" y="873" on="0"/>
      </contour>
    </TTGlyph>
    <TTGlyph name="Emacron" xMin="85" yMin="0" xMax="567" yMax="898">
      <contour>
        <pt x="567" y="80" on="1"/>
        <pt x="567" y="0" on="1"/>
        <pt x="85" y="0" on="1"/>
        <pt x="85" y="710" on="1"/>
        <pt x="558" y="710" on="1"/>
        <pt x="558" y="630" on="1"/>
        <pt x="175" y="630" on="1"/>
        <pt x="175" y="400" on="1"/>
        <pt x="508" y="400" on="1"/>
        <pt x="508" y="325" on="1"/>
        <pt x="175" y="325" on="1"/>
        <pt x="175" y="80" on="1"/>
      </contour>
      <contour>
        <pt x="189" y="840" on="1"/>
        <pt x="189" y="898" on="1"/>
        <pt x="481" y="898" on="1"/>
        <pt x="481" y="840" on="1"/>
      </contour>
    </TTGlyph>
    <TTGlyph name="Eng" xMin="85" yMin="-186" xMax="677" yMax="710">
      <contour>
        <pt x="175" y="540" on="1"/>
        <pt x="175" y="0" on="1"/>
        <pt x="85" y="0" on="1"/>
        <pt x="85" y="710" on="1"/>
        <pt x="154" y="710" on="1"/>
        <pt x="587" y="161" on="1"/>
        <pt x="587" y="709" on="1"/>
        <pt x="677" y="709" on="1"/>
        <pt x="677" y="-20" on="1"/>
        <pt x="677" y="-57" on="0"/>
        <pt x="650" y="-118" on="0"/>
        <pt x="604" y="-162" on="0"/>
        <pt x="545" y="-186" on="0"/>
        <pt x="514" y="-186" on="1"/>
        <pt x="480" y="-186" on="0"/>
        <pt x="419" y="-166" on="0"/>
        <pt x="395" y="-144" on="1"/>
        <pt x="436" y="-85" on="1"/>
        <pt x="450" y="-98" on="0"/>
        <pt x="486" y="-108" on="0"/>
        <pt x="504" y="-108" on="1"/>
        <pt x="520" y="-108" on="0"/>
        <pt x="551" y="-95" on="0"/>
        <pt x="575" y="-73" on="0"/>
        <pt x="589" y="-41" on="0"/>
        <pt x="589" y="-23" on="1"/>
        <pt x="589" y="15" on="1"/>
      </contour>
    </TTGlyph>
    <TTGlyph name="Eogonek" xMin="85" yMin="-181" xMax="567" yMax="710">
      <contour>
        <pt x="567" y="80" on="1"/>
        <pt x="567" y="0" on="1"/>
        <pt x="523" y="-27" on="0"/>
        <pt x="485" y="-70" on="0"/>
        <pt x="485" y="-92" on="1"/>
        <pt x="485" y="-129" on="0"/>
        <pt x="540" y="-135" on="1"/>
        <pt x="518" y="-181" on="1"/>
        <pt x="476" y="-173" on="0"/>
        <pt x="434" y="-132" on="0"/>
        <pt x="434" y="-104" on="1"/>
        <pt x="434" y="-78" on="0"/>
        <pt x="471" y="-26" on="0"/>
        <pt x="511" y="0" on="1"/>
        <pt x="85" y="0" on="1"/>
        <pt x="85" y="710" on="1"/>
        <pt x="558" y="710" on="1"/>
        <pt x="558" y="630" on="1"/>
        <pt x="175" y="630" on="1"/>
        <pt x="175" y="400" on="1"/>
        <pt x="508" y="400" on="1"/>
        <pt x="508" y="325" on="1"/>
        <pt x="175" y="325" on="1"/>
        <pt x="175" y="80" on="1"/>
      </contour>
    </TTGlyph>
    <TTGlyph name="Eth" xMin="34" yMin="0" xMax="680" yMax="710">
      <contour>
        <pt x="91" y="0" on="1"/>
        <pt x="91" y="323" on="1"/>
        <pt x="34" y="323" on="1"/>
        <pt x="34" y="391" on="1"/>
        <pt x="91" y="391" on="1"/>
        <pt x="91" y="710" on="1"/>
        <pt x="337" y="710" on="1"/>
        <pt x="422" y="710" on="0"/>
        <pt x="551" y="654" on="0"/>
        <pt x="637" y="558" on="0"/>
        <pt x="680" y="429" on="0"/>
        <pt x="680" y="356" on="1"/>
        <pt x="680" y="275" on="0"/>
        <pt x="632" y="144" on="0"/>
        <pt x="542" y="51" on="0"/>
        <pt x="415" y="0" on="0"/>
        <pt x="337" y="0" on="1"/>
      </contour>
      <contour>
        <pt x="589" y="356" on="1"/>
        <pt x="589" y="416" on="0"/>
        <pt x="556" y="517" on="0"/>
        <pt x="491" y="589" on="0"/>
        <pt x="397" y="630" on="0"/>
        <pt x="337" y="630" on="1"/>
        <pt x="181" y="630" on="1"/>
        <pt x="181" y="391" on="1"/>
        <pt x="342" y="391" on="1"/>
        <pt x="342" y="323" on="1"/>
        <pt x="181" y="323" on="1"/>
        <pt x="181" y="80" on="1"/>
        <pt x="337" y="80" on="1"/>
        <pt x="398" y="80" on="0"/>
        <pt x="493" y="122" on="0"/>
        <pt x="556" y="196" on="0"/>
        <pt x="589" y="297" on="0"/>
      </contour>
    </TTGlyph>
    <TTGlyph name="Etilde" xMin="85" yMin="0" xMax="567" yMax="916">
      <contour>
        <pt x="567" y="80" on="1"/>
        <pt x="567" y="0" on="1"/>
        <pt x="85" y="0" on="1"/>
        <pt x="85" y="710" on="1"/>
        <pt x="558" y="710" on="1"/>
        <pt x="558" y="630" on="1"/>
        <pt x="175" y="630" on="1"/>
        <pt x="175" y="400" on="1"/>
        <pt x="508" y="400" on="1"/>
        <pt x="508" y="325" on="1"/>
        <pt x="175" y="325" on="1"/>
        <pt x="175" y="80" on="1"/>
      </contour>
      <contour>
        <pt x="396" y="813" on="1"/>
        <pt x="373" y="813" on="0"/>
        <pt x="340" y="826" on="0"/>
        <pt x="311" y="842" on="0"/>
        <pt x="283" y="855" on="0"/>
        <pt x="267" y="855" on="1"/>
        <pt x="250" y="855" on="0"/>
        <pt x="231" y="841" on="0"/>
        <pt x="221" y="824" on="0"/>
        <pt x="218" y="808" on="0"/>
        <pt x="218" y="807" on="1"/>
        <pt x="166" y="807" on="1"/>
        <pt x="166" y="813" on="0"/>
        <pt x="175" y="847" on="0"/>
        <pt x="197" y="883" on="0"/>
        <pt x="235" y="910" on="0"/>
        <pt x="265" y="910" on="1"/>
        <pt x="286" y="910" on="0"/>
        <pt x="318" y="897" on="0"/>
        <pt x="347" y="880" on="0"/>
        <pt x="376" y="867" on="0"/>
        <pt x="394" y="867" on="1"/>
        <pt x="413" y="867" on="0"/>
        <pt x="435" y="881" on="0"/>
        <pt x="447" y="899" on="0"/>
        <pt x="450" y="914" on="0"/>
        <pt x="450" y="916" on="1"/>
        <pt x="502" y="916" on="1"/>
        <pt x="502" y="910" on="0"/>
        <pt x="493" y="877" on="0"/>
        <pt x="469" y="841" on="0"/>
        <pt x="428" y="813" on="0"/>
      </contour>
    </TTGlyph>
    <TTGlyph name="Euro" xMin="33" yMin="-6" xMax="745" yMax="714">
      <contour>
        <pt x="135" y="422" on="1"/>
        <pt x="145" y="479" on="0"/>
        <pt x="198" y="584" on="0"/>
        <pt x="283" y="665" on="0"/>
        <pt x="397" y="714" on="0"/>
        <pt x="468" y="714" on="1"/>
        <pt x="563" y="714" on="0"/>
        <pt x="699" y="628" on="0"/>
        <pt x="732" y="559" on="1"/>
        <pt x="661" y="513" on="1"/>
        <pt x="645" y="547" on="0"/>
        <pt x="600" y="593" on="0"/>
        <pt x="547" y="621" on="0"/>
        <pt x="491" y="633" on="0"/>
        <pt x="464" y="633" on="1"/>
        <pt x="414" y="633" on="0"/>
        <pt x="335" y="598" on="0"/>
        <pt x="275" y="540" on="0"/>
        <pt x="236" y="464" on="0"/>
        <pt x="227" y="422" on="1"/>
        <pt x="542" y="422" on="1"/>
        <pt x="520" y="370" on="1"/>
        <pt x="221" y="370" on="1"/>
        <pt x="221" y="356" on="1"/>
        <pt x="221" y="332" on="0"/>
        <pt x="224" y="311" on="1"/>
        <pt x="507" y="311" on="1"/>
        <pt x="485" y="259" on="1"/>
        <pt x="236" y="259" on="1"/>
        <pt x="249" y="220" on="0"/>
        <pt x="293" y="152" on="0"/>
        <pt x="353" y="103" on="0"/>
        <pt x="426" y="75" on="0"/>
        <pt x="467" y="75" on="1"/>
        <pt x="495" y="75" on="0"/>
        <pt x="554" y="89" on="0"/>
        <pt x="608" y="120" on="0"/>
        <pt x="655" y="167" on="0"/>
        <pt x="670" y="200" on="1"/>
        <pt x="745" y="159" on="1"/>
        <pt x="728" y="119" on="0"/>
        <pt x="667" y="58" on="0"/>
        <pt x="590" y="16" on="0"/>
        <pt x="504" y="-6" on="0"/>
        <pt x="463" y="-6" on="1"/>
        <pt x="403" y="-6" on="0"/>
        <pt x="300" y="37" on="0"/>
        <pt x="218" y="109" on="0"/>
        <pt x="159" y="205" on="0"/>
        <pt x="144" y="259" on="1"/>
        <pt x="33" y="259" on="1"/>
        <pt x="55" y="311" on="1"/>
        <pt x="133" y="311" on="1"/>
        <pt x="130" y="335" on="0"/>
        <pt x="130" y="360" on="1"/>
        <pt x="130" y="370" on="1"/>
        <pt x="57" y="370" on="1"/>
        <pt x="79" y="422" on="1"/>
      </contour>
    </TTGlyph>
    <TTGlyph name="F" xMin="85" yMin="0" xMax="554" yMax="710">
      <contour>
        <pt x="85" y="0" on="1"/>
        <pt x="85" y="710" on="1"/>
        <pt x="554" y="710" on="1"/>
        <pt x="554" y="630" on="1"/>
        <pt x="175" y="630" on="1"/>
        <pt x="175" y="393" on="1"/>
        <pt x="494" y="393" on="1"/>
        <pt x="494" y="318" on="1"/>
        <pt x="175" y="318" on="1"/>
        <pt x="175" y="0" on="1"/>
      </contour>
    </TTGlyph>
    <TTGlyph name="F.sc" xMin="79" yMin="0" xMax="479" yMax="551">
      <contour>
        <pt x="79" y="0" on="1"/>
        <pt x="79" y="551" on="1"/>
        <pt x="479" y="551" on="1"/>
        <pt x="479" y="480" on="1"/>
        <pt x="159" y="480" on="1"/>
        <pt x="159" y="308" on="1"/>
        <pt x="429" y="308" on="1"/>
        <pt x="429" y="241" on="1"/>
        <pt x="159" y="241" on="1"/>
        <pt x="159" y="0" on="1"/>
      </contour>
    </TTGlyph>
    <TTGlyph name="G" xMin="39" yMin="-5" xMax="662" yMax="715">
      <contour>
        <pt x="586" y="96" on="1"/>
        <pt x="492" y="-5" on="0"/>
        <pt x="370" y="-5" on="1"/>
        <pt x="299" y="-5" on="0"/>
        <pt x="178" y="57" on="0"/>
        <pt x="90" y="158" on="0"/>
        <pt x="39" y="288" on="0"/>
        <pt x="39" y="357" on="1"/>
        <pt x="39" y="429" on="0"/>
        <pt x="89" y="558" on="0"/>
        <pt x="177" y="657" on="0"/>
        <pt x="299" y="715" on="0"/>
        <pt x="370" y="715" on="1"/>
        <pt x="473" y="715" on="0"/>
        <pt x="606" y="629" on="0"/>
        <pt x="641" y="560" on="1"/>
        <pt x="572" y="512" on="1"/>
        <pt x="540" y="574" on="0"/>
        <pt x="434" y="634" on="0"/>
        <pt x="368" y="634" on="1"/>
        <pt x="314" y="634" on="0"/>
        <pt x="226" y="587" on="0"/>
        <pt x="164" y="510" on="0"/>
        <pt x="130" y="409" on="0"/>
        <pt x="130" y="355" on="1"/>
        <pt x="130" y="298" on="0"/>
        <pt x="168" y="197" on="0"/>
        <pt x="234" y="120" on="0"/>
        <pt x="324" y="76" on="0"/>
        <pt x="377" y="76" on="1"/>
        <pt x="493" y="76" on="0"/>
        <pt x="586" y="188" on="1"/>
        <pt x="586" y="286" on="1"/>
        <pt x="433" y="286" on="1"/>
        <pt x="433" y="354" on="1"/>
        <pt x="662" y="354" on="1"/>
        <pt x="662" y="0" on="1"/>
        <pt x="586" y="0" on="1"/>
      </contour>
    </TTGlyph>
    <TTGlyph name="G.alt" xMin="40" yMin="-5" xMax="704" yMax="715">
      <contour>
        <pt x="381" y="-5" on="1"/>
        <pt x="306" y="-5" on="0"/>
        <pt x="181" y="56" on="0"/>
        <pt x="90" y="157" on="0"/>
        <pt x="40" y="288" on="0"/>
        <pt x="40" y="358" on="1"/>
        <pt x="40" y="427" on="0"/>
        <pt x="89" y="556" on="0"/>
        <pt x="179" y="655" on="0"/>
        <pt x="304" y="715" on="0"/>
        <pt x="379" y="715" on="1"/>
        <pt x="469" y="715" on="0"/>
        <pt x="608" y="632" on="0"/>
        <pt x="650" y="563" on="1"/>
        <pt x="579" y="506" on="1"/>
        <pt x="566" y="528" on="0"/>
        <pt x="527" y="574" on="0"/>
        <pt x="476" y="611" on="0"/>
        <pt x="412" y="634" on="0"/>
        <pt x="374" y="634" on="1"/>
        <pt x="318" y="634" on="0"/>
        <pt x="228" y="586" on="0"/>
        <pt x="165" y="507" on="0"/>
        <pt x="131" y="406" on="0"/>
        <pt x="131" y="354" on="1"/>
        <pt x="131" y="303" on="0"/>
        <pt x="165" y="203" on="0"/>
        <pt x="228" y="124" on="0"/>
        <pt x="318" y="76" on="0"/>
        <pt x="374" y="76" on="1"/>
        <pt x="420" y="76" on="0"/>
        <pt x="499" y="110" on="0"/>
        <pt x="559" y="166" on="0"/>
        <pt x="599" y="238" on="0"/>
        <pt x="606" y="277" on="1"/>
        <pt x="414" y="277" on="1"/>
        <pt x="414" y="357" on="1"/>
        <pt x="704" y="357" on="1"/>
        <pt x="704" y="355" on="0"/>
        <pt x="704" y="341" on="0"/>
        <pt x="703" y="325" on="0"/>
        <pt x="703" y="310" on="0"/>
        <pt x="703" y="308" on="1"/>
        <pt x="698" y="245" on="0"/>
        <pt x="647" y="132" on="0"/>
        <pt x="563" y="46" on="0"/>
        <pt x="449" y="-5" on="0"/>
      </contour>
    </TTGlyph>
    <TTGlyph name="G.sc" xMin="40" yMin="-4" xMax="568" yMax="555">
      <contour>
        <pt x="500" y="71" on="1"/>
        <pt x="422" y="-4" on="0"/>
        <pt x="320" y="-4" on="1"/>
        <pt x="260" y="-4" on="0"/>
        <pt x="158" y="44" on="0"/>
        <pt x="83" y="122" on="0"/>
        <pt x="40" y="224" on="0"/>
        <pt x="40" y="278" on="1"/>
        <pt x="40" y="334" on="0"/>
        <pt x="82" y="434" on="0"/>
        <pt x="157" y="510" on="0"/>
        <pt x="260" y="555" on="0"/>
        <pt x="321" y="555" on="1"/>
        <pt x="407" y="555" on="0"/>
        <pt x="521" y="489" on="0"/>
        <pt x="550" y="435" on="1"/>
        <pt x="488" y="391" on="1"/>
        <pt x="462" y="438" on="0"/>
        <pt x="373" y="483" on="0"/>
        <pt x="318" y="483" on="1"/>
        <pt x="273" y="483" on="0"/>
        <pt x="200" y="448" on="0"/>
        <pt x="149" y="391" on="0"/>
        <pt x="121" y="315" on="0"/>
        <pt x="121" y="275" on="1"/>
        <pt x="121" y="233" on="0"/>
        <pt x="152" y="157" on="0"/>
        <pt x="208" y="101" on="0"/>
        <pt x="282" y="68" on="0"/>
        <pt x="326" y="68" on="1"/>
        <pt x="420" y="68" on="0"/>
        <pt x="500" y="152" on="1"/>
        <pt x="500" y="217" on="1"/>
        <pt x="371" y="217" on="1"/>
        <pt x="371" y="277" on="1"/>
        <pt x="568" y="277" on="1"/>
        <pt x="568" y="0" on="1"/>
        <pt x="500" y="0" on="1"/>
      </contour>
    </TTGlyph>
    <TTGlyph name="Gacute" xMin="39" yMin="-5" xMax="662" yMax="916">
      <contour>
        <pt x="586" y="96" on="1"/>
        <pt x="492" y="-5" on="0"/>
        <pt x="370" y="-5" on="1"/>
        <pt x="299" y="-5" on="0"/>
        <pt x="178" y="57" on="0"/>
        <pt x="90" y="158" on="0"/>
        <pt x="39" y="288" on="0"/>
        <pt x="39" y="357" on="1"/>
        <pt x="39" y="429" on="0"/>
        <pt x="89" y="558" on="0"/>
        <pt x="177" y="657" on="0"/>
        <pt x="299" y="715" on="0"/>
        <pt x="370" y="715" on="1"/>
        <pt x="473" y="715" on="0"/>
        <pt x="606" y="629" on="0"/>
        <pt x="641" y="560" on="1"/>
        <pt x="572" y="512" on="1"/>
        <pt x="540" y="574" on="0"/>
        <pt x="434" y="634" on="0"/>
        <pt x="368" y="634" on="1"/>
        <pt x="314" y="634" on="0"/>
        <pt x="226" y="587" on="0"/>
        <pt x="164" y="510" on="0"/>
        <pt x="130" y="409" on="0"/>
        <pt x="130" y="355" on="1"/>
        <pt x="130" y="298" on="0"/>
        <pt x="168" y="197" on="0"/>
        <pt x="234" y="120" on="0"/>
        <pt x="324" y="76" on="0"/>
        <pt x="377" y="76" on="1"/>
        <pt x="493" y="76" on="0"/>
        <pt x="586" y="188" on="1"/>
        <pt x="586" y="286" on="1"/>
        <pt x="433" y="286" on="1"/>
        <pt x="433" y="354" on="1"/>
        <pt x="662" y="354" on="1"/>
        <pt x="662" y="0" on="1"/>
        <pt x="586" y="0" on="1"/>
      </contour>
      <contour>
        <pt x="390" y="795" on="1"/>
        <pt x="332" y="815" on="1"/>
        <pt x="390" y="916" on="1"/>
        <pt x="478" y="916" on="1"/>
      </contour>
    </TTGlyph>
    <TTGlyph name="Gbreve" xMin="39" yMin="-5" xMax="662" yMax="916">
      <contour>
        <pt x="586" y="96" on="1"/>
        <pt x="492" y="-5" on="0"/>
        <pt x="370" y="-5" on="1"/>
        <pt x="299" y="-5" on="0"/>
        <pt x="178" y="57" on="0"/>
        <pt x="90" y="158" on="0"/>
        <pt x="39" y="288" on="0"/>
        <pt x="39" y="357" on="1"/>
        <pt x="39" y="429" on="0"/>
        <pt x="89" y="558" on="0"/>
        <pt x="177" y="657" on="0"/>
        <pt x="299" y="715" on="0"/>
        <pt x="370" y="715" on="1"/>
        <pt x="473" y="715" on="0"/>
        <pt x="606" y="629" on="0"/>
        <pt x="641" y="560" on="1"/>
        <pt x="572" y="512" on="1"/>
        <pt x="540" y="574" on="0"/>
        <pt x="434" y="634" on="0"/>
        <pt x="368" y="634" on="1"/>
        <pt x="314" y="634" on="0"/>
        <pt x="226" y="587" on="0"/>
        <pt x="164" y="510" on="0"/>
        <pt x="130" y="409" on="0"/>
        <pt x="130" y="355" on="1"/>
        <pt x="130" y="298" on="0"/>
        <pt x="168" y="197" on="0"/>
        <pt x="234" y="120" on="0"/>
        <pt x="324" y="76" on="0"/>
        <pt x="377" y="76" on="1"/>
        <pt x="493" y="76" on="0"/>
        <pt x="586" y="188" on="1"/>
        <pt x="586" y="286" on="1"/>
        <pt x="433" y="286" on="1"/>
        <pt x="433" y="354" on="1"/>
        <pt x="662" y="354" on="1"/>
        <pt x="662" y="0" on="1"/>
        <pt x="586" y="0" on="1"/>
      </contour>
      <contour>
        <pt x="369" y="848" on="1"/>
        <pt x="391" y="848" on="0"/>
        <pt x="424" y="887" on="0"/>
        <pt x="427" y="916" on="1"/>
        <pt x="477" y="916" on="1"/>
        <pt x="477" y="892" on="0"/>
        <pt x="460" y="852" on="0"/>
        <pt x="431" y="822" on="0"/>
        <pt x="392" y="805" on="0"/>
        <pt x="369" y="805" on="1"/>
        <pt x="346" y="805" on="0"/>
        <pt x="307" y="822" on="0"/>
        <pt x="278" y="852" on="0"/>
        <pt x="261" y="892" on="0"/>
        <pt x="261" y="916" on="1"/>
        <pt x="312" y="916" on="1"/>
        <pt x="312" y="889" on="0"/>
        <pt x="346" y="848" on="0"/>
      </contour>
    </TTGlyph>
    <TTGlyph name="Gcircumflex" xMin="39" yMin="-5" xMax="662" yMax="916">
      <contour>
        <pt x="236" y="826" on="1"/>
        <pt x="337" y="916" on="1"/>
        <pt x="401" y="916" on="1"/>
        <pt x="502" y="826" on="1"/>
        <pt x="454" y="802" on="1"/>
        <pt x="369" y="865" on="1"/>
        <pt x="284" y="802" on="1"/>
      </contour>
      <contour>
        <pt x="586" y="96" on="1"/>
        <pt x="492" y="-5" on="0"/>
        <pt x="370" y="-5" on="1"/>
        <pt x="299" y="-5" on="0"/>
        <pt x="178" y="57" on="0"/>
        <pt x="90" y="158" on="0"/>
        <pt x="39" y="288" on="0"/>
        <pt x="39" y="357" on="1"/>
        <pt x="39" y="429" on="0"/>
        <pt x="89" y="558" on="0"/>
        <pt x="177" y="657" on="0"/>
        <pt x="299" y="715" on="0"/>
        <pt x="370" y="715" on="1"/>
        <pt x="473" y="715" on="0"/>
        <pt x="606" y="629" on="0"/>
        <pt x="641" y="560" on="1"/>
        <pt x="572" y="512" on="1"/>
        <pt x="540" y="574" on="0"/>
        <pt x="434" y="634" on="0"/>
        <pt x="368" y="634" on="1"/>
        <pt x="314" y="634" on="0"/>
        <pt x="226" y="587" on="0"/>
        <pt x="164" y="510" on="0"/>
        <pt x="130" y="409" on="0"/>
        <pt x="130" y="355" on="1"/>
        <pt x="130" y="298" on="0"/>
        <pt x="168" y="197" on="0"/>
        <pt x="234" y="120" on="0"/>
        <pt x="324" y="76" on="0"/>
        <pt x="377" y="76" on="1"/>
        <pt x="493" y="76" on="0"/>
        <pt x="586" y="188" on="1"/>
        <pt x="586" y="286" on="1"/>
        <pt x="433" y="286" on="1"/>
        <pt x="433" y="354" on="1"/>
        <pt x="662" y="354" on="1"/>
        <pt x="662" y="0" on="1"/>
        <pt x="586" y="0" on="1"/>
      </contour>
    </TTGlyph>
    <TTGlyph name="Gcommaaccent" xMin="39" yMin="-213" xMax="662" yMax="715">
      <contour>
        <pt x="337" y="-213" on="1"/>
        <pt x="357" y="-132" on="1"/>
        <pt x="332" y="-132" on="1"/>
        <pt x="332" y="-48" on="1"/>
        <pt x="410" y="-48" on="1"/>
        <pt x="410" y="-132" on="1"/>
        <pt x="380" y="-213" on="1"/>
      </contour>
      <contour>
        <pt x="586" y="96" on="1"/>
        <pt x="492" y="-5" on="0"/>
        <pt x="370" y="-5" on="1"/>
        <pt x="299" y="-5" on="0"/>
        <pt x="178" y="57" on="0"/>
        <pt x="90" y="158" on="0"/>
        <pt x="39" y="288" on="0"/>
        <pt x="39" y="357" on="1"/>
        <pt x="39" y="429" on="0"/>
        <pt x="89" y="558" on="0"/>
        <pt x="177" y="657" on="0"/>
        <pt x="299" y="715" on="0"/>
        <pt x="370" y="715" on="1"/>
        <pt x="473" y="715" on="0"/>
        <pt x="606" y="629" on="0"/>
        <pt x="641" y="560" on="1"/>
        <pt x="572" y="512" on="1"/>
        <pt x="540" y="574" on="0"/>
        <pt x="434" y="634" on="0"/>
        <pt x="368" y="634" on="1"/>
        <pt x="314" y="634" on="0"/>
        <pt x="226" y="587" on="0"/>
        <pt x="164" y="510" on="0"/>
        <pt x="130" y="409" on="0"/>
        <pt x="130" y="355" on="1"/>
        <pt x="130" y="298" on="0"/>
        <pt x="168" y="197" on="0"/>
        <pt x="234" y="120" on="0"/>
        <pt x="324" y="76" on="0"/>
        <pt x="377" y="76" on="1"/>
        <pt x="493" y="76" on="0"/>
        <pt x="586" y="188" on="1"/>
        <pt x="586" y="286" on="1"/>
        <pt x="433" y="286" on="1"/>
        <pt x="433" y="354" on="1"/>
        <pt x="662" y="354" on="1"/>
        <pt x="662" y="0" on="1"/>
        <pt x="586" y="0" on="1"/>
      </contour>
    </TTGlyph>
    <TTGlyph name="Gdotaccent" xMin="39" yMin="-5" xMax="662" yMax="916">
      <contour>
        <pt x="586" y="96" on="1"/>
        <pt x="492" y="-5" on="0"/>
        <pt x="370" y="-5" on="1"/>
        <pt x="299" y="-5" on="0"/>
        <pt x="178" y="57" on="0"/>
        <pt x="90" y="158" on="0"/>
        <pt x="39" y="288" on="0"/>
        <pt x="39" y="357" on="1"/>
        <pt x="39" y="429" on="0"/>
        <pt x="89" y="558" on="0"/>
        <pt x="177" y="657" on="0"/>
        <pt x="299" y="715" on="0"/>
        <pt x="370" y="715" on="1"/>
        <pt x="473" y="715" on="0"/>
        <pt x="606" y="629" on="0"/>
        <pt x="641" y="560" on="1"/>
        <pt x="572" y="512" on="1"/>
        <pt x="540" y="574" on="0"/>
        <pt x="434" y="634" on="0"/>
        <pt x="368" y="634" on="1"/>
        <pt x="314" y="634" on="0"/>
        <pt x="226" y="587" on="0"/>
        <pt x="164" y="510" on="0"/>
        <pt x="130" y="409" on="0"/>
        <pt x="130" y="355" on="1"/>
        <pt x="130" y="298" on="0"/>
        <pt x="168" y="197" on="0"/>
        <pt x="234" y="120" on="0"/>
        <pt x="324" y="76" on="0"/>
        <pt x="377" y="76" on="1"/>
        <pt x="493" y="76" on="0"/>
        <pt x="586" y="188" on="1"/>
        <pt x="586" y="286" on="1"/>
        <pt x="433" y="286" on="1"/>
        <pt x="433" y="354" on="1"/>
        <pt x="662" y="354" on="1"/>
        <pt x="662" y="0" on="1"/>
        <pt x="586" y="0" on="1"/>
      </contour>
      <contour>
        <pt x="329" y="810" on="1"/>
        <pt x="329" y="916" on="1"/>
        <pt x="409" y="916" on="1"/>
        <pt x="409" y="810" on="1"/>
      </contour>
    </TTGlyph>
    <TTGlyph name="H" xMin="85" yMin="0" xMax="656" yMax="710">
      <contour>
        <pt x="656" y="710" on="1"/>
        <pt x="656" y="0" on="1"/>
        <pt x="566" y="0" on="1"/>
        <pt x="566" y="323" on="1"/>
        <pt x="175" y="323" on="1"/>
        <pt x="175" y="0" on="1"/>
        <pt x="85" y="0" on="1"/>
        <pt x="85" y="710" on="1"/>
        <pt x="175" y="710" on="1"/>
        <pt x="175" y="403" on="1"/>
        <pt x="566" y="403" on="1"/>
        <pt x="566" y="710" on="1"/>
      </contour>
    </TTGlyph>
    <TTGlyph name="H.sc" xMin="79" yMin="0" xMax="567" yMax="551">
      <contour>
        <pt x="567" y="551" on="1"/>
        <pt x="567" y="0" on="1"/>
        <pt x="487" y="0" on="1"/>
        <pt x="487" y="246" on="1"/>
        <pt x="159" y="246" on="1"/>
        <pt x="159" y="0" on="1"/>
        <pt x="79" y="0" on="1"/>
        <pt x="79" y="551" on="1"/>
        <pt x="159" y="551" on="1"/>
        <pt x="159" y="318" on="1"/>
        <pt x="487" y="318" on="1"/>
        <pt x="487" y="551" on="1"/>
      </contour>
    </TTGlyph>
    <TTGlyph name="Hbar" xMin="40" yMin="0" xMax="711" yMax="710">
      <contour>
        <pt x="661" y="710" on="1"/>
        <pt x="661" y="595" on="1"/>
        <pt x="711" y="595" on="1"/>
        <pt x="711" y="548" on="1"/>
        <pt x="661" y="548" on="1"/>
        <pt x="661" y="0" on="1"/>
        <pt x="571" y="0" on="1"/>
        <pt x="571" y="323" on="1"/>
        <pt x="180" y="323" on="1"/>
        <pt x="180" y="0" on="1"/>
        <pt x="90" y="0" on="1"/>
        <pt x="90" y="548" on="1"/>
        <pt x="40" y="548" on="1"/>
        <pt x="40" y="595" on="1"/>
        <pt x="90" y="595" on="1"/>
        <pt x="90" y="710" on="1"/>
        <pt x="180" y="710" on="1"/>
        <pt x="180" y="595" on="1"/>
        <pt x="571" y="595" on="1"/>
        <pt x="571" y="710" on="1"/>
      </contour>
      <contour>
        <pt x="571" y="403" on="1"/>
        <pt x="571" y="548" on="1"/>
        <pt x="180" y="548" on="1"/>
        <pt x="180" y="403" on="1"/>
      </contour>
    </TTGlyph>
    <TTGlyph name="Hcircumflex" xMin="85" yMin="0" xMax="656" yMax="916">
      <contour>
        <pt x="240" y="826" on="1"/>
        <pt x="341" y="916" on="1"/>
        <pt x="405" y="916" on="1"/>
        <pt x="506" y="826" on="1"/>
        <pt x="458" y="802" on="1"/>
        <pt x="373" y="865" on="1"/>
        <pt x="288" y="802" on="1"/>
      </contour>
      <contour>
        <pt x="656" y="710" on="1"/>
        <pt x="656" y="0" on="1"/>
        <pt x="566" y="0" on="1"/>
        <pt x="566" y="323" on="1"/>
        <pt x="175" y="323" on="1"/>
        <pt x="175" y="0" on="1"/>
        <pt x="85" y="0" on="1"/>
        <pt x="85" y="710" on="1"/>
        <pt x="175" y="710" on="1"/>
        <pt x="175" y="403" on="1"/>
        <pt x="566" y="403" on="1"/>
        <pt x="566" y="710" on="1"/>
      </contour>
    </TTGlyph>
    <TTGlyph name="Hdotbelow" xMin="85" yMin="-182" xMax="656" yMax="710">
      <contour>
        <pt x="656" y="710" on="1"/>
        <pt x="656" y="0" on="1"/>
        <pt x="566" y="0" on="1"/>
        <pt x="566" y="323" on="1"/>
        <pt x="175" y="323" on="1"/>
        <pt x="175" y="0" on="1"/>
        <pt x="85" y="0" on="1"/>
        <pt x="85" y="710" on="1"/>
        <pt x="175" y="710" on="1"/>
        <pt x="175" y="403" on="1"/>
        <pt x="566" y="403" on="1"/>
        <pt x="566" y="710" on="1"/>
      </contour>
      <contour>
        <pt x="330" y="-182" on="1"/>
        <pt x="330" y="-76" on="1"/>
        <pt x="410" y="-76" on="1"/>
        <pt x="410" y="-182" on="1"/>
      </contour>
    </TTGlyph>
    <TTGlyph name="I" xMin="85" yMin="0" xMax="175" yMax="710">
      <contour>
        <pt x="85" y="0" on="1"/>
        <pt x="85" y="710" on="1"/>
        <pt x="175" y="710" on="1"/>
        <pt x="175" y="0" on="1"/>
      </contour>
    </TTGlyph>
    <TTGlyph name="I.sc" xMin="79" yMin="0" xMax="159" yMax="551">
      <contour>
        <pt x="79" y="0" on="1"/>
        <pt x="79" y="551" on="1"/>
        <pt x="159" y="551" on="1"/>
        <pt x="159" y="0" on="1"/>
      </contour>
    </TTGlyph>
    <TTGlyph name="IJ" xMin="85" yMin="-11" xMax="668" yMax="710">
      <contour>
        <pt x="85" y="0" on="1"/>
        <pt x="85" y="710" on="1"/>
        <pt x="175" y="710" on="1"/>
        <pt x="175" y="0" on="1"/>
      </contour>
      <contour>
        <pt x="295" y="106" on="1"/>
        <pt x="315" y="92" on="0"/>
        <pt x="383" y="70" on="0"/>
        <pt x="426" y="70" on="1"/>
        <pt x="477" y="70" on="0"/>
        <pt x="537" y="106" on="0"/>
        <pt x="568" y="177" on="0"/>
        <pt x="578" y="281" on="0"/>
        <pt x="578" y="349" on="1"/>
        <pt x="578" y="710" on="1"/>
        <pt x="668" y="710" on="1"/>
        <pt x="668" y="349" on="1"/>
        <pt x="668" y="268" on="0"/>
        <pt x="653" y="135" on="0"/>
        <pt x="602" y="41" on="0"/>
        <pt x="507" y="-11" on="0"/>
        <pt x="426" y="-11" on="1"/>
        <pt x="336" y="-11" on="0"/>
        <pt x="272" y="33" on="1"/>
      </contour>
    </TTGlyph>
    <TTGlyph name="Iacute" xMin="85" yMin="0" xMax="233" yMax="916">
      <contour>
        <pt x="85" y="0" on="1"/>
        <pt x="85" y="710" on="1"/>
        <pt x="175" y="710" on="1"/>
        <pt x="175" y="0" on="1"/>
      </contour>
      <contour>
        <pt x="145" y="795" on="1"/>
        <pt x="87" y="815" on="1"/>
        <pt x="145" y="916" on="1"/>
        <pt x="233" y="916" on="1"/>
      </contour>
    </TTGlyph>
    <TTGlyph name="Ibreve" xMin="22" yMin="0" xMax="238" yMax="916">
      <contour>
        <pt x="85" y="0" on="1"/>
        <pt x="85" y="710" on="1"/>
        <pt x="175" y="710" on="1"/>
        <pt x="175" y="0" on="1"/>
      </contour>
      <contour>
        <pt x="130" y="848" on="1"/>
        <pt x="152" y="848" on="0"/>
        <pt x="185" y="887" on="0"/>
        <pt x="188" y="916" on="1"/>
        <pt x="238" y="916" on="1"/>
        <pt x="238" y="892" on="0"/>
        <pt x="221" y="852" on="0"/>
        <pt x="192" y="822" on="0"/>
        <pt x="153" y="805" on="0"/>
        <pt x="130" y="805" on="1"/>
        <pt x="107" y="805" on="0"/>
        <pt x="68" y="822" on="0"/>
        <pt x="39" y="852" on="0"/>
        <pt x="22" y="892" on="0"/>
        <pt x="22" y="916" on="1"/>
        <pt x="73" y="916" on="1"/>
        <pt x="73" y="889" on="0"/>
        <pt x="107" y="848" on="0"/>
      </contour>
    </TTGlyph>
    <TTGlyph name="Icircumflex" xMin="-3" yMin="0" xMax="263" yMax="916">
      <contour>
        <pt x="85" y="0" on="1"/>
        <pt x="85" y="710" on="1"/>
        <pt x="175" y="710" on="1"/>
        <pt x="175" y="0" on="1"/>
      </contour>
      <contour>
        <pt x="-3" y="826" on="1"/>
        <pt x="98" y="916" on="1"/>
        <pt x="162" y="916" on="1"/>
        <pt x="263" y="826" on="1"/>
        <pt x="215" y="802" on="1"/>
        <pt x="130" y="865" on="1"/>
        <pt x="45" y="802" on="1"/>
      </contour>
    </TTGlyph>
    <TTGlyph name="Idblgrave" xMin="-24" yMin="0" xMax="242" yMax="918">
      <contour>
        <pt x="85" y="0" on="1"/>
        <pt x="85" y="710" on="1"/>
        <pt x="175" y="710" on="1"/>
        <pt x="175" y="0" on="1"/>
      </contour>
      <contour>
        <pt x="112" y="918" on="1"/>
        <pt x="188" y="918" on="1"/>
        <pt x="242" y="817" on="1"/>
        <pt x="196" y="797" on="1"/>
      </contour>
      <contour>
        <pt x="-24" y="918" on="1"/>
        <pt x="52" y="918" on="1"/>
        <pt x="106" y="817" on="1"/>
        <pt x="60" y="797" on="1"/>
      </contour>
    </TTGlyph>
    <TTGlyph name="Idieresis" xMin="12" yMin="0" xMax="248" yMax="913">
      <contour>
        <pt x="85" y="0" on="1"/>
        <pt x="85" y="710" on="1"/>
        <pt x="175" y="710" on="1"/>
        <pt x="175" y="0" on="1"/>
      </contour>
      <contour>
        <pt x="12" y="811" on="1"/>
        <pt x="12" y="913" on="1"/>
        <pt x="86" y="913" on="1"/>
        <pt x="86" y="811" on="1"/>
      </contour>
      <contour>
        <pt x="174" y="811" on="1"/>
        <pt x="174" y="913" on="1"/>
        <pt x="248" y="913" on="1"/>
        <pt x="248" y="811" on="1"/>
      </contour>
    </TTGlyph>
    <TTGlyph name="Idotaccent" xMin="85" yMin="0" xMax="175" yMax="916">
      <contour>
        <pt x="85" y="0" on="1"/>
        <pt x="85" y="710" on="1"/>
        <pt x="175" y="710" on="1"/>
        <pt x="175" y="0" on="1"/>
      </contour>
      <contour>
        <pt x="90" y="810" on="1"/>
        <pt x="90" y="916" on="1"/>
        <pt x="170" y="916" on="1"/>
        <pt x="170" y="810" on="1"/>
      </contour>
    </TTGlyph>
    <TTGlyph name="Idotbelow" xMin="85" yMin="-182" xMax="175" yMax="710">
      <contour>
        <pt x="85" y="0" on="1"/>
        <pt x="85" y="710" on="1"/>
        <pt x="175" y="710" on="1"/>
        <pt x="175" y="0" on="1"/>
      </contour>
      <contour>
        <pt x="87" y="-182" on="1"/>
        <pt x="87" y="-76" on="1"/>
        <pt x="167" y="-76" on="1"/>
        <pt x="167" y="-182" on="1"/>
      </contour>
    </TTGlyph>
    <TTGlyph name="Igrave" xMin="26" yMin="0" xMax="175" yMax="917">
      <contour>
        <pt x="85" y="0" on="1"/>
        <pt x="85" y="710" on="1"/>
        <pt x="175" y="710" on="1"/>
        <pt x="175" y="0" on="1"/>
      </contour>
      <contour>
        <pt x="26" y="917" on="1"/>
        <pt x="113" y="917" on="1"/>
        <pt x="172" y="816" on="1"/>
        <pt x="115" y="796" on="1"/>
      </contour>
    </TTGlyph>
    <TTGlyph name="Iinvertedbreve" xMin="19" yMin="0" xMax="235" yMax="916">
      <contour>
        <pt x="85" y="0" on="1"/>
        <pt x="85" y="710" on="1"/>
        <pt x="175" y="710" on="1"/>
        <pt x="175" y="0" on="1"/>
      </contour>
      <contour>
        <pt x="127" y="873" on="1"/>
        <pt x="104" y="873" on="0"/>
        <pt x="70" y="832" on="0"/>
        <pt x="70" y="805" on="1"/>
        <pt x="19" y="805" on="1"/>
        <pt x="19" y="829" on="0"/>
        <pt x="36" y="869" on="0"/>
        <pt x="65" y="899" on="0"/>
        <pt x="104" y="916" on="0"/>
        <pt x="127" y="916" on="1"/>
        <pt x="150" y="916" on="0"/>
        <pt x="189" y="899" on="0"/>
        <pt x="218" y="869" on="0"/>
        <pt x="235" y="829" on="0"/>
        <pt x="235" y="805" on="1"/>
        <pt x="185" y="805" on="1"/>
        <pt x="182" y="834" on="0"/>
        <pt x="149" y="873" on="0"/>
      </contour>
    </TTGlyph>
    <TTGlyph name="Imacron" xMin="-15" yMin="0" xMax="277" yMax="898">
      <contour>
        <pt x="85" y="0" on="1"/>
        <pt x="85" y="710" on="1"/>
        <pt x="175" y="710" on="1"/>
        <pt x="175" y="0" on="1"/>
      </contour>
      <contour>
        <pt x="-15" y="840" on="1"/>
        <pt x="-15" y="898" on="1"/>
        <pt x="277" y="898" on="1"/>
        <pt x="277" y="840" on="1"/>
      </contour>
    </TTGlyph>
    <TTGlyph name="Iogonek" xMin="42" yMin="-181" xMax="175" yMax="710">
      <contour>
        <pt x="126" y="-181" on="1"/>
        <pt x="84" y="-173" on="0"/>
        <pt x="42" y="-132" on="0"/>
        <pt x="42" y="-104" on="1"/>
        <pt x="42" y="-78" on="0"/>
        <pt x="79" y="-26" on="0"/>
        <pt x="119" y="0" on="1"/>
        <pt x="85" y="0" on="1"/>
        <pt x="85" y="710" on="1"/>
        <pt x="175" y="710" on="1"/>
        <pt x="175" y="0" on="1"/>
        <pt x="131" y="-27" on="0"/>
        <pt x="93" y="-70" on="0"/>
        <pt x="93" y="-92" on="1"/>
        <pt x="93" y="-129" on="0"/>
        <pt x="148" y="-135" on="1"/>
        <pt x="126" y="-181" on="1"/>
      </contour>
    </TTGlyph>
    <TTGlyph name="Itilde" xMin="-38" yMin="0" xMax="298" yMax="916">
      <contour>
        <pt x="85" y="0" on="1"/>
        <pt x="85" y="710" on="1"/>
        <pt x="175" y="710" on="1"/>
        <pt x="175" y="0" on="1"/>
      </contour>
      <contour>
        <pt x="192" y="813" on="1"/>
        <pt x="169" y="813" on="0"/>
        <pt x="136" y="826" on="0"/>
        <pt x="107" y="842" on="0"/>
        <pt x="79" y="855" on="0"/>
        <pt x="63" y="855" on="1"/>
        <pt x="46" y="855" on="0"/>
        <pt x="27" y="841" on="0"/>
        <pt x="17" y="824" on="0"/>
        <pt x="14" y="808" on="0"/>
        <pt x="14" y="807" on="1"/>
        <pt x="-38" y="807" on="1"/>
        <pt x="-38" y="813" on="0"/>
        <pt x="-29" y="847" on="0"/>
        <pt x="-7" y="883" on="0"/>
        <pt x="31" y="910" on="0"/>
        <pt x="61" y="910" on="1"/>
        <pt x="82" y="910" on="0"/>
        <pt x="114" y="897" on="0"/>
        <pt x="143" y="880" on="0"/>
        <pt x="172" y="867" on="0"/>
        <pt x="190" y="867" on="1"/>
        <pt x="209" y="867" on="0"/>
        <pt x="231" y="881" on="0"/>
        <pt x="243" y="899" on="0"/>
        <pt x="246" y="914" on="0"/>
        <pt x="246" y="916" on="1"/>
        <pt x="298" y="916" on="1"/>
        <pt x="298" y="910" on="0"/>
        <pt x="289" y="877" on="0"/>
        <pt x="265" y="841" on="0"/>
        <pt x="224" y="813" on="0"/>
      </contour>
    </TTGlyph>
    <TTGlyph name="J" xMin="12" yMin="-11" xMax="408" yMax="710">
      <contour>
        <pt x="35" y="106" on="1"/>
        <pt x="55" y="92" on="0"/>
        <pt x="123" y="70" on="0"/>
        <pt x="166" y="70" on="1"/>
        <pt x="217" y="70" on="0"/>
        <pt x="277" y="106" on="0"/>
        <pt x="308" y="177" on="0"/>
        <pt x="318" y="281" on="0"/>
        <pt x="318" y="349" on="1"/>
        <pt x="318" y="710" on="1"/>
        <pt x="408" y="710" on="1"/>
        <pt x="408" y="349" on="1"/>
        <pt x="408" y="268" on="0"/>
        <pt x="393" y="135" on="0"/>
        <pt x="342" y="41" on="0"/>
        <pt x="247" y="-11" on="0"/>
        <pt x="166" y="-11" on="1"/>
        <pt x="76" y="-11" on="0"/>
        <pt x="12" y="33" on="1"/>
      </contour>
    </TTGlyph>
    <TTGlyph name="J.sc" xMin="18" yMin="-8" xMax="357" yMax="551">
      <contour>
        <pt x="39" y="91" on="1"/>
        <pt x="55" y="81" on="0"/>
        <pt x="113" y="63" on="0"/>
        <pt x="150" y="63" on="1"/>
        <pt x="192" y="63" on="0"/>
        <pt x="243" y="90" on="0"/>
        <pt x="269" y="142" on="0"/>
        <pt x="277" y="220" on="0"/>
        <pt x="277" y="271" on="1"/>
        <pt x="277" y="551" on="1"/>
        <pt x="357" y="551" on="1"/>
        <pt x="357" y="271" on="1"/>
        <pt x="357" y="208" on="0"/>
        <pt x="344" y="105" on="0"/>
        <pt x="301" y="32" on="0"/>
        <pt x="219" y="-8" on="0"/>
        <pt x="150" y="-8" on="1"/>
        <pt x="72" y="-8" on="0"/>
        <pt x="18" y="25" on="1"/>
      </contour>
    </TTGlyph>
    <TTGlyph name="Jcircumflex" xMin="12" yMin="-11" xMax="497" yMax="916">
      <contour>
        <pt x="231" y="826" on="1"/>
        <pt x="332" y="916" on="1"/>
        <pt x="396" y="916" on="1"/>
        <pt x="497" y="826" on="1"/>
        <pt x="449" y="802" on="1"/>
        <pt x="364" y="865" on="1"/>
        <pt x="279" y="802" on="1"/>
      </contour>
      <contour>
        <pt x="35" y="106" on="1"/>
        <pt x="55" y="92" on="0"/>
        <pt x="123" y="70" on="0"/>
        <pt x="166" y="70" on="1"/>
        <pt x="217" y="70" on="0"/>
        <pt x="277" y="106" on="0"/>
        <pt x="308" y="177" on="0"/>
        <pt x="318" y="281" on="0"/>
        <pt x="318" y="349" on="1"/>
        <pt x="318" y="710" on="1"/>
        <pt x="408" y="710" on="1"/>
        <pt x="408" y="349" on="1"/>
        <pt x="408" y="268" on="0"/>
        <pt x="393" y="135" on="0"/>
        <pt x="342" y="41" on="0"/>
        <pt x="247" y="-11" on="0"/>
        <pt x="166" y="-11" on="1"/>
        <pt x="76" y="-11" on="0"/>
        <pt x="12" y="33" on="1"/>
      </contour>
    </TTGlyph>
    <TTGlyph name="K" xMin="85" yMin="0" xMax="654" yMax="710">
      <contour>
        <pt x="85" y="0" on="1"/>
        <pt x="85" y="709" on="1"/>
        <pt x="175" y="709" on="1"/>
        <pt x="175" y="317" on="1"/>
        <pt x="541" y="710" on="1"/>
        <pt x="638" y="710" on="1"/>
        <pt x="353" y="397" on="1"/>
        <pt x="654" y="0" on="1"/>
        <pt x="556" y="0" on="1"/>
        <pt x="298" y="345" on="1"/>
        <pt x="175" y="217" on="1"/>
        <pt x="175" y="0" on="1"/>
      </contour>
    </TTGlyph>
    <TTGlyph name="K.sc" xMin="79" yMin="0" xMax="566" yMax="551">
      <contour>
        <pt x="79" y="0" on="1"/>
        <pt x="79" y="551" on="1"/>
        <pt x="159" y="551" on="1"/>
        <pt x="159" y="256" on="1"/>
        <pt x="466" y="551" on="1"/>
        <pt x="553" y="551" on="1"/>
        <pt x="311" y="308" on="1"/>
        <pt x="566" y="0" on="1"/>
        <pt x="480" y="0" on="1"/>
        <pt x="262" y="261" on="1"/>
        <pt x="159" y="168" on="1"/>
        <pt x="159" y="0" on="1"/>
      </contour>
    </TTGlyph>
    <TTGlyph name="Kcommaaccent" xMin="85" yMin="-213" xMax="654" yMax="710">
      <contour>
        <pt x="300" y="-213" on="1"/>
        <pt x="320" y="-132" on="1"/>
        <pt x="295" y="-132" on="1"/>
        <pt x="295" y="-48" on="1"/>
        <pt x="373" y="-48" on="1"/>
        <pt x="373" y="-132" on="1"/>
        <pt x="343" y="-213" on="1"/>
      </contour>
      <contour>
        <pt x="85" y="0" on="1"/>
        <pt x="85" y="709" on="1"/>
        <pt x="175" y="709" on="1"/>
        <pt x="175" y="317" on="1"/>
        <pt x="541" y="710" on="1"/>
        <pt x="638" y="710" on="1"/>
        <pt x="353" y="397" on="1"/>
        <pt x="654" y="0" on="1"/>
        <pt x="556" y="0" on="1"/>
        <pt x="298" y="345" on="1"/>
        <pt x="175" y="217" on="1"/>
        <pt x="175" y="0" on="1"/>
      </contour>
    </TTGlyph>
    <TTGlyph name="L" xMin="85" yMin="0" xMax="571" yMax="710">
      <contour>
        <pt x="85" y="0" on="1"/>
        <pt x="85" y="710" on="1"/>
        <pt x="175" y="710" on="1"/>
        <pt x="175" y="80" on="1"/>
        <pt x="571" y="80" on="1"/>
        <pt x="571" y="0" on="1"/>
      </contour>
    </TTGlyph>
    <TTGlyph name="L.sc" xMin="79" yMin="0" xMax="476" yMax="551">
      <contour>
        <pt x="79" y="0" on="1"/>
        <pt x="79" y="551" on="1"/>
        <pt x="159" y="551" on="1"/>
        <pt x="159" y="71" on="1"/>
        <pt x="476" y="71" on="1"/>
        <pt x="476" y="0" on="1"/>
      </contour>
    </TTGlyph>
    <TTGlyph name="Lacute" xMin="85" yMin="0" xMax="571" yMax="916">
      <contour>
        <pt x="363" y="795" on="1"/>
        <pt x="305" y="815" on="1"/>
        <pt x="363" y="916" on="1"/>
        <pt x="451" y="916" on="1"/>
      </contour>
      <contour>
        <pt x="85" y="0" on="1"/>
        <pt x="85" y="710" on="1"/>
        <pt x="175" y="710" on="1"/>
        <pt x="175" y="80" on="1"/>
        <pt x="571" y="80" on="1"/>
        <pt x="571" y="0" on="1"/>
      </contour>
    </TTGlyph>
    <TTGlyph name="Lcaron" xMin="85" yMin="0" xMax="571" yMax="730">
      <contour>
        <pt x="391" y="609" on="1"/>
        <pt x="333" y="629" on="1"/>
        <pt x="391" y="730" on="1"/>
        <pt x="479" y="730" on="1"/>
      </contour>
      <contour>
        <pt x="85" y="0" on="1"/>
        <pt x="85" y="710" on="1"/>
        <pt x="175" y="710" on="1"/>
        <pt x="175" y="80" on="1"/>
        <pt x="571" y="80" on="1"/>
        <pt x="571" y="0" on="1"/>
      </contour>
    </TTGlyph>
    <TTGlyph name="Lcommaaccent" xMin="85" yMin="-213" xMax="571" yMax="710">
      <contour>
        <pt x="297" y="-213" on="1"/>
        <pt x="317" y="-132" on="1"/>
        <pt x="292" y="-132" on="1"/>
        <pt x="292" y="-48" on="1"/>
        <pt x="370" y="-48" on="1"/>
        <pt x="370" y="-132" on="1"/>
        <pt x="340" y="-213" on="1"/>
      </contour>
      <contour>
        <pt x="85" y="0" on="1"/>
        <pt x="85" y="710" on="1"/>
        <pt x="175" y="710" on="1"/>
        <pt x="175" y="80" on="1"/>
        <pt x="571" y="80" on="1"/>
        <pt x="571" y="0" on="1"/>
      </contour>
    </TTGlyph>
    <TTGlyph name="Ldot" xMin="85" yMin="0" xMax="571" yMax="710">
      <contour>
        <pt x="85" y="0" on="1"/>
        <pt x="85" y="710" on="1"/>
        <pt x="175" y="710" on="1"/>
        <pt x="175" y="80" on="1"/>
        <pt x="571" y="80" on="1"/>
        <pt x="571" y="0" on="1"/>
      </contour>
      <contour>
        <pt x="366" y="343" on="1"/>
        <pt x="366" y="467" on="1"/>
        <pt x="440" y="467" on="1"/>
        <pt x="440" y="343" on="1"/>
      </contour>
    </TTGlyph>
    <TTGlyph name="Lslash" xMin="10" yMin="0" xMax="578" yMax="710">
      <contour>
        <pt x="92" y="0" on="1"/>
        <pt x="92" y="276" on="1"/>
        <pt x="36" y="233" on="1"/>
        <pt x="10" y="283" on="1"/>
        <pt x="92" y="345" on="1"/>
        <pt x="92" y="710" on="1"/>
        <pt x="182" y="710" on="1"/>
        <pt x="182" y="414" on="1"/>
        <pt x="324" y="523" on="1"/>
        <pt x="349" y="474" on="1"/>
        <pt x="182" y="345" on="1"/>
        <pt x="182" y="80" on="1"/>
        <pt x="578" y="80" on="1"/>
        <pt x="578" y="0" on="1"/>
      </contour>
    </TTGlyph>
    <TTGlyph name="M" xMin="85" yMin="0" xMax="789" yMax="710">
      <contour>
        <pt x="699" y="0" on="1"/>
        <pt x="699" y="549" on="1"/>
        <pt x="463" y="128" on="1"/>
        <pt x="412" y="128" on="1"/>
        <pt x="175" y="549" on="1"/>
        <pt x="175" y="0" on="1"/>
        <pt x="85" y="0" on="1"/>
        <pt x="85" y="710" on="1"/>
        <pt x="180" y="710" on="1"/>
        <pt x="437" y="249" on="1"/>
        <pt x="695" y="710" on="1"/>
        <pt x="789" y="710" on="1"/>
        <pt x="789" y="0" on="1"/>
      </contour>
    </TTGlyph>
    <TTGlyph name="M.sc" xMin="79" yMin="0" xMax="680" yMax="551">
      <contour>
        <pt x="600" y="0" on="1"/>
        <pt x="600" y="409" on="1"/>
        <pt x="402" y="98" on="1"/>
        <pt x="357" y="98" on="1"/>
        <pt x="159" y="409" on="1"/>
        <pt x="159" y="0" on="1"/>
        <pt x="79" y="0" on="1"/>
        <pt x="79" y="551" on="1"/>
        <pt x="164" y="551" on="1"/>
        <pt x="380" y="206" on="1"/>
        <pt x="596" y="551" on="1"/>
        <pt x="680" y="551" on="1"/>
        <pt x="680" y="0" on="1"/>
      </contour>
    </TTGlyph>
    <TTGlyph name="N" xMin="85" yMin="0" xMax="685" yMax="710">
      <contour>
        <pt x="175" y="542" on="1"/>
        <pt x="175" y="0" on="1"/>
        <pt x="85" y="0" on="1"/>
        <pt x="85" y="710" on="1"/>
        <pt x="155" y="710" on="1"/>
        <pt x="595" y="157" on="1"/>
        <pt x="595" y="709" on="1"/>
        <pt x="685" y="709" on="1"/>
        <pt x="685" y="0" on="1"/>
        <pt x="609" y="0" on="1"/>
      </contour>
    </TTGlyph>
    <TTGlyph name="N.sc" xMin="79" yMin="0" xMax="591" yMax="551">
      <contour>
        <pt x="159" y="402" on="1"/>
        <pt x="159" y="0" on="1"/>
        <pt x="79" y="0" on="1"/>
        <pt x="79" y="551" on="1"/>
        <pt x="141" y="551" on="1"/>
        <pt x="511" y="141" on="1"/>
        <pt x="511" y="551" on="1"/>
        <pt x="591" y="551" on="1"/>
        <pt x="591" y="0" on="1"/>
        <pt x="524" y="0" on="1"/>
      </contour>
    </TTGlyph>
    <TTGlyph name="Nacute" xMin="85" yMin="0" xMax="685" yMax="916">
      <contour>
        <pt x="402" y="795" on="1"/>
        <pt x="344" y="815" on="1"/>
        <pt x="402" y="916" on="1"/>
        <pt x="490" y="916" on="1"/>
      </contour>
      <contour>
        <pt x="175" y="542" on="1"/>
        <pt x="175" y="0" on="1"/>
        <pt x="85" y="0" on="1"/>
        <pt x="85" y="710" on="1"/>
        <pt x="155" y="710" on="1"/>
        <pt x="595" y="157" on="1"/>
        <pt x="595" y="709" on="1"/>
        <pt x="685" y="709" on="1"/>
        <pt x="685" y="0" on="1"/>
        <pt x="609" y="0" on="1"/>
      </contour>
    </TTGlyph>
    <TTGlyph name="Ncaron" xMin="85" yMin="0" xMax="685" yMax="916">
      <contour>
        <pt x="302" y="916" on="1"/>
        <pt x="387" y="853" on="1"/>
        <pt x="472" y="916" on="1"/>
        <pt x="520" y="892" on="1"/>
        <pt x="419" y="802" on="1"/>
        <pt x="355" y="802" on="1"/>
        <pt x="254" y="892" on="1"/>
      </contour>
      <contour>
        <pt x="175" y="542" on="1"/>
        <pt x="175" y="0" on="1"/>
        <pt x="85" y="0" on="1"/>
        <pt x="85" y="710" on="1"/>
        <pt x="155" y="710" on="1"/>
        <pt x="595" y="157" on="1"/>
        <pt x="595" y="709" on="1"/>
        <pt x="685" y="709" on="1"/>
        <pt x="685" y="0" on="1"/>
        <pt x="609" y="0" on="1"/>
      </contour>
    </TTGlyph>
    <TTGlyph name="Ncommaaccent" xMin="85" yMin="-213" xMax="685" yMax="710">
      <contour>
        <pt x="350" y="-213" on="1"/>
        <pt x="370" y="-132" on="1"/>
        <pt x="345" y="-132" on="1"/>
        <pt x="345" y="-48" on="1"/>
        <pt x="423" y="-48" on="1"/>
        <pt x="423" y="-132" on="1"/>
        <pt x="393" y="-213" on="1"/>
      </contour>
      <contour>
        <pt x="175" y="542" on="1"/>
        <pt x="175" y="0" on="1"/>
        <pt x="85" y="0" on="1"/>
        <pt x="85" y="710" on="1"/>
        <pt x="155" y="710" on="1"/>
        <pt x="595" y="157" on="1"/>
        <pt x="595" y="709" on="1"/>
        <pt x="685" y="709" on="1"/>
        <pt x="685" y="0" on="1"/>
        <pt x="609" y="0" on="1"/>
      </contour>
    </TTGlyph>
    <TTGlyph name="Ndotaccent" xMin="85" yMin="0" xMax="685" yMax="916">
      <contour>
        <pt x="347" y="810" on="1"/>
        <pt x="347" y="916" on="1"/>
        <pt x="427" y="916" on="1"/>
        <pt x="427" y="810" on="1"/>
      </contour>
      <contour>
        <pt x="175" y="542" on="1"/>
        <pt x="175" y="0" on="1"/>
        <pt x="85" y="0" on="1"/>
        <pt x="85" y="710" on="1"/>
        <pt x="155" y="710" on="1"/>
        <pt x="595" y="157" on="1"/>
        <pt x="595" y="709" on="1"/>
        <pt x="685" y="709" on="1"/>
        <pt x="685" y="0" on="1"/>
        <pt x="609" y="0" on="1"/>
      </contour>
    </TTGlyph>
    <TTGlyph name="Ntilde" xMin="85" yMin="0" xMax="685" yMax="916">
      <contour>
        <pt x="175" y="542" on="1"/>
        <pt x="175" y="0" on="1"/>
        <pt x="85" y="0" on="1"/>
        <pt x="85" y="710" on="1"/>
        <pt x="155" y="710" on="1"/>
        <pt x="595" y="157" on="1"/>
        <pt x="595" y="709" on="1"/>
        <pt x="685" y="709" on="1"/>
        <pt x="685" y="0" on="1"/>
        <pt x="609" y="0" on="1"/>
      </contour>
      <contour>
        <pt x="449" y="813" on="1"/>
        <pt x="426" y="813" on="0"/>
        <pt x="393" y="826" on="0"/>
        <pt x="364" y="842" on="0"/>
        <pt x="336" y="855" on="0"/>
        <pt x="320" y="855" on="1"/>
        <pt x="303" y="855" on="0"/>
        <pt x="284" y="841" on="0"/>
        <pt x="274" y="824" on="0"/>
        <pt x="271" y="808" on="0"/>
        <pt x="271" y="807" on="1"/>
        <pt x="219" y="807" on="1"/>
        <pt x="219" y="813" on="0"/>
        <pt x="228" y="847" on="0"/>
        <pt x="250" y="883" on="0"/>
        <pt x="288" y="910" on="0"/>
        <pt x="318" y="910" on="1"/>
        <pt x="339" y="910" on="0"/>
        <pt x="371" y="897" on="0"/>
        <pt x="400" y="880" on="0"/>
        <pt x="429" y="867" on="0"/>
        <pt x="447" y="867" on="1"/>
        <pt x="466" y="867" on="0"/>
        <pt x="488" y="881" on="0"/>
        <pt x="500" y="899" on="0"/>
        <pt x="503" y="914" on="0"/>
        <pt x="503" y="916" on="1"/>
        <pt x="555" y="916" on="1"/>
        <pt x="555" y="910" on="0"/>
        <pt x="546" y="877" on="0"/>
        <pt x="522" y="841" on="0"/>
        <pt x="481" y="813" on="0"/>
      </contour>
    </TTGlyph>
    <TTGlyph name="O" xMin="39" yMin="-5" xMax="708" yMax="715">
      <contour>
        <pt x="373" y="-5" on="1"/>
        <pt x="298" y="-5" on="0"/>
        <pt x="175" y="56" on="0"/>
        <pt x="87" y="157" on="0"/>
        <pt x="39" y="287" on="0"/>
        <pt x="39" y="355" on="1"/>
        <pt x="39" y="426" on="0"/>
        <pt x="90" y="556" on="0"/>
        <pt x="180" y="656" on="0"/>
        <pt x="303" y="715" on="0"/>
        <pt x="375" y="715" on="1"/>
        <pt x="450" y="715" on="0"/>
        <pt x="572" y="652" on="0"/>
        <pt x="660" y="550" on="0"/>
        <pt x="708" y="421" on="0"/>
        <pt x="708" y="354" on="1"/>
        <pt x="708" y="283" on="0"/>
        <pt x="657" y="153" on="0"/>
        <pt x="568" y="54" on="0"/>
        <pt x="445" y="-5" on="0"/>
      </contour>
      <contour>
        <pt x="130" y="355" on="1"/>
        <pt x="130" y="301" on="0"/>
        <pt x="165" y="200" on="0"/>
        <pt x="229" y="122" on="0"/>
        <pt x="319" y="76" on="0"/>
        <pt x="374" y="76" on="1"/>
        <pt x="431" y="76" on="0"/>
        <pt x="521" y="125" on="0"/>
        <pt x="584" y="204" on="0"/>
        <pt x="617" y="304" on="0"/>
        <pt x="617" y="355" on="1"/>
        <pt x="617" y="409" on="0"/>
        <pt x="582" y="510" on="0"/>
        <pt x="517" y="587" on="0"/>
        <pt x="428" y="633" on="0"/>
        <pt x="374" y="633" on="1"/>
        <pt x="317" y="633" on="0"/>
        <pt x="227" y="585" on="0"/>
        <pt x="164" y="507" on="0"/>
        <pt x="130" y="407" on="0"/>
      </contour>
    </TTGlyph>
    <TTGlyph name="O.sc" xMin="40" yMin="-4" xMax="610" yMax="554">
      <contour>
        <pt x="325" y="-4" on="1"/>
        <pt x="261" y="-4" on="0"/>
        <pt x="156" y="44" on="0"/>
        <pt x="81" y="122" on="0"/>
        <pt x="40" y="223" on="0"/>
        <pt x="40" y="276" on="1"/>
        <pt x="40" y="331" on="0"/>
        <pt x="83" y="431" on="0"/>
        <pt x="160" y="508" on="0"/>
        <pt x="264" y="554" on="0"/>
        <pt x="326" y="554" on="1"/>
        <pt x="390" y="554" on="0"/>
        <pt x="494" y="506" on="0"/>
        <pt x="569" y="427" on="0"/>
        <pt x="610" y="326" on="0"/>
        <pt x="610" y="274" on="1"/>
        <pt x="610" y="219" on="0"/>
        <pt x="567" y="119" on="0"/>
        <pt x="491" y="42" on="0"/>
        <pt x="386" y="-4" on="0"/>
      </contour>
      <contour>
        <pt x="121" y="275" on="1"/>
        <pt x="121" y="235" on="0"/>
        <pt x="150" y="160" on="0"/>
        <pt x="204" y="103" on="0"/>
        <pt x="279" y="68" on="0"/>
        <pt x="326" y="68" on="1"/>
        <pt x="373" y="68" on="0"/>
        <pt x="448" y="104" on="0"/>
        <pt x="500" y="163" on="0"/>
        <pt x="528" y="238" on="0"/>
        <pt x="528" y="276" on="1"/>
        <pt x="528" y="316" on="0"/>
        <pt x="499" y="391" on="0"/>
        <pt x="445" y="448" on="0"/>
        <pt x="370" y="482" on="0"/>
        <pt x="325" y="482" on="1"/>
        <pt x="278" y="482" on="0"/>
        <pt x="202" y="446" on="0"/>
        <pt x="149" y="387" on="0"/>
        <pt x="121" y="313" on="0"/>
      </contour>
    </TTGlyph>
    <TTGlyph name="OE" xMin="39" yMin="-5" xMax="1094" yMax="715">
      <contour>
        <pt x="1094" y="80" on="1"/>
        <pt x="1094" y="0" on="1"/>
        <pt x="620" y="0" on="1"/>
        <pt x="620" y="157" on="1"/>
        <pt x="603" y="122" on="0"/>
        <pt x="553" y="63" on="0"/>
        <pt x="489" y="20" on="0"/>
        <pt x="415" y="-5" on="0"/>
        <pt x="374" y="-5" on="1"/>
        <pt x="299" y="-5" on="0"/>
        <pt x="176" y="56" on="0"/>
        <pt x="88" y="157" on="0"/>
        <pt x="39" y="287" on="0"/>
        <pt x="39" y="355" on="1"/>
        <pt x="39" y="426" on="0"/>
        <pt x="90" y="556" on="0"/>
        <pt x="180" y="656" on="0"/>
        <pt x="303" y="715" on="0"/>
        <pt x="375" y="715" on="1"/>
        <pt x="417" y="715" on="0"/>
        <pt x="492" y="690" on="0"/>
        <pt x="554" y="646" on="0"/>
        <pt x="603" y="587" on="0"/>
        <pt x="620" y="553" on="1"/>
        <pt x="620" y="710" on="1"/>
        <pt x="1085" y="710" on="1"/>
        <pt x="1085" y="630" on="1"/>
        <pt x="710" y="630" on="1"/>
        <pt x="710" y="402" on="1"/>
        <pt x="1031" y="402" on="1"/>
        <pt x="1031" y="322" on="1"/>
        <pt x="710" y="322" on="1"/>
        <pt x="710" y="80" on="1"/>
      </contour>
      <contour>
        <pt x="374" y="76" on="1"/>
        <pt x="431" y="76" on="0"/>
        <pt x="521" y="124" on="0"/>
        <pt x="584" y="203" on="0"/>
        <pt x="617" y="304" on="0"/>
        <pt x="617" y="356" on="1"/>
        <pt x="617" y="410" on="0"/>
        <pt x="582" y="510" on="0"/>
        <pt x="517" y="588" on="0"/>
        <pt x="428" y="634" on="0"/>
        <pt x="374" y="634" on="1"/>
        <pt x="317" y="634" on="0"/>
        <pt x="227" y="586" on="0"/>
        <pt x="164" y="507" on="0"/>
        <pt x="130" y="407" on="0"/>
        <pt x="130" y="355" on="1"/>
        <pt x="130" y="301" on="0"/>
        <pt x="165" y="200" on="0"/>
        <pt x="229" y="122" on="0"/>
        <pt x="319" y="76" on="0"/>
      </contour>
    </TTGlyph>
    <TTGlyph name="Oacute" xMin="39" yMin="-5" xMax="708" yMax="916">
      <contour>
        <pt x="390" y="795" on="1"/>
        <pt x="332" y="815" on="1"/>
        <pt x="390" y="916" on="1"/>
        <pt x="478" y="916" on="1"/>
      </contour>
      <contour>
        <pt x="373" y="-5" on="1"/>
        <pt x="298" y="-5" on="0"/>
        <pt x="175" y="56" on="0"/>
        <pt x="87" y="157" on="0"/>
        <pt x="39" y="287" on="0"/>
        <pt x="39" y="355" on="1"/>
        <pt x="39" y="426" on="0"/>
        <pt x="90" y="556" on="0"/>
        <pt x="180" y="656" on="0"/>
        <pt x="303" y="715" on="0"/>
        <pt x="375" y="715" on="1"/>
        <pt x="450" y="715" on="0"/>
        <pt x="572" y="652" on="0"/>
        <pt x="660" y="550" on="0"/>
        <pt x="708" y="421" on="0"/>
        <pt x="708" y="354" on="1"/>
        <pt x="708" y="283" on="0"/>
        <pt x="657" y="153" on="0"/>
        <pt x="568" y="54" on="0"/>
        <pt x="445" y="-5" on="0"/>
      </contour>
      <contour>
        <pt x="130" y="355" on="1"/>
        <pt x="130" y="301" on="0"/>
        <pt x="165" y="200" on="0"/>
        <pt x="229" y="122" on="0"/>
        <pt x="319" y="76" on="0"/>
        <pt x="374" y="76" on="1"/>
        <pt x="431" y="76" on="0"/>
        <pt x="521" y="125" on="0"/>
        <pt x="584" y="204" on="0"/>
        <pt x="617" y="304" on="0"/>
        <pt x="617" y="355" on="1"/>
        <pt x="617" y="409" on="0"/>
        <pt x="582" y="510" on="0"/>
        <pt x="517" y="587" on="0"/>
        <pt x="428" y="633" on="0"/>
        <pt x="374" y="633" on="1"/>
        <pt x="317" y="633" on="0"/>
        <pt x="227" y="585" on="0"/>
        <pt x="164" y="507" on="0"/>
        <pt x="130" y="407" on="0"/>
      </contour>
    </TTGlyph>
    <TTGlyph name="Obreve" xMin="39" yMin="-5" xMax="708" yMax="916">
      <contour>
        <pt x="373" y="-5" on="1"/>
        <pt x="298" y="-5" on="0"/>
        <pt x="175" y="56" on="0"/>
        <pt x="87" y="157" on="0"/>
        <pt x="39" y="287" on="0"/>
        <pt x="39" y="355" on="1"/>
        <pt x="39" y="426" on="0"/>
        <pt x="90" y="556" on="0"/>
        <pt x="180" y="656" on="0"/>
        <pt x="303" y="715" on="0"/>
        <pt x="375" y="715" on="1"/>
        <pt x="450" y="715" on="0"/>
        <pt x="572" y="652" on="0"/>
        <pt x="660" y="550" on="0"/>
        <pt x="708" y="421" on="0"/>
        <pt x="708" y="354" on="1"/>
        <pt x="708" y="283" on="0"/>
        <pt x="657" y="153" on="0"/>
        <pt x="568" y="54" on="0"/>
        <pt x="445" y="-5" on="0"/>
      </contour>
      <contour>
        <pt x="130" y="355" on="1"/>
        <pt x="130" y="301" on="0"/>
        <pt x="165" y="200" on="0"/>
        <pt x="229" y="122" on="0"/>
        <pt x="319" y="76" on="0"/>
        <pt x="374" y="76" on="1"/>
        <pt x="431" y="76" on="0"/>
        <pt x="521" y="125" on="0"/>
        <pt x="584" y="204" on="0"/>
        <pt x="617" y="304" on="0"/>
        <pt x="617" y="355" on="1"/>
        <pt x="617" y="409" on="0"/>
        <pt x="582" y="510" on="0"/>
        <pt x="517" y="587" on="0"/>
        <pt x="428" y="633" on="0"/>
        <pt x="374" y="633" on="1"/>
        <pt x="317" y="633" on="0"/>
        <pt x="227" y="585" on="0"/>
        <pt x="164" y="507" on="0"/>
        <pt x="130" y="407" on="0"/>
      </contour>
      <contour>
        <pt x="375" y="848" on="1"/>
        <pt x="397" y="848" on="0"/>
        <pt x="430" y="887" on="0"/>
        <pt x="433" y="916" on="1"/>
        <pt x="483" y="916" on="1"/>
        <pt x="483" y="892" on="0"/>
        <pt x="466" y="852" on="0"/>
        <pt x="437" y="822" on="0"/>
        <pt x="398" y="805" on="0"/>
        <pt x="375" y="805" on="1"/>
        <pt x="352" y="805" on="0"/>
        <pt x="313" y="822" on="0"/>
        <pt x="284" y="852" on="0"/>
        <pt x="267" y="892" on="0"/>
        <pt x="267" y="916" on="1"/>
        <pt x="318" y="916" on="1"/>
        <pt x="318" y="889" on="0"/>
        <pt x="352" y="848" on="0"/>
      </contour>
    </TTGlyph>
    <TTGlyph name="Ocircumflex" xMin="39" yMin="-5" xMax="708" yMax="916">
      <contour>
        <pt x="242" y="826" on="1"/>
        <pt x="343" y="916" on="1"/>
        <pt x="407" y="916" on="1"/>
        <pt x="508" y="826" on="1"/>
        <pt x="460" y="802" on="1"/>
        <pt x="375" y="865" on="1"/>
        <pt x="290" y="802" on="1"/>
      </contour>
      <contour>
        <pt x="373" y="-5" on="1"/>
        <pt x="298" y="-5" on="0"/>
        <pt x="175" y="56" on="0"/>
        <pt x="87" y="157" on="0"/>
        <pt x="39" y="287" on="0"/>
        <pt x="39" y="355" on="1"/>
        <pt x="39" y="426" on="0"/>
        <pt x="90" y="556" on="0"/>
        <pt x="180" y="656" on="0"/>
        <pt x="303" y="715" on="0"/>
        <pt x="375" y="715" on="1"/>
        <pt x="450" y="715" on="0"/>
        <pt x="572" y="652" on="0"/>
        <pt x="660" y="550" on="0"/>
        <pt x="708" y="421" on="0"/>
        <pt x="708" y="354" on="1"/>
        <pt x="708" y="283" on="0"/>
        <pt x="657" y="153" on="0"/>
        <pt x="568" y="54" on="0"/>
        <pt x="445" y="-5" on="0"/>
      </contour>
      <contour>
        <pt x="130" y="355" on="1"/>
        <pt x="130" y="301" on="0"/>
        <pt x="165" y="200" on="0"/>
        <pt x="229" y="122" on="0"/>
        <pt x="319" y="76" on="0"/>
        <pt x="374" y="76" on="1"/>
        <pt x="431" y="76" on="0"/>
        <pt x="521" y="125" on="0"/>
        <pt x="584" y="204" on="0"/>
        <pt x="617" y="304" on="0"/>
        <pt x="617" y="355" on="1"/>
        <pt x="617" y="409" on="0"/>
        <pt x="582" y="510" on="0"/>
        <pt x="517" y="587" on="0"/>
        <pt x="428" y="633" on="0"/>
        <pt x="374" y="633" on="1"/>
        <pt x="317" y="633" on="0"/>
        <pt x="227" y="585" on="0"/>
        <pt x="164" y="507" on="0"/>
        <pt x="130" y="407" on="0"/>
      </contour>
    </TTGlyph>
    <TTGlyph name="Odblgrave" xMin="39" yMin="-5" xMax="708" yMax="918">
      <contour>
        <pt x="373" y="-5" on="1"/>
        <pt x="298" y="-5" on="0"/>
        <pt x="175" y="56" on="0"/>
        <pt x="87" y="157" on="0"/>
        <pt x="39" y="287" on="0"/>
        <pt x="39" y="355" on="1"/>
        <pt x="39" y="426" on="0"/>
        <pt x="90" y="556" on="0"/>
        <pt x="180" y="656" on="0"/>
        <pt x="303" y="715" on="0"/>
        <pt x="375" y="715" on="1"/>
        <pt x="450" y="715" on="0"/>
        <pt x="572" y="652" on="0"/>
        <pt x="660" y="550" on="0"/>
        <pt x="708" y="421" on="0"/>
        <pt x="708" y="354" on="1"/>
        <pt x="708" y="283" on="0"/>
        <pt x="657" y="153" on="0"/>
        <pt x="568" y="54" on="0"/>
        <pt x="445" y="-5" on="0"/>
      </contour>
      <contour>
        <pt x="130" y="355" on="1"/>
        <pt x="130" y="301" on="0"/>
        <pt x="165" y="200" on="0"/>
        <pt x="229" y="122" on="0"/>
        <pt x="319" y="76" on="0"/>
        <pt x="374" y="76" on="1"/>
        <pt x="431" y="76" on="0"/>
        <pt x="521" y="125" on="0"/>
        <pt x="584" y="204" on="0"/>
        <pt x="617" y="304" on="0"/>
        <pt x="617" y="355" on="1"/>
        <pt x="617" y="409" on="0"/>
        <pt x="582" y="510" on="0"/>
        <pt x="517" y="587" on="0"/>
        <pt x="428" y="633" on="0"/>
        <pt x="374" y="633" on="1"/>
        <pt x="317" y="633" on="0"/>
        <pt x="227" y="585" on="0"/>
        <pt x="164" y="507" on="0"/>
        <pt x="130" y="407" on="0"/>
      </contour>
      <contour>
        <pt x="342" y="918" on="1"/>
        <pt x="418" y="918" on="1"/>
        <pt x="472" y="817" on="1"/>
        <pt x="426" y="797" on="1"/>
      </contour>
      <contour>
        <pt x="206" y="918" on="1"/>
        <pt x="282" y="918" on="1"/>
        <pt x="336" y="817" on="1"/>
        <pt x="290" y="797" on="1"/>
      </contour>
    </TTGlyph>
    <TTGlyph name="Odieresis" xMin="39" yMin="-5" xMax="708" yMax="913">
      <contour>
        <pt x="257" y="811" on="1"/>
        <pt x="257" y="913" on="1"/>
        <pt x="331" y="913" on="1"/>
        <pt x="331" y="811" on="1"/>
      </contour>
      <contour>
        <pt x="419" y="811" on="1"/>
        <pt x="419" y="913" on="1"/>
        <pt x="493" y="913" on="1"/>
        <pt x="493" y="811" on="1"/>
      </contour>
      <contour>
        <pt x="373" y="-5" on="1"/>
        <pt x="298" y="-5" on="0"/>
        <pt x="175" y="56" on="0"/>
        <pt x="87" y="157" on="0"/>
        <pt x="39" y="287" on="0"/>
        <pt x="39" y="355" on="1"/>
        <pt x="39" y="426" on="0"/>
        <pt x="90" y="556" on="0"/>
        <pt x="180" y="656" on="0"/>
        <pt x="303" y="715" on="0"/>
        <pt x="375" y="715" on="1"/>
        <pt x="450" y="715" on="0"/>
        <pt x="572" y="652" on="0"/>
        <pt x="660" y="550" on="0"/>
        <pt x="708" y="421" on="0"/>
        <pt x="708" y="354" on="1"/>
        <pt x="708" y="283" on="0"/>
        <pt x="657" y="153" on="0"/>
        <pt x="568" y="54" on="0"/>
        <pt x="445" y="-5" on="0"/>
      </contour>
      <contour>
        <pt x="130" y="355" on="1"/>
        <pt x="130" y="301" on="0"/>
        <pt x="165" y="200" on="0"/>
        <pt x="229" y="122" on="0"/>
        <pt x="319" y="76" on="0"/>
        <pt x="374" y="76" on="1"/>
        <pt x="431" y="76" on="0"/>
        <pt x="521" y="125" on="0"/>
        <pt x="584" y="204" on="0"/>
        <pt x="617" y="304" on="0"/>
        <pt x="617" y="355" on="1"/>
        <pt x="617" y="409" on="0"/>
        <pt x="582" y="510" on="0"/>
        <pt x="517" y="587" on="0"/>
        <pt x="428" y="633" on="0"/>
        <pt x="374" y="633" on="1"/>
        <pt x="317" y="633" on="0"/>
        <pt x="227" y="585" on="0"/>
        <pt x="164" y="507" on="0"/>
        <pt x="130" y="407" on="0"/>
      </contour>
    </TTGlyph>
    <TTGlyph name="Odotbelow" xMin="39" yMin="-182" xMax="708" yMax="715">
      <contour>
        <pt x="373" y="-5" on="1"/>
        <pt x="298" y="-5" on="0"/>
        <pt x="175" y="56" on="0"/>
        <pt x="87" y="157" on="0"/>
        <pt x="39" y="287" on="0"/>
        <pt x="39" y="355" on="1"/>
        <pt x="39" y="426" on="0"/>
        <pt x="90" y="556" on="0"/>
        <pt x="180" y="656" on="0"/>
        <pt x="303" y="715" on="0"/>
        <pt x="375" y="715" on="1"/>
        <pt x="450" y="715" on="0"/>
        <pt x="572" y="652" on="0"/>
        <pt x="660" y="550" on="0"/>
        <pt x="708" y="421" on="0"/>
        <pt x="708" y="354" on="1"/>
        <pt x="708" y="283" on="0"/>
        <pt x="657" y="153" on="0"/>
        <pt x="568" y="54" on="0"/>
        <pt x="445" y="-5" on="0"/>
      </contour>
      <contour>
        <pt x="130" y="355" on="1"/>
        <pt x="130" y="301" on="0"/>
        <pt x="165" y="200" on="0"/>
        <pt x="229" y="122" on="0"/>
        <pt x="319" y="76" on="0"/>
        <pt x="374" y="76" on="1"/>
        <pt x="431" y="76" on="0"/>
        <pt x="521" y="125" on="0"/>
        <pt x="584" y="204" on="0"/>
        <pt x="617" y="304" on="0"/>
        <pt x="617" y="355" on="1"/>
        <pt x="617" y="409" on="0"/>
        <pt x="582" y="510" on="0"/>
        <pt x="517" y="587" on="0"/>
        <pt x="428" y="633" on="0"/>
        <pt x="374" y="633" on="1"/>
        <pt x="317" y="633" on="0"/>
        <pt x="227" y="585" on="0"/>
        <pt x="164" y="507" on="0"/>
        <pt x="130" y="407" on="0"/>
      </contour>
      <contour>
        <pt x="333" y="-182" on="1"/>
        <pt x="333" y="-76" on="1"/>
        <pt x="413" y="-76" on="1"/>
        <pt x="413" y="-182" on="1"/>
      </contour>
    </TTGlyph>
    <TTGlyph name="Ograve" xMin="39" yMin="-5" xMax="708" yMax="917">
      <contour>
        <pt x="373" y="-5" on="1"/>
        <pt x="298" y="-5" on="0"/>
        <pt x="175" y="56" on="0"/>
        <pt x="87" y="157" on="0"/>
        <pt x="39" y="287" on="0"/>
        <pt x="39" y="355" on="1"/>
        <pt x="39" y="426" on="0"/>
        <pt x="90" y="556" on="0"/>
        <pt x="180" y="656" on="0"/>
        <pt x="303" y="715" on="0"/>
        <pt x="375" y="715" on="1"/>
        <pt x="450" y="715" on="0"/>
        <pt x="572" y="652" on="0"/>
        <pt x="660" y="550" on="0"/>
        <pt x="708" y="421" on="0"/>
        <pt x="708" y="354" on="1"/>
        <pt x="708" y="283" on="0"/>
        <pt x="657" y="153" on="0"/>
        <pt x="568" y="54" on="0"/>
        <pt x="445" y="-5" on="0"/>
      </contour>
      <contour>
        <pt x="130" y="355" on="1"/>
        <pt x="130" y="301" on="0"/>
        <pt x="165" y="200" on="0"/>
        <pt x="229" y="122" on="0"/>
        <pt x="319" y="76" on="0"/>
        <pt x="374" y="76" on="1"/>
        <pt x="431" y="76" on="0"/>
        <pt x="521" y="125" on="0"/>
        <pt x="584" y="204" on="0"/>
        <pt x="617" y="304" on="0"/>
        <pt x="617" y="355" on="1"/>
        <pt x="617" y="409" on="0"/>
        <pt x="582" y="510" on="0"/>
        <pt x="517" y="587" on="0"/>
        <pt x="428" y="633" on="0"/>
        <pt x="374" y="633" on="1"/>
        <pt x="317" y="633" on="0"/>
        <pt x="227" y="585" on="0"/>
        <pt x="164" y="507" on="0"/>
        <pt x="130" y="407" on="0"/>
      </contour>
      <contour>
        <pt x="271" y="917" on="1"/>
        <pt x="358" y="917" on="1"/>
        <pt x="417" y="816" on="1"/>
        <pt x="360" y="796" on="1"/>
      </contour>
    </TTGlyph>
    <TTGlyph name="Ohungarumlaut" xMin="39" yMin="-5" xMax="708" yMax="917">
      <contour>
        <pt x="312" y="796" on="1"/>
        <pt x="266" y="816" on="1"/>
        <pt x="320" y="917" on="1"/>
        <pt x="396" y="917" on="1"/>
      </contour>
      <contour>
        <pt x="448" y="796" on="1"/>
        <pt x="402" y="816" on="1"/>
        <pt x="456" y="917" on="1"/>
        <pt x="532" y="917" on="1"/>
      </contour>
      <contour>
        <pt x="373" y="-5" on="1"/>
        <pt x="298" y="-5" on="0"/>
        <pt x="175" y="56" on="0"/>
        <pt x="87" y="157" on="0"/>
        <pt x="39" y="287" on="0"/>
        <pt x="39" y="355" on="1"/>
        <pt x="39" y="426" on="0"/>
        <pt x="90" y="556" on="0"/>
        <pt x="180" y="656" on="0"/>
        <pt x="303" y="715" on="0"/>
        <pt x="375" y="715" on="1"/>
        <pt x="450" y="715" on="0"/>
        <pt x="572" y="652" on="0"/>
        <pt x="660" y="550" on="0"/>
        <pt x="708" y="421" on="0"/>
        <pt x="708" y="354" on="1"/>
        <pt x="708" y="283" on="0"/>
        <pt x="657" y="153" on="0"/>
        <pt x="568" y="54" on="0"/>
        <pt x="445" y="-5" on="0"/>
      </contour>
      <contour>
        <pt x="130" y="355" on="1"/>
        <pt x="130" y="301" on="0"/>
        <pt x="165" y="200" on="0"/>
        <pt x="229" y="122" on="0"/>
        <pt x="319" y="76" on="0"/>
        <pt x="374" y="76" on="1"/>
        <pt x="431" y="76" on="0"/>
        <pt x="521" y="125" on="0"/>
        <pt x="584" y="204" on="0"/>
        <pt x="617" y="304" on="0"/>
        <pt x="617" y="355" on="1"/>
        <pt x="617" y="409" on="0"/>
        <pt x="582" y="510" on="0"/>
        <pt x="517" y="587" on="0"/>
        <pt x="428" y="633" on="0"/>
        <pt x="374" y="633" on="1"/>
        <pt x="317" y="633" on="0"/>
        <pt x="227" y="585" on="0"/>
        <pt x="164" y="507" on="0"/>
        <pt x="130" y="407" on="0"/>
      </contour>
    </TTGlyph>
    <TTGlyph name="Oinvertedbreve" xMin="39" yMin="-5" xMax="708" yMax="916">
      <contour>
        <pt x="373" y="-5" on="1"/>
        <pt x="298" y="-5" on="0"/>
        <pt x="175" y="56" on="0"/>
        <pt x="87" y="157" on="0"/>
        <pt x="39" y="287" on="0"/>
        <pt x="39" y="355" on="1"/>
        <pt x="39" y="426" on="0"/>
        <pt x="90" y="556" on="0"/>
        <pt x="180" y="656" on="0"/>
        <pt x="303" y="715" on="0"/>
        <pt x="375" y="715" on="1"/>
        <pt x="450" y="715" on="0"/>
        <pt x="572" y="652" on="0"/>
        <pt x="660" y="550" on="0"/>
        <pt x="708" y="421" on="0"/>
        <pt x="708" y="354" on="1"/>
        <pt x="708" y="283" on="0"/>
        <pt x="657" y="153" on="0"/>
        <pt x="568" y="54" on="0"/>
        <pt x="445" y="-5" on="0"/>
      </contour>
      <contour>
        <pt x="130" y="355" on="1"/>
        <pt x="130" y="301" on="0"/>
        <pt x="165" y="200" on="0"/>
        <pt x="229" y="122" on="0"/>
        <pt x="319" y="76" on="0"/>
        <pt x="374" y="76" on="1"/>
        <pt x="431" y="76" on="0"/>
        <pt x="521" y="125" on="0"/>
        <pt x="584" y="204" on="0"/>
        <pt x="617" y="304" on="0"/>
        <pt x="617" y="355" on="1"/>
        <pt x="617" y="409" on="0"/>
        <pt x="582" y="510" on="0"/>
        <pt x="517" y="587" on="0"/>
        <pt x="428" y="633" on="0"/>
        <pt x="374" y="633" on="1"/>
        <pt x="317" y="633" on="0"/>
        <pt x="227" y="585" on="0"/>
        <pt x="164" y="507" on="0"/>
        <pt x="130" y="407" on="0"/>
      </contour>
      <contour>
        <pt x="375" y="873" on="1"/>
        <pt x="352" y="873" on="0"/>
        <pt x="318" y="832" on="0"/>
        <pt x="318" y="805" on="1"/>
        <pt x="267" y="805" on="1"/>
        <pt x="267" y="829" on="0"/>
        <pt x="284" y="869" on="0"/>
        <pt x="313" y="899" on="0"/>
        <pt x="352" y="916" on="0"/>
        <pt x="375" y="916" on="1"/>
        <pt x="398" y="916" on="0"/>
        <pt x="437" y="899" on="0"/>
        <pt x="466" y="869" on="0"/>
        <pt x="483" y="829" on="0"/>
        <pt x="483" y="805" on="1"/>
        <pt x="433" y="805" on="1"/>
        <pt x="430" y="834" on="0"/>
        <pt x="397" y="873" on="0"/>
      </contour>
    </TTGlyph>
    <TTGlyph name="Omacron" xMin="39" yMin="-5" xMax="708" yMax="898">
      <contour>
        <pt x="230" y="840" on="1"/>
        <pt x="230" y="898" on="1"/>
        <pt x="522" y="898" on="1"/>
        <pt x="522" y="840" on="1"/>
      </contour>
      <contour>
        <pt x="373" y="-5" on="1"/>
        <pt x="298" y="-5" on="0"/>
        <pt x="175" y="56" on="0"/>
        <pt x="87" y="157" on="0"/>
        <pt x="39" y="287" on="0"/>
        <pt x="39" y="355" on="1"/>
        <pt x="39" y="426" on="0"/>
        <pt x="90" y="556" on="0"/>
        <pt x="180" y="656" on="0"/>
        <pt x="303" y="715" on="0"/>
        <pt x="375" y="715" on="1"/>
        <pt x="450" y="715" on="0"/>
        <pt x="572" y="652" on="0"/>
        <pt x="660" y="550" on="0"/>
        <pt x="708" y="421" on="0"/>
        <pt x="708" y="354" on="1"/>
        <pt x="708" y="283" on="0"/>
        <pt x="657" y="153" on="0"/>
        <pt x="568" y="54" on="0"/>
        <pt x="445" y="-5" on="0"/>
      </contour>
      <contour>
        <pt x="130" y="355" on="1"/>
        <pt x="130" y="301" on="0"/>
        <pt x="165" y="200" on="0"/>
        <pt x="229" y="122" on="0"/>
        <pt x="319" y="76" on="0"/>
        <pt x="374" y="76" on="1"/>
        <pt x="431" y="76" on="0"/>
        <pt x="521" y="125" on="0"/>
        <pt x="584" y="204" on="0"/>
        <pt x="617" y="304" on="0"/>
        <pt x="617" y="355" on="1"/>
        <pt x="617" y="409" on="0"/>
        <pt x="582" y="510" on="0"/>
        <pt x="517" y="587" on="0"/>
        <pt x="428" y="633" on="0"/>
        <pt x="374" y="633" on="1"/>
        <pt x="317" y="633" on="0"/>
        <pt x="227" y="585" on="0"/>
        <pt x="164" y="507" on="0"/>
        <pt x="130" y="407" on="0"/>
      </contour>
    </TTGlyph>
    <TTGlyph name="Omega" xMin="44" yMin="0" xMax="716" yMax="715">
      <contour>
        <pt x="44" y="79" on="1"/>
        <pt x="223" y="79" on="1"/>
        <pt x="145" y="123" on="0"/>
        <pt x="54" y="272" on="0"/>
        <pt x="54" y="365" on="1"/>
        <pt x="54" y="434" on="0"/>
        <pt x="104" y="561" on="0"/>
        <pt x="191" y="657" on="0"/>
        <pt x="310" y="715" on="0"/>
        <pt x="380" y="715" on="1"/>
        <pt x="450" y="715" on="0"/>
        <pt x="569" y="657" on="0"/>
        <pt x="656" y="561" on="0"/>
        <pt x="706" y="434" on="0"/>
        <pt x="706" y="365" on="1"/>
        <pt x="706" y="272" on="0"/>
        <pt x="615" y="123" on="0"/>
        <pt x="537" y="79" on="1"/>
        <pt x="716" y="79" on="1"/>
        <pt x="716" y="0" on="1"/>
        <pt x="427" y="0" on="1"/>
        <pt x="427" y="79" on="1"/>
        <pt x="470" y="93" on="0"/>
        <pt x="540" y="152" on="0"/>
        <pt x="589" y="230" on="0"/>
        <pt x="615" y="320" on="0"/>
        <pt x="615" y="365" on="1"/>
        <pt x="615" y="415" on="0"/>
        <pt x="582" y="511" on="0"/>
        <pt x="521" y="587" on="0"/>
        <pt x="434" y="633" on="0"/>
        <pt x="380" y="633" on="1"/>
        <pt x="326" y="633" on="0"/>
        <pt x="239" y="587" on="0"/>
        <pt x="178" y="511" on="0"/>
        <pt x="145" y="415" on="0"/>
        <pt x="145" y="365" on="1"/>
        <pt x="145" y="320" on="0"/>
        <pt x="171" y="230" on="0"/>
        <pt x="220" y="152" on="0"/>
        <pt x="290" y="93" on="0"/>
        <pt x="333" y="79" on="1"/>
        <pt x="333" y="0" on="1"/>
        <pt x="44" y="0" on="1"/>
      </contour>
    </TTGlyph>
    <TTGlyph name="Oogonek" xMin="39" yMin="-183" xMax="708" yMax="715">
      <contour>
        <pt x="349" y="-183" on="1"/>
        <pt x="307" y="-175" on="0"/>
        <pt x="265" y="-134" on="0"/>
        <pt x="265" y="-106" on="1"/>
        <pt x="265" y="-80" on="0"/>
        <pt x="301" y="-29" on="0"/>
        <pt x="340" y="-3" on="1"/>
        <pt x="272" y="4" on="0"/>
        <pt x="161" y="69" on="0"/>
        <pt x="82" y="168" on="0"/>
        <pt x="39" y="290" on="0"/>
        <pt x="39" y="355" on="1"/>
        <pt x="39" y="426" on="0"/>
        <pt x="90" y="556" on="0"/>
        <pt x="180" y="656" on="0"/>
        <pt x="303" y="715" on="0"/>
        <pt x="375" y="715" on="1"/>
        <pt x="450" y="715" on="0"/>
        <pt x="572" y="652" on="0"/>
        <pt x="660" y="550" on="0"/>
        <pt x="708" y="421" on="0"/>
        <pt x="708" y="354" on="1"/>
        <pt x="708" y="286" on="0"/>
        <pt x="661" y="160" on="0"/>
        <pt x="577" y="62" on="0"/>
        <pt x="462" y="0" on="0"/>
        <pt x="394" y="-4" on="1"/>
        <pt x="352" y="-30" on="0"/>
        <pt x="316" y="-72" on="0"/>
        <pt x="316" y="-94" on="1"/>
        <pt x="316" y="-131" on="0"/>
        <pt x="371" y="-137" on="1"/>
      </contour>
      <contour>
        <pt x="130" y="355" on="1"/>
        <pt x="130" y="301" on="0"/>
        <pt x="165" y="200" on="0"/>
        <pt x="229" y="122" on="0"/>
        <pt x="319" y="76" on="0"/>
        <pt x="374" y="76" on="1"/>
        <pt x="431" y="76" on="0"/>
        <pt x="521" y="125" on="0"/>
        <pt x="584" y="204" on="0"/>
        <pt x="617" y="304" on="0"/>
        <pt x="617" y="355" on="1"/>
        <pt x="617" y="409" on="0"/>
        <pt x="582" y="510" on="0"/>
        <pt x="517" y="587" on="0"/>
        <pt x="428" y="633" on="0"/>
        <pt x="374" y="633" on="1"/>
        <pt x="317" y="633" on="0"/>
        <pt x="227" y="585" on="0"/>
        <pt x="164" y="507" on="0"/>
        <pt x="130" y="407" on="0"/>
      </contour>
    </TTGlyph>
    <TTGlyph name="Oslash" xMin="39" yMin="-5" xMax="708" yMax="715">
      <contour>
        <pt x="663" y="710" on="1"/>
        <pt x="601" y="618" on="1"/>
        <pt x="652" y="565" on="0"/>
        <pt x="708" y="426" on="0"/>
        <pt x="708" y="354" on="1"/>
        <pt x="708" y="283" on="0"/>
        <pt x="657" y="153" on="0"/>
        <pt x="568" y="54" on="0"/>
        <pt x="445" y="-5" on="0"/>
        <pt x="373" y="-5" on="1"/>
        <pt x="327" y="-5" on="0"/>
        <pt x="245" y="18" on="0"/>
        <pt x="210" y="40" on="1"/>
        <pt x="183" y="0" on="1"/>
        <pt x="85" y="0" on="1"/>
        <pt x="146" y="91" on="1"/>
        <pt x="95" y="142" on="0"/>
        <pt x="39" y="280" on="0"/>
        <pt x="39" y="355" on="1"/>
        <pt x="39" y="426" on="0"/>
        <pt x="90" y="556" on="0"/>
        <pt x="180" y="656" on="0"/>
        <pt x="303" y="715" on="0"/>
        <pt x="375" y="715" on="1"/>
        <pt x="420" y="715" on="0"/>
        <pt x="501" y="691" on="0"/>
        <pt x="536" y="669" on="1"/>
        <pt x="564" y="710" on="1"/>
      </contour>
      <contour>
        <pt x="617" y="355" on="1"/>
        <pt x="617" y="409" on="0"/>
        <pt x="583" y="507" on="0"/>
        <pt x="552" y="545" on="1"/>
        <pt x="256" y="109" on="1"/>
        <pt x="309" y="76" on="0"/>
        <pt x="374" y="76" on="1"/>
        <pt x="431" y="76" on="0"/>
        <pt x="521" y="125" on="0"/>
        <pt x="584" y="204" on="0"/>
        <pt x="617" y="304" on="0"/>
      </contour>
      <contour>
        <pt x="130" y="355" on="1"/>
        <pt x="130" y="301" on="0"/>
        <pt x="163" y="201" on="0"/>
        <pt x="195" y="163" on="1"/>
        <pt x="490" y="600" on="1"/>
        <pt x="437" y="633" on="0"/>
        <pt x="374" y="633" on="1"/>
        <pt x="317" y="633" on="0"/>
        <pt x="227" y="585" on="0"/>
        <pt x="164" y="507" on="0"/>
        <pt x="130" y="407" on="0"/>
      </contour>
    </TTGlyph>
    <TTGlyph name="Oslashacute" xMin="39" yMin="-5" xMax="708" yMax="916">
      <contour>
        <pt x="663" y="710" on="1"/>
        <pt x="601" y="618" on="1"/>
        <pt x="652" y="565" on="0"/>
        <pt x="708" y="426" on="0"/>
        <pt x="708" y="354" on="1"/>
        <pt x="708" y="283" on="0"/>
        <pt x="657" y="153" on="0"/>
        <pt x="568" y="54" on="0"/>
        <pt x="445" y="-5" on="0"/>
        <pt x="373" y="-5" on="1"/>
        <pt x="327" y="-5" on="0"/>
        <pt x="245" y="18" on="0"/>
        <pt x="210" y="40" on="1"/>
        <pt x="183" y="0" on="1"/>
        <pt x="85" y="0" on="1"/>
        <pt x="146" y="91" on="1"/>
        <pt x="95" y="142" on="0"/>
        <pt x="39" y="280" on="0"/>
        <pt x="39" y="355" on="1"/>
        <pt x="39" y="426" on="0"/>
        <pt x="90" y="556" on="0"/>
        <pt x="180" y="656" on="0"/>
        <pt x="303" y="715" on="0"/>
        <pt x="375" y="715" on="1"/>
        <pt x="420" y="715" on="0"/>
        <pt x="501" y="691" on="0"/>
        <pt x="536" y="669" on="1"/>
        <pt x="564" y="710" on="1"/>
      </contour>
      <contour>
        <pt x="617" y="355" on="1"/>
        <pt x="617" y="409" on="0"/>
        <pt x="583" y="507" on="0"/>
        <pt x="552" y="545" on="1"/>
        <pt x="256" y="109" on="1"/>
        <pt x="309" y="76" on="0"/>
        <pt x="374" y="76" on="1"/>
        <pt x="431" y="76" on="0"/>
        <pt x="521" y="125" on="0"/>
        <pt x="584" y="204" on="0"/>
        <pt x="617" y="304" on="0"/>
      </contour>
      <contour>
        <pt x="130" y="355" on="1"/>
        <pt x="130" y="301" on="0"/>
        <pt x="163" y="201" on="0"/>
        <pt x="195" y="163" on="1"/>
        <pt x="490" y="600" on="1"/>
        <pt x="437" y="633" on="0"/>
        <pt x="374" y="633" on="1"/>
        <pt x="317" y="633" on="0"/>
        <pt x="227" y="585" on="0"/>
        <pt x="164" y="507" on="0"/>
        <pt x="130" y="407" on="0"/>
      </contour>
      <contour>
        <pt x="390" y="795" on="1"/>
        <pt x="332" y="815" on="1"/>
        <pt x="390" y="916" on="1"/>
        <pt x="478" y="916" on="1"/>
      </contour>
    </TTGlyph>
    <TTGlyph name="Otilde" xMin="39" yMin="-5" xMax="708" yMax="916">
      <contour>
        <pt x="373" y="-5" on="1"/>
        <pt x="298" y="-5" on="0"/>
        <pt x="175" y="56" on="0"/>
        <pt x="87" y="157" on="0"/>
        <pt x="39" y="287" on="0"/>
        <pt x="39" y="355" on="1"/>
        <pt x="39" y="426" on="0"/>
        <pt x="90" y="556" on="0"/>
        <pt x="180" y="656" on="0"/>
        <pt x="303" y="715" on="0"/>
        <pt x="375" y="715" on="1"/>
        <pt x="450" y="715" on="0"/>
        <pt x="572" y="652" on="0"/>
        <pt x="660" y="550" on="0"/>
        <pt x="708" y="421" on="0"/>
        <pt x="708" y="354" on="1"/>
        <pt x="708" y="283" on="0"/>
        <pt x="657" y="153" on="0"/>
        <pt x="568" y="54" on="0"/>
        <pt x="445" y="-5" on="0"/>
      </contour>
      <contour>
        <pt x="130" y="355" on="1"/>
        <pt x="130" y="301" on="0"/>
        <pt x="165" y="200" on="0"/>
        <pt x="229" y="122" on="0"/>
        <pt x="319" y="76" on="0"/>
        <pt x="374" y="76" on="1"/>
        <pt x="431" y="76" on="0"/>
        <pt x="521" y="125" on="0"/>
        <pt x="584" y="204" on="0"/>
        <pt x="617" y="304" on="0"/>
        <pt x="617" y="355" on="1"/>
        <pt x="617" y="409" on="0"/>
        <pt x="582" y="510" on="0"/>
        <pt x="517" y="587" on="0"/>
        <pt x="428" y="633" on="0"/>
        <pt x="374" y="633" on="1"/>
        <pt x="317" y="633" on="0"/>
        <pt x="227" y="585" on="0"/>
        <pt x="164" y="507" on="0"/>
        <pt x="130" y="407" on="0"/>
      </contour>
      <contour>
        <pt x="437" y="813" on="1"/>
        <pt x="414" y="813" on="0"/>
        <pt x="381" y="826" on="0"/>
        <pt x="352" y="842" on="0"/>
        <pt x="324" y="855" on="0"/>
        <pt x="308" y="855" on="1"/>
        <pt x="291" y="855" on="0"/>
        <pt x="272" y="841" on="0"/>
        <pt x="262" y="824" on="0"/>
        <pt x="259" y="808" on="0"/>
        <pt x="259" y="807" on="1"/>
        <pt x="207" y="807" on="1"/>
        <pt x="207" y="813" on="0"/>
        <pt x="216" y="847" on="0"/>
        <pt x="238" y="883" on="0"/>
        <pt x="276" y="910" on="0"/>
        <pt x="306" y="910" on="1"/>
        <pt x="327" y="910" on="0"/>
        <pt x="359" y="897" on="0"/>
        <pt x="388" y="880" on="0"/>
        <pt x="417" y="867" on="0"/>
        <pt x="435" y="867" on="1"/>
        <pt x="454" y="867" on="0"/>
        <pt x="476" y="881" on="0"/>
        <pt x="488" y="899" on="0"/>
        <pt x="491" y="914" on="0"/>
        <pt x="491" y="916" on="1"/>
        <pt x="543" y="916" on="1"/>
        <pt x="543" y="910" on="0"/>
        <pt x="534" y="877" on="0"/>
        <pt x="510" y="841" on="0"/>
        <pt x="469" y="813" on="0"/>
      </contour>
    </TTGlyph>
    <TTGlyph name="P" xMin="85" yMin="0" xMax="596" yMax="710">
      <contour>
        <pt x="85" y="0" on="1"/>
        <pt x="85" y="710" on="1"/>
        <pt x="381" y="710" on="1"/>
        <pt x="428" y="710" on="0"/>
        <pt x="507" y="671" on="0"/>
        <pt x="564" y="606" on="0"/>
        <pt x="596" y="525" on="0"/>
        <pt x="596" y="483" on="1"/>
        <pt x="596" y="439" on="0"/>
        <pt x="566" y="357" on="0"/>
        <pt x="511" y="293" on="0"/>
        <pt x="434" y="255" on="0"/>
        <pt x="387" y="255" on="1"/>
        <pt x="175" y="255" on="1"/>
        <pt x="175" y="0" on="1"/>
      </contour>
      <contour>
        <pt x="175" y="335" on="1"/>
        <pt x="382" y="335" on="1"/>
        <pt x="410" y="335" on="0"/>
        <pt x="455" y="358" on="0"/>
        <pt x="487" y="399" on="0"/>
        <pt x="505" y="453" on="0"/>
        <pt x="505" y="483" on="1"/>
        <pt x="505" y="514" on="0"/>
        <pt x="484" y="568" on="0"/>
        <pt x="449" y="608" on="0"/>
        <pt x="402" y="630" on="0"/>
        <pt x="376" y="630" on="1"/>
        <pt x="175" y="630" on="1"/>
      </contour>
    </TTGlyph>
    <TTGlyph name="P.sc" xMin="79" yMin="0" xMax="516" yMax="551">
      <contour>
        <pt x="79" y="0" on="1"/>
        <pt x="79" y="551" on="1"/>
        <pt x="331" y="551" on="1"/>
        <pt x="371" y="551" on="0"/>
        <pt x="439" y="520" on="0"/>
        <pt x="489" y="469" on="0"/>
        <pt x="516" y="406" on="0"/>
        <pt x="516" y="373" on="1"/>
        <pt x="516" y="338" on="0"/>
        <pt x="490" y="274" on="0"/>
        <pt x="443" y="224" on="0"/>
        <pt x="377" y="194" on="0"/>
        <pt x="337" y="194" on="1"/>
        <pt x="159" y="194" on="1"/>
        <pt x="159" y="0" on="1"/>
      </contour>
      <contour>
        <pt x="159" y="265" on="1"/>
        <pt x="332" y="265" on="1"/>
        <pt x="379" y="265" on="0"/>
        <pt x="435" y="327" on="0"/>
        <pt x="435" y="373" on="1"/>
        <pt x="435" y="396" on="0"/>
        <pt x="418" y="435" on="0"/>
        <pt x="388" y="464" on="0"/>
        <pt x="349" y="480" on="0"/>
        <pt x="327" y="480" on="1"/>
        <pt x="159" y="480" on="1"/>
      </contour>
    </TTGlyph>
    <TTGlyph name="Q" xMin="39" yMin="-5" xMax="708" yMax="715">
      <contour>
        <pt x="563" y="58" on="1"/>
        <pt x="523" y="29" on="0"/>
        <pt x="427" y="-5" on="0"/>
        <pt x="373" y="-5" on="1"/>
        <pt x="298" y="-5" on="0"/>
        <pt x="175" y="57" on="0"/>
        <pt x="87" y="157" on="0"/>
        <pt x="39" y="287" on="0"/>
        <pt x="39" y="355" on="1"/>
        <pt x="39" y="426" on="0"/>
        <pt x="90" y="556" on="0"/>
        <pt x="180" y="656" on="0"/>
        <pt x="303" y="715" on="0"/>
        <pt x="375" y="715" on="1"/>
        <pt x="450" y="715" on="0"/>
        <pt x="572" y="652" on="0"/>
        <pt x="660" y="550" on="0"/>
        <pt x="708" y="421" on="0"/>
        <pt x="708" y="354" on="1"/>
        <pt x="708" y="282" on="0"/>
        <pt x="657" y="153" on="0"/>
        <pt x="612" y="103" on="1"/>
        <pt x="701" y="0" on="1"/>
        <pt x="613" y="0" on="1"/>
      </contour>
      <contour>
        <pt x="374" y="76" on="1"/>
        <pt x="413" y="76" on="0"/>
        <pt x="481" y="100" on="0"/>
        <pt x="509" y="121" on="1"/>
        <pt x="414" y="232" on="1"/>
        <pt x="502" y="232" on="1"/>
        <pt x="556" y="169" on="1"/>
        <pt x="585" y="208" on="0"/>
        <pt x="617" y="304" on="0"/>
        <pt x="617" y="355" on="1"/>
        <pt x="617" y="409" on="0"/>
        <pt x="582" y="510" on="0"/>
        <pt x="517" y="588" on="0"/>
        <pt x="428" y="634" on="0"/>
        <pt x="374" y="634" on="1"/>
        <pt x="317" y="634" on="0"/>
        <pt x="227" y="586" on="0"/>
        <pt x="164" y="507" on="0"/>
        <pt x="130" y="407" on="0"/>
        <pt x="130" y="355" on="1"/>
        <pt x="130" y="301" on="0"/>
        <pt x="165" y="200" on="0"/>
        <pt x="229" y="122" on="0"/>
        <pt x="319" y="76" on="0"/>
      </contour>
    </TTGlyph>
    <TTGlyph name="Q.sc" xMin="40" yMin="-4" xMax="610" yMax="555">
      <contour>
        <pt x="486" y="45" on="1"/>
        <pt x="452" y="22" on="0"/>
        <pt x="371" y="-4" on="0"/>
        <pt x="325" y="-4" on="1"/>
        <pt x="261" y="-4" on="0"/>
        <pt x="156" y="44" on="0"/>
        <pt x="81" y="122" on="0"/>
        <pt x="40" y="223" on="0"/>
        <pt x="40" y="276" on="1"/>
        <pt x="40" y="331" on="0"/>
        <pt x="83" y="432" on="0"/>
        <pt x="160" y="509" on="0"/>
        <pt x="264" y="555" on="0"/>
        <pt x="326" y="555" on="1"/>
        <pt x="390" y="555" on="0"/>
        <pt x="494" y="506" on="0"/>
        <pt x="569" y="427" on="0"/>
        <pt x="610" y="326" on="0"/>
        <pt x="610" y="274" on="1"/>
        <pt x="610" y="220" on="0"/>
        <pt x="568" y="120" on="0"/>
        <pt x="530" y="82" on="1"/>
        <pt x="606" y="0" on="1"/>
        <pt x="528" y="0" on="1"/>
      </contour>
      <contour>
        <pt x="326" y="68" on="1"/>
        <pt x="358" y="68" on="0"/>
        <pt x="412" y="85" on="0"/>
        <pt x="435" y="100" on="1"/>
        <pt x="355" y="187" on="1"/>
        <pt x="434" y="187" on="1"/>
        <pt x="478" y="138" on="1"/>
        <pt x="502" y="167" on="0"/>
        <pt x="528" y="239" on="0"/>
        <pt x="528" y="276" on="1"/>
        <pt x="528" y="316" on="0"/>
        <pt x="499" y="391" on="0"/>
        <pt x="445" y="448" on="0"/>
        <pt x="370" y="483" on="0"/>
        <pt x="325" y="483" on="1"/>
        <pt x="278" y="483" on="0"/>
        <pt x="202" y="447" on="0"/>
        <pt x="149" y="388" on="0"/>
        <pt x="121" y="313" on="0"/>
        <pt x="121" y="275" on="1"/>
        <pt x="121" y="235" on="0"/>
        <pt x="150" y="160" on="0"/>
        <pt x="204" y="103" on="0"/>
        <pt x="279" y="68" on="0"/>
      </contour>
    </TTGlyph>
    <TTGlyph name="R" xMin="85" yMin="0" xMax="627" yMax="710">
      <contour>
        <pt x="85" y="0" on="1"/>
        <pt x="85" y="710" on="1"/>
        <pt x="389" y="710" on="1"/>
        <pt x="436" y="710" on="0"/>
        <pt x="515" y="671" on="0"/>
        <pt x="572" y="606" on="0"/>
        <pt x="604" y="525" on="0"/>
        <pt x="604" y="483" on="1"/>
        <pt x="604" y="446" on="0"/>
        <pt x="583" y="377" on="0"/>
        <pt x="544" y="321" on="0"/>
        <pt x="489" y="281" on="0"/>
        <pt x="455" y="272" on="1"/>
        <pt x="627" y="0" on="1"/>
        <pt x="525" y="0" on="1"/>
        <pt x="363" y="255" on="1"/>
        <pt x="175" y="255" on="1"/>
        <pt x="175" y="0" on="1"/>
      </contour>
      <contour>
        <pt x="175" y="335" on="1"/>
        <pt x="390" y="335" on="1"/>
        <pt x="418" y="335" on="0"/>
        <pt x="463" y="359" on="0"/>
        <pt x="495" y="400" on="0"/>
        <pt x="513" y="454" on="0"/>
        <pt x="513" y="483" on="1"/>
        <pt x="513" y="513" on="0"/>
        <pt x="492" y="566" on="0"/>
        <pt x="457" y="607" on="0"/>
        <pt x="410" y="630" on="0"/>
        <pt x="384" y="630" on="1"/>
        <pt x="175" y="630" on="1"/>
      </contour>
    </TTGlyph>
    <TTGlyph name="R.sc" xMin="79" yMin="0" xMax="544" yMax="551">
      <contour>
        <pt x="79" y="0" on="1"/>
        <pt x="79" y="551" on="1"/>
        <pt x="339" y="551" on="1"/>
        <pt x="379" y="551" on="0"/>
        <pt x="447" y="520" on="0"/>
        <pt x="496" y="469" on="0"/>
        <pt x="523" y="406" on="0"/>
        <pt x="523" y="373" on="1"/>
        <pt x="523" y="345" on="0"/>
        <pt x="505" y="293" on="0"/>
        <pt x="472" y="249" on="0"/>
        <pt x="426" y="217" on="0"/>
        <pt x="398" y="210" on="1"/>
        <pt x="544" y="0" on="1"/>
        <pt x="452" y="0" on="1"/>
        <pt x="316" y="194" on="1"/>
        <pt x="159" y="194" on="1"/>
        <pt x="159" y="0" on="1"/>
      </contour>
      <contour>
        <pt x="159" y="265" on="1"/>
        <pt x="339" y="265" on="1"/>
        <pt x="362" y="265" on="0"/>
        <pt x="400" y="282" on="0"/>
        <pt x="427" y="312" on="0"/>
        <pt x="442" y="351" on="0"/>
        <pt x="442" y="373" on="1"/>
        <pt x="442" y="395" on="0"/>
        <pt x="425" y="434" on="0"/>
        <pt x="395" y="463" on="0"/>
        <pt x="356" y="480" on="0"/>
        <pt x="334" y="480" on="1"/>
        <pt x="159" y="480" on="1"/>
      </contour>
    </TTGlyph>
    <TTGlyph name="Racute" xMin="85" yMin="0" xMax="627" yMax="918">
      <contour>
        <pt x="334" y="797" on="1"/>
        <pt x="276" y="817" on="1"/>
        <pt x="334" y="918" on="1"/>
        <pt x="422" y="918" on="1"/>
      </contour>
      <contour>
        <pt x="85" y="0" on="1"/>
        <pt x="85" y="710" on="1"/>
        <pt x="389" y="710" on="1"/>
        <pt x="436" y="710" on="0"/>
        <pt x="515" y="671" on="0"/>
        <pt x="572" y="606" on="0"/>
        <pt x="604" y="525" on="0"/>
        <pt x="604" y="483" on="1"/>
        <pt x="604" y="446" on="0"/>
        <pt x="583" y="377" on="0"/>
        <pt x="544" y="321" on="0"/>
        <pt x="489" y="281" on="0"/>
        <pt x="455" y="272" on="1"/>
        <pt x="627" y="0" on="1"/>
        <pt x="525" y="0" on="1"/>
        <pt x="363" y="255" on="1"/>
        <pt x="175" y="255" on="1"/>
        <pt x="175" y="0" on="1"/>
      </contour>
      <contour>
        <pt x="175" y="335" on="1"/>
        <pt x="390" y="335" on="1"/>
        <pt x="418" y="335" on="0"/>
        <pt x="463" y="359" on="0"/>
        <pt x="495" y="400" on="0"/>
        <pt x="513" y="454" on="0"/>
        <pt x="513" y="483" on="1"/>
        <pt x="513" y="513" on="0"/>
        <pt x="492" y="566" on="0"/>
        <pt x="457" y="607" on="0"/>
        <pt x="410" y="630" on="0"/>
        <pt x="384" y="630" on="1"/>
        <pt x="175" y="630" on="1"/>
      </contour>
    </TTGlyph>
    <TTGlyph name="Rcaron" xMin="85" yMin="0" xMax="627" yMax="918">
      <contour>
        <pt x="233" y="918" on="1"/>
        <pt x="318" y="855" on="1"/>
        <pt x="403" y="918" on="1"/>
        <pt x="451" y="894" on="1"/>
        <pt x="350" y="804" on="1"/>
        <pt x="286" y="804" on="1"/>
        <pt x="185" y="894" on="1"/>
      </contour>
      <contour>
        <pt x="85" y="0" on="1"/>
        <pt x="85" y="710" on="1"/>
        <pt x="389" y="710" on="1"/>
        <pt x="436" y="710" on="0"/>
        <pt x="515" y="671" on="0"/>
        <pt x="572" y="606" on="0"/>
        <pt x="604" y="525" on="0"/>
        <pt x="604" y="483" on="1"/>
        <pt x="604" y="446" on="0"/>
        <pt x="583" y="377" on="0"/>
        <pt x="544" y="321" on="0"/>
        <pt x="489" y="281" on="0"/>
        <pt x="455" y="272" on="1"/>
        <pt x="627" y="0" on="1"/>
        <pt x="525" y="0" on="1"/>
        <pt x="363" y="255" on="1"/>
        <pt x="175" y="255" on="1"/>
        <pt x="175" y="0" on="1"/>
      </contour>
      <contour>
        <pt x="175" y="335" on="1"/>
        <pt x="390" y="335" on="1"/>
        <pt x="418" y="335" on="0"/>
        <pt x="463" y="359" on="0"/>
        <pt x="495" y="400" on="0"/>
        <pt x="513" y="454" on="0"/>
        <pt x="513" y="483" on="1"/>
        <pt x="513" y="513" on="0"/>
        <pt x="492" y="566" on="0"/>
        <pt x="457" y="607" on="0"/>
        <pt x="410" y="630" on="0"/>
        <pt x="384" y="630" on="1"/>
        <pt x="175" y="630" on="1"/>
      </contour>
    </TTGlyph>
    <TTGlyph name="Rcommaaccent" xMin="85" yMin="-213" xMax="627" yMax="710">
      <contour>
        <pt x="295" y="-213" on="1"/>
        <pt x="315" y="-132" on="1"/>
        <pt x="290" y="-132" on="1"/>
        <pt x="290" y="-48" on="1"/>
        <pt x="368" y="-48" on="1"/>
        <pt x="368" y="-132" on="1"/>
        <pt x="338" y="-213" on="1"/>
      </contour>
      <contour>
        <pt x="85" y="0" on="1"/>
        <pt x="85" y="710" on="1"/>
        <pt x="389" y="710" on="1"/>
        <pt x="436" y="710" on="0"/>
        <pt x="515" y="671" on="0"/>
        <pt x="572" y="606" on="0"/>
        <pt x="604" y="525" on="0"/>
        <pt x="604" y="483" on="1"/>
        <pt x="604" y="446" on="0"/>
        <pt x="583" y="377" on="0"/>
        <pt x="544" y="321" on="0"/>
        <pt x="489" y="281" on="0"/>
        <pt x="455" y="272" on="1"/>
        <pt x="627" y="0" on="1"/>
        <pt x="525" y="0" on="1"/>
        <pt x="363" y="255" on="1"/>
        <pt x="175" y="255" on="1"/>
        <pt x="175" y="0" on="1"/>
      </contour>
      <contour>
        <pt x="175" y="335" on="1"/>
        <pt x="390" y="335" on="1"/>
        <pt x="418" y="335" on="0"/>
        <pt x="463" y="359" on="0"/>
        <pt x="495" y="400" on="0"/>
        <pt x="513" y="454" on="0"/>
        <pt x="513" y="483" on="1"/>
        <pt x="513" y="513" on="0"/>
        <pt x="492" y="566" on="0"/>
        <pt x="457" y="607" on="0"/>
        <pt x="410" y="630" on="0"/>
        <pt x="384" y="630" on="1"/>
        <pt x="175" y="630" on="1"/>
      </contour>
    </TTGlyph>
    <TTGlyph name="Rdblgrave" xMin="85" yMin="0" xMax="627" yMax="918">
      <contour>
        <pt x="85" y="0" on="1"/>
        <pt x="85" y="710" on="1"/>
        <pt x="389" y="710" on="1"/>
        <pt x="436" y="710" on="0"/>
        <pt x="515" y="671" on="0"/>
        <pt x="572" y="606" on="0"/>
        <pt x="604" y="525" on="0"/>
        <pt x="604" y="483" on="1"/>
        <pt x="604" y="446" on="0"/>
        <pt x="583" y="377" on="0"/>
        <pt x="544" y="321" on="0"/>
        <pt x="489" y="281" on="0"/>
        <pt x="455" y="272" on="1"/>
        <pt x="627" y="0" on="1"/>
        <pt x="525" y="0" on="1"/>
        <pt x="363" y="255" on="1"/>
        <pt x="175" y="255" on="1"/>
        <pt x="175" y="0" on="1"/>
      </contour>
      <contour>
        <pt x="175" y="335" on="1"/>
        <pt x="390" y="335" on="1"/>
        <pt x="418" y="335" on="0"/>
        <pt x="463" y="359" on="0"/>
        <pt x="495" y="400" on="0"/>
        <pt x="513" y="454" on="0"/>
        <pt x="513" y="483" on="1"/>
        <pt x="513" y="513" on="0"/>
        <pt x="492" y="566" on="0"/>
        <pt x="457" y="607" on="0"/>
        <pt x="410" y="630" on="0"/>
        <pt x="384" y="630" on="1"/>
        <pt x="175" y="630" on="1"/>
      </contour>
      <contour>
        <pt x="294" y="918" on="1"/>
        <pt x="370" y="918" on="1"/>
        <pt x="424" y="817" on="1"/>
        <pt x="378" y="797" on="1"/>
      </contour>
      <contour>
        <pt x="158" y="918" on="1"/>
        <pt x="234" y="918" on="1"/>
        <pt x="288" y="817" on="1"/>
        <pt x="242" y="797" on="1"/>
      </contour>
    </TTGlyph>
    <TTGlyph name="Rdotbelow" xMin="85" yMin="-182" xMax="627" yMax="710">
      <contour>
        <pt x="85" y="0" on="1"/>
        <pt x="85" y="710" on="1"/>
        <pt x="389" y="710" on="1"/>
        <pt x="436" y="710" on="0"/>
        <pt x="515" y="671" on="0"/>
        <pt x="572" y="606" on="0"/>
        <pt x="604" y="525" on="0"/>
        <pt x="604" y="483" on="1"/>
        <pt x="604" y="446" on="0"/>
        <pt x="583" y="377" on="0"/>
        <pt x="544" y="321" on="0"/>
        <pt x="489" y="281" on="0"/>
        <pt x="455" y="272" on="1"/>
        <pt x="627" y="0" on="1"/>
        <pt x="525" y="0" on="1"/>
        <pt x="363" y="255" on="1"/>
        <pt x="175" y="255" on="1"/>
        <pt x="175" y="0" on="1"/>
      </contour>
      <contour>
        <pt x="175" y="335" on="1"/>
        <pt x="390" y="335" on="1"/>
        <pt x="418" y="335" on="0"/>
        <pt x="463" y="359" on="0"/>
        <pt x="495" y="400" on="0"/>
        <pt x="513" y="454" on="0"/>
        <pt x="513" y="483" on="1"/>
        <pt x="513" y="513" on="0"/>
        <pt x="492" y="566" on="0"/>
        <pt x="457" y="607" on="0"/>
        <pt x="410" y="630" on="0"/>
        <pt x="384" y="630" on="1"/>
        <pt x="175" y="630" on="1"/>
      </contour>
      <contour>
        <pt x="288" y="-182" on="1"/>
        <pt x="288" y="-76" on="1"/>
        <pt x="368" y="-76" on="1"/>
        <pt x="368" y="-182" on="1"/>
      </contour>
    </TTGlyph>
    <TTGlyph name="Rinvertedbreve" xMin="85" yMin="0" xMax="627" yMax="916">
      <contour>
        <pt x="85" y="0" on="1"/>
        <pt x="85" y="710" on="1"/>
        <pt x="389" y="710" on="1"/>
        <pt x="436" y="710" on="0"/>
        <pt x="515" y="671" on="0"/>
        <pt x="572" y="606" on="0"/>
        <pt x="604" y="525" on="0"/>
        <pt x="604" y="483" on="1"/>
        <pt x="604" y="446" on="0"/>
        <pt x="583" y="377" on="0"/>
        <pt x="544" y="321" on="0"/>
        <pt x="489" y="281" on="0"/>
        <pt x="455" y="272" on="1"/>
        <pt x="627" y="0" on="1"/>
        <pt x="525" y="0" on="1"/>
        <pt x="363" y="255" on="1"/>
        <pt x="175" y="255" on="1"/>
        <pt x="175" y="0" on="1"/>
      </contour>
      <contour>
        <pt x="175" y="335" on="1"/>
        <pt x="390" y="335" on="1"/>
        <pt x="418" y="335" on="0"/>
        <pt x="463" y="359" on="0"/>
        <pt x="495" y="400" on="0"/>
        <pt x="513" y="454" on="0"/>
        <pt x="513" y="483" on="1"/>
        <pt x="513" y="513" on="0"/>
        <pt x="492" y="566" on="0"/>
        <pt x="457" y="607" on="0"/>
        <pt x="410" y="630" on="0"/>
        <pt x="384" y="630" on="1"/>
        <pt x="175" y="630" on="1"/>
      </contour>
      <contour>
        <pt x="323" y="873" on="1"/>
        <pt x="300" y="873" on="0"/>
        <pt x="266" y="832" on="0"/>
        <pt x="266" y="805" on="1"/>
        <pt x="215" y="805" on="1"/>
        <pt x="215" y="829" on="0"/>
        <pt x="232" y="869" on="0"/>
        <pt x="261" y="899" on="0"/>
        <pt x="300" y="916" on="0"/>
        <pt x="323" y="916" on="1"/>
        <pt x="346" y="916" on="0"/>
        <pt x="385" y="899" on="0"/>
        <pt x="414" y="869" on="0"/>
        <pt x="431" y="829" on="0"/>
        <pt x="431" y="805" on="1"/>
        <pt x="381" y="805" on="1"/>
        <pt x="378" y="834" on="0"/>
        <pt x="345" y="873" on="0"/>
      </contour>
    </TTGlyph>
    <TTGlyph name="S" xMin="29" yMin="-7" xMax="576" yMax="715">
      <contour>
        <pt x="502" y="561" on="1"/>
        <pt x="490" y="575" on="0"/>
        <pt x="450" y="601" on="0"/>
        <pt x="400" y="622" on="0"/>
        <pt x="341" y="635" on="0"/>
        <pt x="309" y="635" on="1"/>
        <pt x="226" y="635" on="0"/>
        <pt x="149" y="573" on="0"/>
        <pt x="149" y="519" on="1"/>
        <pt x="149" y="490" on="0"/>
        <pt x="171" y="452" on="0"/>
        <pt x="218" y="425" on="0"/>
        <pt x="288" y="405" on="0"/>
        <pt x="336" y="394" on="1"/>
        <pt x="391" y="382" on="0"/>
        <pt x="480" y="351" on="0"/>
        <pt x="543" y="305" on="0"/>
        <pt x="576" y="239" on="0"/>
        <pt x="576" y="191" on="1"/>
        <pt x="576" y="140" on="0"/>
        <pt x="536" y="65" on="0"/>
        <pt x="467" y="16" on="0"/>
        <pt x="373" y="-7" on="0"/>
        <pt x="318" y="-7" on="1"/>
        <pt x="236" y="-7" on="0"/>
        <pt x="89" y="44" on="0"/>
        <pt x="29" y="93" on="1"/>
        <pt x="72" y="169" on="1"/>
        <pt x="88" y="152" on="0"/>
        <pt x="139" y="118" on="0"/>
        <pt x="204" y="91" on="0"/>
        <pt x="279" y="74" on="0"/>
        <pt x="320" y="74" on="1"/>
        <pt x="396" y="74" on="0"/>
        <pt x="480" y="128" on="0"/>
        <pt x="480" y="182" on="1"/>
        <pt x="480" y="212" on="0"/>
        <pt x="453" y="253" on="0"/>
        <pt x="401" y="283" on="0"/>
        <pt x="324" y="306" on="0"/>
        <pt x="275" y="318" on="1"/>
        <pt x="221" y="331" on="0"/>
        <pt x="139" y="361" on="0"/>
        <pt x="84" y="403" on="0"/>
        <pt x="56" y="463" on="0"/>
        <pt x="56" y="505" on="1"/>
        <pt x="56" y="556" on="0"/>
        <pt x="94" y="634" on="0"/>
        <pt x="162" y="688" on="0"/>
        <pt x="256" y="715" on="0"/>
        <pt x="311" y="715" on="1"/>
        <pt x="383" y="715" on="0"/>
        <pt x="499" y="671" on="0"/>
        <pt x="544" y="634" on="1"/>
      </contour>
    </TTGlyph>
    <TTGlyph name="S.sc" xMin="31" yMin="-6" xMax="491" yMax="555">
      <contour>
        <pt x="428" y="427" on="1"/>
        <pt x="405" y="450" on="0"/>
        <pt x="320" y="484" on="0"/>
        <pt x="267" y="484" on="1"/>
        <pt x="199" y="484" on="0"/>
        <pt x="136" y="440" on="0"/>
        <pt x="136" y="401" on="1"/>
        <pt x="136" y="381" on="0"/>
        <pt x="155" y="353" on="0"/>
        <pt x="193" y="333" on="0"/>
        <pt x="252" y="318" on="0"/>
        <pt x="291" y="309" on="1"/>
        <pt x="337" y="299" on="0"/>
        <pt x="411" y="275" on="0"/>
        <pt x="463" y="240" on="0"/>
        <pt x="491" y="188" on="0"/>
        <pt x="491" y="151" on="1"/>
        <pt x="491" y="110" on="0"/>
        <pt x="457" y="50" on="0"/>
        <pt x="399" y="12" on="0"/>
        <pt x="320" y="-6" on="0"/>
        <pt x="274" y="-6" on="1"/>
        <pt x="205" y="-6" on="0"/>
        <pt x="82" y="33" on="0"/>
        <pt x="31" y="70" on="1"/>
        <pt x="69" y="138" on="1"/>
        <pt x="98" y="110" on="0"/>
        <pt x="207" y="66" on="0"/>
        <pt x="276" y="66" on="1"/>
        <pt x="336" y="66" on="0"/>
        <pt x="405" y="105" on="0"/>
        <pt x="405" y="143" on="1"/>
        <pt x="405" y="165" on="0"/>
        <pt x="383" y="195" on="0"/>
        <pt x="339" y="217" on="0"/>
        <pt x="276" y="234" on="0"/>
        <pt x="235" y="243" on="1"/>
        <pt x="190" y="253" on="0"/>
        <pt x="122" y="277" on="0"/>
        <pt x="77" y="311" on="0"/>
        <pt x="54" y="359" on="0"/>
        <pt x="54" y="392" on="1"/>
        <pt x="54" y="432" on="0"/>
        <pt x="87" y="493" on="0"/>
        <pt x="144" y="534" on="0"/>
        <pt x="222" y="555" on="0"/>
        <pt x="268" y="555" on="1"/>
        <pt x="328" y="555" on="0"/>
        <pt x="426" y="521" on="0"/>
        <pt x="464" y="492" on="1"/>
      </contour>
    </TTGlyph>
    <TTGlyph name="Sacute" xMin="29" yMin="-7" xMax="576" yMax="930">
      <contour>
        <pt x="331" y="809" on="1"/>
        <pt x="273" y="829" on="1"/>
        <pt x="331" y="930" on="1"/>
        <pt x="419" y="930" on="1"/>
      </contour>
      <contour>
        <pt x="502" y="561" on="1"/>
        <pt x="490" y="575" on="0"/>
        <pt x="450" y="601" on="0"/>
        <pt x="400" y="622" on="0"/>
        <pt x="341" y="635" on="0"/>
        <pt x="309" y="635" on="1"/>
        <pt x="226" y="635" on="0"/>
        <pt x="149" y="573" on="0"/>
        <pt x="149" y="519" on="1"/>
        <pt x="149" y="490" on="0"/>
        <pt x="171" y="452" on="0"/>
        <pt x="218" y="425" on="0"/>
        <pt x="288" y="405" on="0"/>
        <pt x="336" y="394" on="1"/>
        <pt x="391" y="382" on="0"/>
        <pt x="480" y="351" on="0"/>
        <pt x="543" y="305" on="0"/>
        <pt x="576" y="239" on="0"/>
        <pt x="576" y="191" on="1"/>
        <pt x="576" y="140" on="0"/>
        <pt x="536" y="65" on="0"/>
        <pt x="467" y="16" on="0"/>
        <pt x="373" y="-7" on="0"/>
        <pt x="318" y="-7" on="1"/>
        <pt x="236" y="-7" on="0"/>
        <pt x="89" y="44" on="0"/>
        <pt x="29" y="93" on="1"/>
        <pt x="72" y="169" on="1"/>
        <pt x="88" y="152" on="0"/>
        <pt x="139" y="118" on="0"/>
        <pt x="204" y="91" on="0"/>
        <pt x="279" y="74" on="0"/>
        <pt x="320" y="74" on="1"/>
        <pt x="396" y="74" on="0"/>
        <pt x="480" y="128" on="0"/>
        <pt x="480" y="182" on="1"/>
        <pt x="480" y="212" on="0"/>
        <pt x="453" y="253" on="0"/>
        <pt x="401" y="283" on="0"/>
        <pt x="324" y="306" on="0"/>
        <pt x="275" y="318" on="1"/>
        <pt x="221" y="331" on="0"/>
        <pt x="139" y="361" on="0"/>
        <pt x="84" y="403" on="0"/>
        <pt x="56" y="463" on="0"/>
        <pt x="56" y="505" on="1"/>
        <pt x="56" y="556" on="0"/>
        <pt x="94" y="634" on="0"/>
        <pt x="162" y="688" on="0"/>
        <pt x="256" y="715" on="0"/>
        <pt x="311" y="715" on="1"/>
        <pt x="383" y="715" on="0"/>
        <pt x="499" y="671" on="0"/>
        <pt x="544" y="634" on="1"/>
      </contour>
    </TTGlyph>
    <TTGlyph name="Scaron" xMin="29" yMin="-7" xMax="576" yMax="930">
      <contour>
        <pt x="231" y="930" on="1"/>
        <pt x="316" y="867" on="1"/>
        <pt x="401" y="930" on="1"/>
        <pt x="449" y="906" on="1"/>
        <pt x="348" y="816" on="1"/>
        <pt x="284" y="816" on="1"/>
        <pt x="183" y="906" on="1"/>
      </contour>
      <contour>
        <pt x="502" y="561" on="1"/>
        <pt x="490" y="575" on="0"/>
        <pt x="450" y="601" on="0"/>
        <pt x="400" y="622" on="0"/>
        <pt x="341" y="635" on="0"/>
        <pt x="309" y="635" on="1"/>
        <pt x="226" y="635" on="0"/>
        <pt x="149" y="573" on="0"/>
        <pt x="149" y="519" on="1"/>
        <pt x="149" y="490" on="0"/>
        <pt x="171" y="452" on="0"/>
        <pt x="218" y="425" on="0"/>
        <pt x="288" y="405" on="0"/>
        <pt x="336" y="394" on="1"/>
        <pt x="391" y="382" on="0"/>
        <pt x="480" y="351" on="0"/>
        <pt x="543" y="305" on="0"/>
        <pt x="576" y="239" on="0"/>
        <pt x="576" y="191" on="1"/>
        <pt x="576" y="140" on="0"/>
        <pt x="536" y="65" on="0"/>
        <pt x="467" y="16" on="0"/>
        <pt x="373" y="-7" on="0"/>
        <pt x="318" y="-7" on="1"/>
        <pt x="236" y="-7" on="0"/>
        <pt x="89" y="44" on="0"/>
        <pt x="29" y="93" on="1"/>
        <pt x="72" y="169" on="1"/>
        <pt x="88" y="152" on="0"/>
        <pt x="139" y="118" on="0"/>
        <pt x="204" y="91" on="0"/>
        <pt x="279" y="74" on="0"/>
        <pt x="320" y="74" on="1"/>
        <pt x="396" y="74" on="0"/>
        <pt x="480" y="128" on="0"/>
        <pt x="480" y="182" on="1"/>
        <pt x="480" y="212" on="0"/>
        <pt x="453" y="253" on="0"/>
        <pt x="401" y="283" on="0"/>
        <pt x="324" y="306" on="0"/>
        <pt x="275" y="318" on="1"/>
        <pt x="221" y="331" on="0"/>
        <pt x="139" y="361" on="0"/>
        <pt x="84" y="403" on="0"/>
        <pt x="56" y="463" on="0"/>
        <pt x="56" y="505" on="1"/>
        <pt x="56" y="556" on="0"/>
        <pt x="94" y="634" on="0"/>
        <pt x="162" y="688" on="0"/>
        <pt x="256" y="715" on="0"/>
        <pt x="311" y="715" on="1"/>
        <pt x="383" y="715" on="0"/>
        <pt x="499" y="671" on="0"/>
        <pt x="544" y="634" on="1"/>
      </contour>
    </TTGlyph>
    <TTGlyph name="Schwa" xMin="27" yMin="-5" xMax="696" yMax="715">
      <contour>
        <pt x="364" y="-5" on="1"/>
        <pt x="294" y="-5" on="0"/>
        <pt x="171" y="51" on="0"/>
        <pt x="80" y="147" on="0"/>
        <pt x="27" y="276" on="0"/>
        <pt x="27" y="349" on="1"/>
        <pt x="27" y="362" on="0"/>
        <pt x="28" y="386" on="0"/>
        <pt x="30" y="392" on="1"/>
        <pt x="597" y="392" on="1"/>
        <pt x="592" y="443" on="0"/>
        <pt x="550" y="531" on="0"/>
        <pt x="487" y="596" on="0"/>
        <pt x="405" y="632" on="0"/>
        <pt x="359" y="632" on="1"/>
        <pt x="324" y="632" on="0"/>
        <pt x="260" y="612" on="0"/>
        <pt x="207" y="577" on="0"/>
        <pt x="167" y="528" on="0"/>
        <pt x="158" y="499" on="1"/>
        <pt x="73" y="538" on="1"/>
        <pt x="92" y="577" on="0"/>
        <pt x="155" y="643" on="0"/>
        <pt x="233" y="689" on="0"/>
        <pt x="321" y="715" on="0"/>
        <pt x="367" y="715" on="1"/>
        <pt x="436" y="715" on="0"/>
        <pt x="556" y="659" on="0"/>
        <pt x="645" y="561" on="0"/>
        <pt x="696" y="429" on="0"/>
        <pt x="696" y="353" on="1"/>
        <pt x="696" y="278" on="0"/>
        <pt x="645" y="147" on="0"/>
        <pt x="555" y="50" on="0"/>
        <pt x="434" y="-5" on="0"/>
      </contour>
      <contour>
        <pt x="366" y="76" on="1"/>
        <pt x="413" y="76" on="0"/>
        <pt x="495" y="112" on="0"/>
        <pt x="557" y="175" on="0"/>
        <pt x="596" y="263" on="0"/>
        <pt x="599" y="314" on="1"/>
        <pt x="124" y="314" on="1"/>
        <pt x="127" y="264" on="0"/>
        <pt x="167" y="177" on="0"/>
        <pt x="233" y="113" on="0"/>
        <pt x="318" y="76" on="0"/>
      </contour>
    </TTGlyph>
    <TTGlyph name="Scircumflex" xMin="29" yMin="-7" xMax="576" yMax="930">
      <contour>
        <pt x="183" y="840" on="1"/>
        <pt x="284" y="930" on="1"/>
        <pt x="348" y="930" on="1"/>
        <pt x="449" y="840" on="1"/>
        <pt x="401" y="816" on="1"/>
        <pt x="316" y="879" on="1"/>
        <pt x="231" y="816" on="1"/>
      </contour>
      <contour>
        <pt x="502" y="561" on="1"/>
        <pt x="490" y="575" on="0"/>
        <pt x="450" y="601" on="0"/>
        <pt x="400" y="622" on="0"/>
        <pt x="341" y="635" on="0"/>
        <pt x="309" y="635" on="1"/>
        <pt x="226" y="635" on="0"/>
        <pt x="149" y="573" on="0"/>
        <pt x="149" y="519" on="1"/>
        <pt x="149" y="490" on="0"/>
        <pt x="171" y="452" on="0"/>
        <pt x="218" y="425" on="0"/>
        <pt x="288" y="405" on="0"/>
        <pt x="336" y="394" on="1"/>
        <pt x="391" y="382" on="0"/>
        <pt x="480" y="351" on="0"/>
        <pt x="543" y="305" on="0"/>
        <pt x="576" y="239" on="0"/>
        <pt x="576" y="191" on="1"/>
        <pt x="576" y="140" on="0"/>
        <pt x="536" y="65" on="0"/>
        <pt x="467" y="16" on="0"/>
        <pt x="373" y="-7" on="0"/>
        <pt x="318" y="-7" on="1"/>
        <pt x="236" y="-7" on="0"/>
        <pt x="89" y="44" on="0"/>
        <pt x="29" y="93" on="1"/>
        <pt x="72" y="169" on="1"/>
        <pt x="88" y="152" on="0"/>
        <pt x="139" y="118" on="0"/>
        <pt x="204" y="91" on="0"/>
        <pt x="279" y="74" on="0"/>
        <pt x="320" y="74" on="1"/>
        <pt x="396" y="74" on="0"/>
        <pt x="480" y="128" on="0"/>
        <pt x="480" y="182" on="1"/>
        <pt x="480" y="212" on="0"/>
        <pt x="453" y="253" on="0"/>
        <pt x="401" y="283" on="0"/>
        <pt x="324" y="306" on="0"/>
        <pt x="275" y="318" on="1"/>
        <pt x="221" y="331" on="0"/>
        <pt x="139" y="361" on="0"/>
        <pt x="84" y="403" on="0"/>
        <pt x="56" y="463" on="0"/>
        <pt x="56" y="505" on="1"/>
        <pt x="56" y="556" on="0"/>
        <pt x="94" y="634" on="0"/>
        <pt x="162" y="688" on="0"/>
        <pt x="256" y="715" on="0"/>
        <pt x="311" y="715" on="1"/>
        <pt x="383" y="715" on="0"/>
        <pt x="499" y="671" on="0"/>
        <pt x="544" y="634" on="1"/>
      </contour>
    </TTGlyph>
    <TTGlyph name="Sdotbelow" xMin="29" yMin="-182" xMax="576" yMax="715">
      <contour>
        <pt x="502" y="561" on="1"/>
        <pt x="490" y="575" on="0"/>
        <pt x="450" y="601" on="0"/>
        <pt x="400" y="622" on="0"/>
        <pt x="341" y="635" on="0"/>
        <pt x="309" y="635" on="1"/>
        <pt x="226" y="635" on="0"/>
        <pt x="149" y="573" on="0"/>
        <pt x="149" y="519" on="1"/>
        <pt x="149" y="490" on="0"/>
        <pt x="171" y="452" on="0"/>
        <pt x="218" y="425" on="0"/>
        <pt x="288" y="405" on="0"/>
        <pt x="336" y="394" on="1"/>
        <pt x="391" y="382" on="0"/>
        <pt x="480" y="351" on="0"/>
        <pt x="543" y="305" on="0"/>
        <pt x="576" y="239" on="0"/>
        <pt x="576" y="191" on="1"/>
        <pt x="576" y="140" on="0"/>
        <pt x="536" y="65" on="0"/>
        <pt x="467" y="16" on="0"/>
        <pt x="373" y="-7" on="0"/>
        <pt x="318" y="-7" on="1"/>
        <pt x="236" y="-7" on="0"/>
        <pt x="89" y="44" on="0"/>
        <pt x="29" y="93" on="1"/>
        <pt x="72" y="169" on="1"/>
        <pt x="88" y="152" on="0"/>
        <pt x="139" y="118" on="0"/>
        <pt x="204" y="91" on="0"/>
        <pt x="279" y="74" on="0"/>
        <pt x="320" y="74" on="1"/>
        <pt x="396" y="74" on="0"/>
        <pt x="480" y="128" on="0"/>
        <pt x="480" y="182" on="1"/>
        <pt x="480" y="212" on="0"/>
        <pt x="453" y="253" on="0"/>
        <pt x="401" y="283" on="0"/>
        <pt x="324" y="306" on="0"/>
        <pt x="275" y="318" on="1"/>
        <pt x="221" y="331" on="0"/>
        <pt x="139" y="361" on="0"/>
        <pt x="84" y="403" on="0"/>
        <pt x="56" y="463" on="0"/>
        <pt x="56" y="505" on="1"/>
        <pt x="56" y="556" on="0"/>
        <pt x="94" y="634" on="0"/>
        <pt x="162" y="688" on="0"/>
        <pt x="256" y="715" on="0"/>
        <pt x="311" y="715" on="1"/>
        <pt x="383" y="715" on="0"/>
        <pt x="499" y="671" on="0"/>
        <pt x="544" y="634" on="1"/>
      </contour>
      <contour>
        <pt x="264" y="-182" on="1"/>
        <pt x="264" y="-76" on="1"/>
        <pt x="344" y="-76" on="1"/>
        <pt x="344" y="-182" on="1"/>
      </contour>
    </TTGlyph>
    <TTGlyph name="T" xMin="17" yMin="0" xMax="597" yMax="710">
      <contour>
        <pt x="597" y="630" on="1"/>
        <pt x="352" y="630" on="1"/>
        <pt x="352" y="0" on="1"/>
        <pt x="262" y="0" on="1"/>
        <pt x="262" y="630" on="1"/>
        <pt x="17" y="630" on="1"/>
        <pt x="17" y="710" on="1"/>
        <pt x="597" y="710" on="1"/>
      </contour>
    </TTGlyph>
    <TTGlyph name="T.sc" xMin="21" yMin="0" xMax="516" yMax="551">
      <contour>
        <pt x="516" y="480" on="1"/>
        <pt x="309" y="480" on="1"/>
        <pt x="309" y="0" on="1"/>
        <pt x="229" y="0" on="1"/>
        <pt x="229" y="480" on="1"/>
        <pt x="21" y="480" on="1"/>
        <pt x="21" y="551" on="1"/>
        <pt x="516" y="551" on="1"/>
      </contour>
    </TTGlyph>
    <TTGlyph name="Tbar" xMin="31" yMin="0" xMax="611" yMax="710">
      <contour>
        <pt x="611" y="630" on="1"/>
        <pt x="366" y="630" on="1"/>
        <pt x="366" y="397" on="1"/>
        <pt x="577" y="397" on="1"/>
        <pt x="577" y="350" on="1"/>
        <pt x="366" y="350" on="1"/>
        <pt x="366" y="0" on="1"/>
        <pt x="276" y="0" on="1"/>
        <pt x="276" y="350" on="1"/>
        <pt x="65" y="350" on="1"/>
        <pt x="65" y="397" on="1"/>
        <pt x="276" y="397" on="1"/>
        <pt x="276" y="630" on="1"/>
        <pt x="31" y="630" on="1"/>
        <pt x="31" y="710" on="1"/>
        <pt x="611" y="710" on="1"/>
      </contour>
    </TTGlyph>
    <TTGlyph name="Tcaron" xMin="17" yMin="0" xMax="597" yMax="916">
      <contour>
        <pt x="225" y="916" on="1"/>
        <pt x="310" y="853" on="1"/>
        <pt x="395" y="916" on="1"/>
        <pt x="443" y="892" on="1"/>
        <pt x="342" y="802" on="1"/>
        <pt x="278" y="802" on="1"/>
        <pt x="177" y="892" on="1"/>
      </contour>
      <contour>
        <pt x="597" y="630" on="1"/>
        <pt x="352" y="630" on="1"/>
        <pt x="352" y="0" on="1"/>
        <pt x="262" y="0" on="1"/>
        <pt x="262" y="630" on="1"/>
        <pt x="17" y="630" on="1"/>
        <pt x="17" y="710" on="1"/>
        <pt x="597" y="710" on="1"/>
      </contour>
    </TTGlyph>
    <TTGlyph name="Tdotbelow" xMin="17" yMin="-182" xMax="597" yMax="710">
      <contour>
        <pt x="597" y="630" on="1"/>
        <pt x="352" y="630" on="1"/>
        <pt x="352" y="0" on="1"/>
        <pt x="262" y="0" on="1"/>
        <pt x="262" y="630" on="1"/>
        <pt x="17" y="630" on="1"/>
        <pt x="17" y="710" on="1"/>
        <pt x="597" y="710" on="1"/>
      </contour>
      <contour>
        <pt x="265" y="-182" on="1"/>
        <pt x="265" y="-76" on="1"/>
        <pt x="345" y="-76" on="1"/>
        <pt x="345" y="-182" on="1"/>
      </contour>
    </TTGlyph>
    <TTGlyph name="Thorn" xMin="85" yMin="0" xMax="578" yMax="710">
      <contour>
        <pt x="363" y="573" on="1"/>
        <pt x="410" y="573" on="0"/>
        <pt x="489" y="534" on="0"/>
        <pt x="546" y="469" on="0"/>
        <pt x="578" y="388" on="0"/>
        <pt x="578" y="346" on="1"/>
        <pt x="578" y="302" on="0"/>
        <pt x="548" y="219" on="0"/>
        <pt x="493" y="156" on="0"/>
        <pt x="416" y="118" on="0"/>
        <pt x="369" y="118" on="1"/>
        <pt x="175" y="118" on="1"/>
        <pt x="175" y="0" on="1"/>
        <pt x="85" y="0" on="1"/>
        <pt x="85" y="710" on="1"/>
        <pt x="175" y="710" on="1"/>
        <pt x="175" y="573" on="1"/>
      </contour>
      <contour>
        <pt x="365" y="198" on="1"/>
        <pt x="393" y="198" on="0"/>
        <pt x="439" y="223" on="0"/>
        <pt x="471" y="264" on="0"/>
        <pt x="488" y="317" on="0"/>
        <pt x="488" y="346" on="1"/>
        <pt x="488" y="376" on="0"/>
        <pt x="467" y="429" on="0"/>
        <pt x="432" y="470" on="0"/>
        <pt x="385" y="493" on="0"/>
        <pt x="359" y="493" on="1"/>
        <pt x="175" y="493" on="1"/>
        <pt x="175" y="198" on="1"/>
      </contour>
    </TTGlyph>
    <TTGlyph name="U" xMin="75" yMin="-5" xMax="680" yMax="710">
      <contour>
        <pt x="377" y="76" on="1"/>
        <pt x="439" y="76" on="0"/>
        <pt x="521" y="124" on="0"/>
        <pt x="570" y="201" on="0"/>
        <pt x="590" y="300" on="0"/>
        <pt x="590" y="351" on="1"/>
        <pt x="590" y="710" on="1"/>
        <pt x="680" y="710" on="1"/>
        <pt x="680" y="351" on="1"/>
        <pt x="680" y="279" on="0"/>
        <pt x="647" y="150" on="0"/>
        <pt x="575" y="52" on="0"/>
        <pt x="460" y="-5" on="0"/>
        <pt x="378" y="-5" on="1"/>
        <pt x="293" y="-5" on="0"/>
        <pt x="177" y="55" on="0"/>
        <pt x="106" y="154" on="0"/>
        <pt x="75" y="283" on="0"/>
        <pt x="75" y="351" on="1"/>
        <pt x="75" y="710" on="1"/>
        <pt x="165" y="710" on="1"/>
        <pt x="165" y="351" on="1"/>
        <pt x="165" y="298" on="0"/>
        <pt x="186" y="199" on="0"/>
        <pt x="235" y="123" on="0"/>
        <pt x="316" y="76" on="0"/>
      </contour>
    </TTGlyph>
    <TTGlyph name="U.sc" xMin="71" yMin="-4" xMax="582" yMax="551">
      <contour>
        <pt x="326" y="68" on="1"/>
        <pt x="377" y="68" on="0"/>
        <pt x="445" y="103" on="0"/>
        <pt x="486" y="160" on="0"/>
        <pt x="502" y="234" on="0"/>
        <pt x="502" y="272" on="1"/>
        <pt x="502" y="551" on="1"/>
        <pt x="582" y="551" on="1"/>
        <pt x="582" y="272" on="1"/>
        <pt x="582" y="216" on="0"/>
        <pt x="554" y="115" on="0"/>
        <pt x="493" y="40" on="0"/>
        <pt x="396" y="-4" on="0"/>
        <pt x="327" y="-4" on="1"/>
        <pt x="256" y="-4" on="0"/>
        <pt x="158" y="42" on="0"/>
        <pt x="98" y="119" on="0"/>
        <pt x="71" y="219" on="0"/>
        <pt x="71" y="272" on="1"/>
        <pt x="71" y="551" on="1"/>
        <pt x="151" y="551" on="1"/>
        <pt x="151" y="272" on="1"/>
        <pt x="151" y="233" on="0"/>
        <pt x="168" y="159" on="0"/>
        <pt x="209" y="102" on="0"/>
        <pt x="276" y="68" on="0"/>
      </contour>
    </TTGlyph>
    <TTGlyph name="Uacute" xMin="75" yMin="-5" xMax="680" yMax="916">
      <contour>
        <pt x="393" y="795" on="1"/>
        <pt x="335" y="815" on="1"/>
        <pt x="393" y="916" on="1"/>
        <pt x="481" y="916" on="1"/>
      </contour>
      <contour>
        <pt x="377" y="76" on="1"/>
        <pt x="439" y="76" on="0"/>
        <pt x="521" y="124" on="0"/>
        <pt x="570" y="201" on="0"/>
        <pt x="590" y="300" on="0"/>
        <pt x="590" y="351" on="1"/>
        <pt x="590" y="710" on="1"/>
        <pt x="680" y="710" on="1"/>
        <pt x="680" y="351" on="1"/>
        <pt x="680" y="279" on="0"/>
        <pt x="647" y="150" on="0"/>
        <pt x="575" y="52" on="0"/>
        <pt x="460" y="-5" on="0"/>
        <pt x="378" y="-5" on="1"/>
        <pt x="293" y="-5" on="0"/>
        <pt x="177" y="55" on="0"/>
        <pt x="106" y="154" on="0"/>
        <pt x="75" y="283" on="0"/>
        <pt x="75" y="351" on="1"/>
        <pt x="75" y="710" on="1"/>
        <pt x="165" y="710" on="1"/>
        <pt x="165" y="351" on="1"/>
        <pt x="165" y="298" on="0"/>
        <pt x="186" y="199" on="0"/>
        <pt x="235" y="123" on="0"/>
        <pt x="316" y="76" on="0"/>
      </contour>
    </TTGlyph>
    <TTGlyph name="Ubreve" xMin="75" yMin="-5" xMax="680" yMax="916">
      <contour>
        <pt x="377" y="76" on="1"/>
        <pt x="439" y="76" on="0"/>
        <pt x="521" y="124" on="0"/>
        <pt x="570" y="201" on="0"/>
        <pt x="590" y="300" on="0"/>
        <pt x="590" y="351" on="1"/>
        <pt x="590" y="710" on="1"/>
        <pt x="680" y="710" on="1"/>
        <pt x="680" y="351" on="1"/>
        <pt x="680" y="279" on="0"/>
        <pt x="647" y="150" on="0"/>
        <pt x="575" y="52" on="0"/>
        <pt x="460" y="-5" on="0"/>
        <pt x="378" y="-5" on="1"/>
        <pt x="293" y="-5" on="0"/>
        <pt x="177" y="55" on="0"/>
        <pt x="106" y="154" on="0"/>
        <pt x="75" y="283" on="0"/>
        <pt x="75" y="351" on="1"/>
        <pt x="75" y="710" on="1"/>
        <pt x="165" y="710" on="1"/>
        <pt x="165" y="351" on="1"/>
        <pt x="165" y="298" on="0"/>
        <pt x="186" y="199" on="0"/>
        <pt x="235" y="123" on="0"/>
        <pt x="316" y="76" on="0"/>
      </contour>
      <contour>
        <pt x="378" y="848" on="1"/>
        <pt x="400" y="848" on="0"/>
        <pt x="433" y="887" on="0"/>
        <pt x="436" y="916" on="1"/>
        <pt x="486" y="916" on="1"/>
        <pt x="486" y="892" on="0"/>
        <pt x="469" y="852" on="0"/>
        <pt x="440" y="822" on="0"/>
        <pt x="401" y="805" on="0"/>
        <pt x="378" y="805" on="1"/>
        <pt x="355" y="805" on="0"/>
        <pt x="316" y="822" on="0"/>
        <pt x="287" y="852" on="0"/>
        <pt x="270" y="892" on="0"/>
        <pt x="270" y="916" on="1"/>
        <pt x="321" y="916" on="1"/>
        <pt x="321" y="889" on="0"/>
        <pt x="355" y="848" on="0"/>
      </contour>
    </TTGlyph>
    <TTGlyph name="Ucircumflex" xMin="75" yMin="-5" xMax="680" yMax="916">
      <contour>
        <pt x="245" y="826" on="1"/>
        <pt x="346" y="916" on="1"/>
        <pt x="410" y="916" on="1"/>
        <pt x="511" y="826" on="1"/>
        <pt x="463" y="802" on="1"/>
        <pt x="378" y="865" on="1"/>
        <pt x="293" y="802" on="1"/>
      </contour>
      <contour>
        <pt x="377" y="76" on="1"/>
        <pt x="439" y="76" on="0"/>
        <pt x="521" y="124" on="0"/>
        <pt x="570" y="201" on="0"/>
        <pt x="590" y="300" on="0"/>
        <pt x="590" y="351" on="1"/>
        <pt x="590" y="710" on="1"/>
        <pt x="680" y="710" on="1"/>
        <pt x="680" y="351" on="1"/>
        <pt x="680" y="279" on="0"/>
        <pt x="647" y="150" on="0"/>
        <pt x="575" y="52" on="0"/>
        <pt x="460" y="-5" on="0"/>
        <pt x="378" y="-5" on="1"/>
        <pt x="293" y="-5" on="0"/>
        <pt x="177" y="55" on="0"/>
        <pt x="106" y="154" on="0"/>
        <pt x="75" y="283" on="0"/>
        <pt x="75" y="351" on="1"/>
        <pt x="75" y="710" on="1"/>
        <pt x="165" y="710" on="1"/>
        <pt x="165" y="351" on="1"/>
        <pt x="165" y="298" on="0"/>
        <pt x="186" y="199" on="0"/>
        <pt x="235" y="123" on="0"/>
        <pt x="316" y="76" on="0"/>
      </contour>
    </TTGlyph>
    <TTGlyph name="Udblgrave" xMin="75" yMin="-5" xMax="680" yMax="918">
      <contour>
        <pt x="377" y="76" on="1"/>
        <pt x="439" y="76" on="0"/>
        <pt x="521" y="124" on="0"/>
        <pt x="570" y="201" on="0"/>
        <pt x="590" y="300" on="0"/>
        <pt x="590" y="351" on="1"/>
        <pt x="590" y="710" on="1"/>
        <pt x="680" y="710" on="1"/>
        <pt x="680" y="351" on="1"/>
        <pt x="680" y="279" on="0"/>
        <pt x="647" y="150" on="0"/>
        <pt x="575" y="52" on="0"/>
        <pt x="460" y="-5" on="0"/>
        <pt x="378" y="-5" on="1"/>
        <pt x="293" y="-5" on="0"/>
        <pt x="177" y="55" on="0"/>
        <pt x="106" y="154" on="0"/>
        <pt x="75" y="283" on="0"/>
        <pt x="75" y="351" on="1"/>
        <pt x="75" y="710" on="1"/>
        <pt x="165" y="710" on="1"/>
        <pt x="165" y="351" on="1"/>
        <pt x="165" y="298" on="0"/>
        <pt x="186" y="199" on="0"/>
        <pt x="235" y="123" on="0"/>
        <pt x="316" y="76" on="0"/>
      </contour>
      <contour>
        <pt x="349" y="918" on="1"/>
        <pt x="425" y="918" on="1"/>
        <pt x="479" y="817" on="1"/>
        <pt x="433" y="797" on="1"/>
      </contour>
      <contour>
        <pt x="213" y="918" on="1"/>
        <pt x="289" y="918" on="1"/>
        <pt x="343" y="817" on="1"/>
        <pt x="297" y="797" on="1"/>
      </contour>
    </TTGlyph>
    <TTGlyph name="Udieresis" xMin="75" yMin="-5" xMax="680" yMax="913">
      <contour>
        <pt x="260" y="811" on="1"/>
        <pt x="260" y="913" on="1"/>
        <pt x="334" y="913" on="1"/>
        <pt x="334" y="811" on="1"/>
      </contour>
      <contour>
        <pt x="422" y="811" on="1"/>
        <pt x="422" y="913" on="1"/>
        <pt x="496" y="913" on="1"/>
        <pt x="496" y="811" on="1"/>
      </contour>
      <contour>
        <pt x="377" y="76" on="1"/>
        <pt x="439" y="76" on="0"/>
        <pt x="521" y="124" on="0"/>
        <pt x="570" y="201" on="0"/>
        <pt x="590" y="300" on="0"/>
        <pt x="590" y="351" on="1"/>
        <pt x="590" y="710" on="1"/>
        <pt x="680" y="710" on="1"/>
        <pt x="680" y="351" on="1"/>
        <pt x="680" y="279" on="0"/>
        <pt x="647" y="150" on="0"/>
        <pt x="575" y="52" on="0"/>
        <pt x="460" y="-5" on="0"/>
        <pt x="378" y="-5" on="1"/>
        <pt x="293" y="-5" on="0"/>
        <pt x="177" y="55" on="0"/>
        <pt x="106" y="154" on="0"/>
        <pt x="75" y="283" on="0"/>
        <pt x="75" y="351" on="1"/>
        <pt x="75" y="710" on="1"/>
        <pt x="165" y="710" on="1"/>
        <pt x="165" y="351" on="1"/>
        <pt x="165" y="298" on="0"/>
        <pt x="186" y="199" on="0"/>
        <pt x="235" y="123" on="0"/>
        <pt x="316" y="76" on="0"/>
      </contour>
    </TTGlyph>
    <TTGlyph name="Udotbelow" xMin="75" yMin="-182" xMax="680" yMax="710">
      <contour>
        <pt x="377" y="76" on="1"/>
        <pt x="439" y="76" on="0"/>
        <pt x="521" y="124" on="0"/>
        <pt x="570" y="201" on="0"/>
        <pt x="590" y="300" on="0"/>
        <pt x="590" y="351" on="1"/>
        <pt x="590" y="710" on="1"/>
        <pt x="680" y="710" on="1"/>
        <pt x="680" y="351" on="1"/>
        <pt x="680" y="279" on="0"/>
        <pt x="647" y="150" on="0"/>
        <pt x="575" y="52" on="0"/>
        <pt x="460" y="-5" on="0"/>
        <pt x="378" y="-5" on="1"/>
        <pt x="293" y="-5" on="0"/>
        <pt x="177" y="55" on="0"/>
        <pt x="106" y="154" on="0"/>
        <pt x="75" y="283" on="0"/>
        <pt x="75" y="351" on="1"/>
        <pt x="75" y="710" on="1"/>
        <pt x="165" y="710" on="1"/>
        <pt x="165" y="351" on="1"/>
        <pt x="165" y="298" on="0"/>
        <pt x="186" y="199" on="0"/>
        <pt x="235" y="123" on="0"/>
        <pt x="316" y="76" on="0"/>
      </contour>
      <contour>
        <pt x="339" y="-182" on="1"/>
        <pt x="339" y="-76" on="1"/>
        <pt x="419" y="-76" on="1"/>
        <pt x="419" y="-182" on="1"/>
      </contour>
    </TTGlyph>
    <TTGlyph name="Ugrave" xMin="75" yMin="-5" xMax="680" yMax="917">
      <contour>
        <pt x="377" y="76" on="1"/>
        <pt x="439" y="76" on="0"/>
        <pt x="521" y="124" on="0"/>
        <pt x="570" y="201" on="0"/>
        <pt x="590" y="300" on="0"/>
        <pt x="590" y="351" on="1"/>
        <pt x="590" y="710" on="1"/>
        <pt x="680" y="710" on="1"/>
        <pt x="680" y="351" on="1"/>
        <pt x="680" y="279" on="0"/>
        <pt x="647" y="150" on="0"/>
        <pt x="575" y="52" on="0"/>
        <pt x="460" y="-5" on="0"/>
        <pt x="378" y="-5" on="1"/>
        <pt x="293" y="-5" on="0"/>
        <pt x="177" y="55" on="0"/>
        <pt x="106" y="154" on="0"/>
        <pt x="75" y="283" on="0"/>
        <pt x="75" y="351" on="1"/>
        <pt x="75" y="710" on="1"/>
        <pt x="165" y="710" on="1"/>
        <pt x="165" y="351" on="1"/>
        <pt x="165" y="298" on="0"/>
        <pt x="186" y="199" on="0"/>
        <pt x="235" y="123" on="0"/>
        <pt x="316" y="76" on="0"/>
      </contour>
      <contour>
        <pt x="274" y="917" on="1"/>
        <pt x="361" y="917" on="1"/>
        <pt x="420" y="816" on="1"/>
        <pt x="363" y="796" on="1"/>
      </contour>
    </TTGlyph>
    <TTGlyph name="Uhungarumlaut" xMin="75" yMin="-5" xMax="680" yMax="917">
      <contour>
        <pt x="377" y="76" on="1"/>
        <pt x="439" y="76" on="0"/>
        <pt x="521" y="124" on="0"/>
        <pt x="570" y="201" on="0"/>
        <pt x="590" y="300" on="0"/>
        <pt x="590" y="351" on="1"/>
        <pt x="590" y="710" on="1"/>
        <pt x="680" y="710" on="1"/>
        <pt x="680" y="351" on="1"/>
        <pt x="680" y="279" on="0"/>
        <pt x="647" y="150" on="0"/>
        <pt x="575" y="52" on="0"/>
        <pt x="460" y="-5" on="0"/>
        <pt x="378" y="-5" on="1"/>
        <pt x="293" y="-5" on="0"/>
        <pt x="177" y="55" on="0"/>
        <pt x="106" y="154" on="0"/>
        <pt x="75" y="283" on="0"/>
        <pt x="75" y="351" on="1"/>
        <pt x="75" y="710" on="1"/>
        <pt x="165" y="710" on="1"/>
        <pt x="165" y="351" on="1"/>
        <pt x="165" y="298" on="0"/>
        <pt x="186" y="199" on="0"/>
        <pt x="235" y="123" on="0"/>
        <pt x="316" y="76" on="0"/>
      </contour>
      <contour>
        <pt x="314" y="796" on="1"/>
        <pt x="268" y="816" on="1"/>
        <pt x="322" y="917" on="1"/>
        <pt x="398" y="917" on="1"/>
      </contour>
      <contour>
        <pt x="450" y="796" on="1"/>
        <pt x="404" y="816" on="1"/>
        <pt x="458" y="917" on="1"/>
        <pt x="534" y="917" on="1"/>
      </contour>
    </TTGlyph>
    <TTGlyph name="Uinvertedbreve" xMin="75" yMin="-5" xMax="680" yMax="916">
      <contour>
        <pt x="377" y="76" on="1"/>
        <pt x="439" y="76" on="0"/>
        <pt x="521" y="124" on="0"/>
        <pt x="570" y="201" on="0"/>
        <pt x="590" y="300" on="0"/>
        <pt x="590" y="351" on="1"/>
        <pt x="590" y="710" on="1"/>
        <pt x="680" y="710" on="1"/>
        <pt x="680" y="351" on="1"/>
        <pt x="680" y="279" on="0"/>
        <pt x="647" y="150" on="0"/>
        <pt x="575" y="52" on="0"/>
        <pt x="460" y="-5" on="0"/>
        <pt x="378" y="-5" on="1"/>
        <pt x="293" y="-5" on="0"/>
        <pt x="177" y="55" on="0"/>
        <pt x="106" y="154" on="0"/>
        <pt x="75" y="283" on="0"/>
        <pt x="75" y="351" on="1"/>
        <pt x="75" y="710" on="1"/>
        <pt x="165" y="710" on="1"/>
        <pt x="165" y="351" on="1"/>
        <pt x="165" y="298" on="0"/>
        <pt x="186" y="199" on="0"/>
        <pt x="235" y="123" on="0"/>
        <pt x="316" y="76" on="0"/>
      </contour>
      <contour>
        <pt x="377" y="873" on="1"/>
        <pt x="354" y="873" on="0"/>
        <pt x="320" y="832" on="0"/>
        <pt x="320" y="805" on="1"/>
        <pt x="269" y="805" on="1"/>
        <pt x="269" y="829" on="0"/>
        <pt x="286" y="869" on="0"/>
        <pt x="315" y="899" on="0"/>
        <pt x="354" y="916" on="0"/>
        <pt x="377" y="916" on="1"/>
        <pt x="400" y="916" on="0"/>
        <pt x="439" y="899" on="0"/>
        <pt x="468" y="869" on="0"/>
        <pt x="485" y="829" on="0"/>
        <pt x="485" y="805" on="1"/>
        <pt x="435" y="805" on="1"/>
        <pt x="432" y="834" on="0"/>
        <pt x="399" y="873" on="0"/>
      </contour>
    </TTGlyph>
    <TTGlyph name="Umacron" xMin="75" yMin="-5" xMax="680" yMax="898">
      <contour>
        <pt x="377" y="76" on="1"/>
        <pt x="439" y="76" on="0"/>
        <pt x="521" y="124" on="0"/>
        <pt x="570" y="201" on="0"/>
        <pt x="590" y="300" on="0"/>
        <pt x="590" y="351" on="1"/>
        <pt x="590" y="710" on="1"/>
        <pt x="680" y="710" on="1"/>
        <pt x="680" y="351" on="1"/>
        <pt x="680" y="279" on="0"/>
        <pt x="647" y="150" on="0"/>
        <pt x="575" y="52" on="0"/>
        <pt x="460" y="-5" on="0"/>
        <pt x="378" y="-5" on="1"/>
        <pt x="293" y="-5" on="0"/>
        <pt x="177" y="55" on="0"/>
        <pt x="106" y="154" on="0"/>
        <pt x="75" y="283" on="0"/>
        <pt x="75" y="351" on="1"/>
        <pt x="75" y="710" on="1"/>
        <pt x="165" y="710" on="1"/>
        <pt x="165" y="351" on="1"/>
        <pt x="165" y="298" on="0"/>
        <pt x="186" y="199" on="0"/>
        <pt x="235" y="123" on="0"/>
        <pt x="316" y="76" on="0"/>
      </contour>
      <contour>
        <pt x="232" y="840" on="1"/>
        <pt x="232" y="898" on="1"/>
        <pt x="524" y="898" on="1"/>
        <pt x="524" y="840" on="1"/>
      </contour>
    </TTGlyph>
    <TTGlyph name="Uogonek" xMin="75" yMin="-183" xMax="680" yMax="710">
      <contour>
        <pt x="377" y="76" on="1"/>
        <pt x="439" y="76" on="0"/>
        <pt x="521" y="124" on="0"/>
        <pt x="570" y="201" on="0"/>
        <pt x="590" y="300" on="0"/>
        <pt x="590" y="351" on="1"/>
        <pt x="590" y="710" on="1"/>
        <pt x="680" y="710" on="1"/>
        <pt x="680" y="351" on="1"/>
        <pt x="680" y="281" on="0"/>
        <pt x="649" y="155" on="0"/>
        <pt x="581" y="59" on="0"/>
        <pt x="473" y="-1" on="0"/>
        <pt x="397" y="-4" on="1"/>
        <pt x="355" y="-30" on="0"/>
        <pt x="320" y="-72" on="0"/>
        <pt x="320" y="-94" on="1"/>
        <pt x="320" y="-131" on="0"/>
        <pt x="375" y="-137" on="1"/>
        <pt x="353" y="-183" on="1"/>
        <pt x="311" y="-175" on="0"/>
        <pt x="269" y="-134" on="0"/>
        <pt x="269" y="-106" on="1"/>
        <pt x="269" y="-80" on="0"/>
        <pt x="305" y="-29" on="0"/>
        <pt x="344" y="-3" on="1"/>
        <pt x="269" y="3" on="0"/>
        <pt x="166" y="66" on="0"/>
        <pt x="103" y="164" on="0"/>
        <pt x="75" y="286" on="0"/>
        <pt x="75" y="351" on="1"/>
        <pt x="75" y="710" on="1"/>
        <pt x="165" y="710" on="1"/>
        <pt x="165" y="351" on="1"/>
        <pt x="165" y="298" on="0"/>
        <pt x="186" y="199" on="0"/>
        <pt x="235" y="123" on="0"/>
        <pt x="316" y="76" on="0"/>
      </contour>
    </TTGlyph>
    <TTGlyph name="Uring" xMin="75" yMin="-5" xMax="680" yMax="916">
      <contour>
        <pt x="296" y="847" on="1"/>
        <pt x="296" y="879" on="0"/>
        <pt x="342" y="916" on="0"/>
        <pt x="377" y="916" on="1"/>
        <pt x="413" y="916" on="0"/>
        <pt x="458" y="879" on="0"/>
        <pt x="458" y="847" on="1"/>
        <pt x="458" y="815" on="0"/>
        <pt x="413" y="778" on="0"/>
        <pt x="377" y="778" on="1"/>
        <pt x="342" y="778" on="0"/>
        <pt x="296" y="815" on="0"/>
      </contour>
      <contour>
        <pt x="377" y="885" on="1"/>
        <pt x="360" y="885" on="0"/>
        <pt x="337" y="864" on="0"/>
        <pt x="337" y="847" on="1"/>
        <pt x="337" y="831" on="0"/>
        <pt x="360" y="809" on="0"/>
        <pt x="377" y="809" on="1"/>
        <pt x="393" y="809" on="0"/>
        <pt x="418" y="830" on="0"/>
        <pt x="418" y="847" on="1"/>
        <pt x="418" y="864" on="0"/>
        <pt x="394" y="885" on="0"/>
      </contour>
      <contour>
        <pt x="377" y="76" on="1"/>
        <pt x="439" y="76" on="0"/>
        <pt x="521" y="124" on="0"/>
        <pt x="570" y="201" on="0"/>
        <pt x="590" y="300" on="0"/>
        <pt x="590" y="351" on="1"/>
        <pt x="590" y="710" on="1"/>
        <pt x="680" y="710" on="1"/>
        <pt x="680" y="351" on="1"/>
        <pt x="680" y="279" on="0"/>
        <pt x="647" y="150" on="0"/>
        <pt x="575" y="52" on="0"/>
        <pt x="460" y="-5" on="0"/>
        <pt x="378" y="-5" on="1"/>
        <pt x="293" y="-5" on="0"/>
        <pt x="177" y="55" on="0"/>
        <pt x="106" y="154" on="0"/>
        <pt x="75" y="283" on="0"/>
        <pt x="75" y="351" on="1"/>
        <pt x="75" y="710" on="1"/>
        <pt x="165" y="710" on="1"/>
        <pt x="165" y="351" on="1"/>
        <pt x="165" y="298" on="0"/>
        <pt x="186" y="199" on="0"/>
        <pt x="235" y="123" on="0"/>
        <pt x="316" y="76" on="0"/>
      </contour>
    </TTGlyph>
    <TTGlyph name="Utilde" xMin="75" yMin="-5" xMax="680" yMax="916">
      <contour>
        <pt x="377" y="76" on="1"/>
        <pt x="439" y="76" on="0"/>
        <pt x="521" y="124" on="0"/>
        <pt x="570" y="201" on="0"/>
        <pt x="590" y="300" on="0"/>
        <pt x="590" y="351" on="1"/>
        <pt x="590" y="710" on="1"/>
        <pt x="680" y="710" on="1"/>
        <pt x="680" y="351" on="1"/>
        <pt x="680" y="279" on="0"/>
        <pt x="647" y="150" on="0"/>
        <pt x="575" y="52" on="0"/>
        <pt x="460" y="-5" on="0"/>
        <pt x="378" y="-5" on="1"/>
        <pt x="293" y="-5" on="0"/>
        <pt x="177" y="55" on="0"/>
        <pt x="106" y="154" on="0"/>
        <pt x="75" y="283" on="0"/>
        <pt x="75" y="351" on="1"/>
        <pt x="75" y="710" on="1"/>
        <pt x="165" y="710" on="1"/>
        <pt x="165" y="351" on="1"/>
        <pt x="165" y="298" on="0"/>
        <pt x="186" y="199" on="0"/>
        <pt x="235" y="123" on="0"/>
        <pt x="316" y="76" on="0"/>
      </contour>
      <contour>
        <pt x="440" y="813" on="1"/>
        <pt x="417" y="813" on="0"/>
        <pt x="384" y="826" on="0"/>
        <pt x="355" y="842" on="0"/>
        <pt x="327" y="855" on="0"/>
        <pt x="311" y="855" on="1"/>
        <pt x="294" y="855" on="0"/>
        <pt x="275" y="841" on="0"/>
        <pt x="265" y="824" on="0"/>
        <pt x="262" y="808" on="0"/>
        <pt x="262" y="807" on="1"/>
        <pt x="210" y="807" on="1"/>
        <pt x="210" y="813" on="0"/>
        <pt x="219" y="847" on="0"/>
        <pt x="241" y="883" on="0"/>
        <pt x="279" y="910" on="0"/>
        <pt x="309" y="910" on="1"/>
        <pt x="330" y="910" on="0"/>
        <pt x="362" y="897" on="0"/>
        <pt x="391" y="880" on="0"/>
        <pt x="420" y="867" on="0"/>
        <pt x="438" y="867" on="1"/>
        <pt x="457" y="867" on="0"/>
        <pt x="479" y="881" on="0"/>
        <pt x="491" y="899" on="0"/>
        <pt x="494" y="914" on="0"/>
        <pt x="494" y="916" on="1"/>
        <pt x="546" y="916" on="1"/>
        <pt x="546" y="910" on="0"/>
        <pt x="537" y="877" on="0"/>
        <pt x="513" y="841" on="0"/>
        <pt x="472" y="813" on="0"/>
      </contour>
    </TTGlyph>
    <TTGlyph name="V" xMin="10" yMin="0" xMax="669" yMax="710">
      <contour>
        <pt x="105" y="710" on="1"/>
        <pt x="340" y="113" on="1"/>
        <pt x="574" y="710" on="1"/>
        <pt x="669" y="710" on="1"/>
        <pt x="379" y="0" on="1"/>
        <pt x="301" y="0" on="1"/>
        <pt x="10" y="710" on="1"/>
      </contour>
    </TTGlyph>
    <TTGlyph name="V.sc" xMin="14" yMin="0" xMax="577" yMax="551">
      <contour>
        <pt x="99" y="551" on="1"/>
        <pt x="296" y="112" on="1"/>
        <pt x="492" y="551" on="1"/>
        <pt x="577" y="551" on="1"/>
        <pt x="330" y="0" on="1"/>
        <pt x="261" y="0" on="1"/>
        <pt x="14" y="551" on="1"/>
      </contour>
    </TTGlyph>
    <TTGlyph name="W" xMin="9" yMin="0" xMax="1041" yMax="710">
      <contour>
        <pt x="345" y="706" on="1"/>
        <pt x="430" y="706" on="1"/>
        <pt x="524" y="459" on="1"/>
        <pt x="619" y="706" on="1"/>
        <pt x="704" y="706" on="1"/>
        <pt x="581" y="397" on="1"/>
        <pt x="703" y="104" on="1"/>
        <pt x="943" y="710" on="1"/>
        <pt x="1041" y="710" on="1"/>
        <pt x="744" y="0" on="1"/>
        <pt x="666" y="0" on="1"/>
        <pt x="525" y="335" on="1"/>
        <pt x="383" y="0" on="1"/>
        <pt x="305" y="0" on="1"/>
        <pt x="9" y="710" on="1"/>
        <pt x="106" y="710" on="1"/>
        <pt x="347" y="104" on="1"/>
        <pt x="468" y="397" on="1"/>
      </contour>
    </TTGlyph>
    <TTGlyph name="W.alt" xMin="18" yMin="0" xMax="1059" yMax="710">
      <contour>
        <pt x="1059" y="710" on="1"/>
        <pt x="834" y="0" on="1"/>
        <pt x="740" y="0" on="1"/>
        <pt x="536" y="563" on="1"/>
        <pt x="337" y="0" on="1"/>
        <pt x="243" y="0" on="1"/>
        <pt x="18" y="710" on="1"/>
        <pt x="119" y="710" on="1"/>
        <pt x="298" y="133" on="1"/>
        <pt x="486" y="710" on="1"/>
        <pt x="584" y="710" on="1"/>
        <pt x="779" y="133" on="1"/>
        <pt x="957" y="710" on="1"/>
      </contour>
    </TTGlyph>
    <TTGlyph name="W.sc" xMin="13" yMin="0" xMax="895" yMax="551">
      <contour>
        <pt x="299" y="548" on="1"/>
        <pt x="374" y="548" on="1"/>
        <pt x="453" y="359" on="1"/>
        <pt x="533" y="548" on="1"/>
        <pt x="608" y="548" on="1"/>
        <pt x="503" y="305" on="1"/>
        <pt x="602" y="97" on="1"/>
        <pt x="807" y="551" on="1"/>
        <pt x="895" y="551" on="1"/>
        <pt x="642" y="0" on="1"/>
        <pt x="573" y="0" on="1"/>
        <pt x="454" y="252" on="1"/>
        <pt x="335" y="0" on="1"/>
        <pt x="265" y="0" on="1"/>
        <pt x="13" y="551" on="1"/>
        <pt x="100" y="551" on="1"/>
        <pt x="306" y="97" on="1"/>
        <pt x="403" y="305" on="1"/>
      </contour>
    </TTGlyph>
</ttFont>
